<svg width="169" height="171" viewBox="0 0 169 171" fill="none" xmlns="http://www.w3.org/2000/svg">
<mask id="path-1-inside-1_10_120" fill="white">
<path d="M2.58839 170.087H99.9655C101.536 170.087 102.583 169.04 102.583 167.469C102.583 165.899 101.536 164.852 99.9655 164.852H6.77666C10.4414 156.999 10.4414 157.26 10.4414 156.999H140.016C140.016 157.522 140.016 156.999 143.681 164.852H116.195C114.624 164.852 113.577 165.899 113.577 167.469C113.577 169.04 114.624 170.087 116.195 170.087H147.607C148.392 170.087 149.439 169.564 149.701 168.778C150.225 167.993 150.225 166.946 149.963 166.161L144.728 155.166C143.942 153.072 142.11 151.502 139.754 151.502H125.357V138.675C125.619 138.675 137.66 138.675 137.136 138.675C138.707 138.675 139.754 137.628 139.754 136.057C139.754 134.487 138.707 133.44 137.136 133.44H133.995V126.896C133.995 121.137 129.283 116.425 123.524 116.425H96.8243C91.0654 116.425 86.3537 121.137 86.3537 126.896V133.44H81.6419C80.0713 133.44 79.0242 134.487 79.0242 136.057C79.0242 137.628 80.0713 138.675 81.6419 138.675C81.9036 138.675 94.2066 138.675 93.4213 138.675V151.502H59.1299V126.896C59.3917 121.922 57.2976 111.975 47.6122 110.404C41.3298 109.357 34.5239 112.76 31.6445 119.566L30.8592 121.66C6.77666 98.363 22.7444 57.7892 55.9888 57.0039C58.8682 60.4069 63.0564 62.501 67.7682 62.501C70.1241 62.501 72.48 61.9775 74.3124 60.9304L80.333 74.5423C80.8566 75.8511 82.4272 76.3747 83.736 75.8511L87.4007 74.2805L90.0184 80.3012C92.1125 85.2747 97.8714 87.3688 102.583 85.2747C107.557 83.1806 109.651 77.4217 107.557 72.7099L104.939 66.6893L108.604 65.1187C109.913 64.5952 110.436 63.0246 109.913 61.7157L89.7566 14.336C89.2331 13.0272 87.6625 12.5036 86.3537 13.0272L82.6889 14.5978L79.286 6.48301L82.9507 4.91242C84.2595 4.38888 85.0448 2.81828 84.2595 1.50945C83.4742 0.200619 82.1654 -0.322913 80.8566 0.20062L55.727 11.1948C54.4182 11.7183 53.8946 13.2889 54.4182 14.5978C54.9417 15.9066 56.5123 16.4301 57.8211 15.9066L61.4858 14.336L64.8888 22.4508L61.2241 24.0214C59.9152 24.5449 59.3917 26.1155 59.9152 27.4243L62.2711 32.9214C59.3917 33.9685 57.0358 36.0626 55.2034 38.6803C3.11193 40.2509 -19.1382 107.263 23.5297 139.199L18.2944 151.502H10.4414C8.08549 151.502 5.99136 153.072 5.46782 155.166L0.232495 166.161C-0.552805 167.993 0.756028 170.087 2.58839 170.087ZM120.383 151.763H98.6567V138.937H120.383V151.763ZM91.589 133.44V126.896C91.589 124.016 93.9449 121.66 96.8243 121.66H98.6567V125.849C98.6567 127.419 99.7037 128.466 101.274 128.466C102.845 128.466 103.892 127.419 103.892 125.849V121.66H116.719V125.849C116.719 127.419 117.766 128.466 119.336 128.466C120.907 128.466 121.954 127.419 121.954 125.849V121.66H123.786C126.666 121.66 129.022 124.016 129.022 126.896V133.44C126.927 133.44 94.7302 133.44 91.589 133.44ZM100.751 80.3012C98.3949 81.3482 96.039 80.3012 94.9919 77.9453L92.3743 71.9246L100.489 68.5217L103.107 74.5423C104.154 76.6364 103.107 79.2541 100.751 80.3012ZM74.3124 8.57715L77.7154 16.6919L69.6006 20.0949L66.1976 11.9801C66.9829 11.9801 74.8359 8.57715 74.3124 8.57715ZM86.0919 18.786L104.677 61.1922L84.2595 70.0923L79.0242 57.7892C81.6419 54.9098 83.4742 51.2451 83.4742 47.0568C83.4742 38.6803 76.4065 31.6126 67.7682 31.8744L65.9359 27.6861L86.0919 18.786ZM67.7682 36.8479C73.2653 36.8479 77.9771 41.298 77.9771 47.0568C77.9771 52.8157 73.5271 57.2657 67.7682 57.2657C62.0094 57.2657 57.5593 52.8157 57.5593 47.0568C57.5593 41.298 62.2711 36.8479 67.7682 36.8479ZM36.618 121.66C38.4504 117.21 42.9004 114.854 46.8269 115.64C52.0623 116.687 53.8946 121.66 53.8946 127.157V152.025H23.7915C28.2415 141.031 31.6445 133.178 36.618 121.66ZM52.8476 43.9156C52.324 46.5333 52.324 49.1509 53.1093 51.7686C15.9385 54.9098 0.232496 101.766 28.765 126.634L25.6238 134.225C-10.7617 105.692 7.30019 47.5803 52.8476 43.9156Z"/>
</mask>
<path d="M2.58839 170.087H99.9655C101.536 170.087 102.583 169.04 102.583 167.469C102.583 165.899 101.536 164.852 99.9655 164.852H6.77666C10.4414 156.999 10.4414 157.26 10.4414 156.999H140.016C140.016 157.522 140.016 156.999 143.681 164.852H116.195C114.624 164.852 113.577 165.899 113.577 167.469C113.577 169.04 114.624 170.087 116.195 170.087H147.607C148.392 170.087 149.439 169.564 149.701 168.778C150.225 167.993 150.225 166.946 149.963 166.161L144.728 155.166C143.942 153.072 142.11 151.502 139.754 151.502H125.357V138.675C125.619 138.675 137.66 138.675 137.136 138.675C138.707 138.675 139.754 137.628 139.754 136.057C139.754 134.487 138.707 133.44 137.136 133.44H133.995V126.896C133.995 121.137 129.283 116.425 123.524 116.425H96.8243C91.0654 116.425 86.3537 121.137 86.3537 126.896V133.44H81.6419C80.0713 133.44 79.0242 134.487 79.0242 136.057C79.0242 137.628 80.0713 138.675 81.6419 138.675C81.9036 138.675 94.2066 138.675 93.4213 138.675V151.502H59.1299V126.896C59.3917 121.922 57.2976 111.975 47.6122 110.404C41.3298 109.357 34.5239 112.76 31.6445 119.566L30.8592 121.66C6.77666 98.363 22.7444 57.7892 55.9888 57.0039C58.8682 60.4069 63.0564 62.501 67.7682 62.501C70.1241 62.501 72.48 61.9775 74.3124 60.9304L80.333 74.5423C80.8566 75.8511 82.4272 76.3747 83.736 75.8511L87.4007 74.2805L90.0184 80.3012C92.1125 85.2747 97.8714 87.3688 102.583 85.2747C107.557 83.1806 109.651 77.4217 107.557 72.7099L104.939 66.6893L108.604 65.1187C109.913 64.5952 110.436 63.0246 109.913 61.7157L89.7566 14.336C89.2331 13.0272 87.6625 12.5036 86.3537 13.0272L82.6889 14.5978L79.286 6.48301L82.9507 4.91242C84.2595 4.38888 85.0448 2.81828 84.2595 1.50945C83.4742 0.200619 82.1654 -0.322913 80.8566 0.20062L55.727 11.1948C54.4182 11.7183 53.8946 13.2889 54.4182 14.5978C54.9417 15.9066 56.5123 16.4301 57.8211 15.9066L61.4858 14.336L64.8888 22.4508L61.2241 24.0214C59.9152 24.5449 59.3917 26.1155 59.9152 27.4243L62.2711 32.9214C59.3917 33.9685 57.0358 36.0626 55.2034 38.6803C3.11193 40.2509 -19.1382 107.263 23.5297 139.199L18.2944 151.502H10.4414C8.08549 151.502 5.99136 153.072 5.46782 155.166L0.232495 166.161C-0.552805 167.993 0.756028 170.087 2.58839 170.087ZM120.383 151.763H98.6567V138.937H120.383V151.763ZM91.589 133.44V126.896C91.589 124.016 93.9449 121.66 96.8243 121.66H98.6567V125.849C98.6567 127.419 99.7037 128.466 101.274 128.466C102.845 128.466 103.892 127.419 103.892 125.849V121.66H116.719V125.849C116.719 127.419 117.766 128.466 119.336 128.466C120.907 128.466 121.954 127.419 121.954 125.849V121.66H123.786C126.666 121.66 129.022 124.016 129.022 126.896V133.44C126.927 133.44 94.7302 133.44 91.589 133.44ZM100.751 80.3012C98.3949 81.3482 96.039 80.3012 94.9919 77.9453L92.3743 71.9246L100.489 68.5217L103.107 74.5423C104.154 76.6364 103.107 79.2541 100.751 80.3012ZM74.3124 8.57715L77.7154 16.6919L69.6006 20.0949L66.1976 11.9801C66.9829 11.9801 74.8359 8.57715 74.3124 8.57715ZM86.0919 18.786L104.677 61.1922L84.2595 70.0923L79.0242 57.7892C81.6419 54.9098 83.4742 51.2451 83.4742 47.0568C83.4742 38.6803 76.4065 31.6126 67.7682 31.8744L65.9359 27.6861L86.0919 18.786ZM67.7682 36.8479C73.2653 36.8479 77.9771 41.298 77.9771 47.0568C77.9771 52.8157 73.5271 57.2657 67.7682 57.2657C62.0094 57.2657 57.5593 52.8157 57.5593 47.0568C57.5593 41.298 62.2711 36.8479 67.7682 36.8479ZM36.618 121.66C38.4504 117.21 42.9004 114.854 46.8269 115.64C52.0623 116.687 53.8946 121.66 53.8946 127.157V152.025H23.7915C28.2415 141.031 31.6445 133.178 36.618 121.66ZM52.8476 43.9156C52.324 46.5333 52.324 49.1509 53.1093 51.7686C15.9385 54.9098 0.232496 101.766 28.765 126.634L25.6238 134.225C-10.7617 105.692 7.30019 47.5803 52.8476 43.9156Z" fill="black" stroke="black" stroke-width="10" mask="url(#path-1-inside-1_10_120)"/>
<path d="M43.9475 137.628C48.1357 137.628 51.8005 134.225 51.8005 129.775C51.8005 125.587 48.3975 121.922 43.9475 121.922C39.7592 121.922 36.0945 125.325 36.0945 129.775C36.0945 134.225 39.4974 137.628 43.9475 137.628ZM43.9475 127.419C45.2563 127.419 46.5651 128.466 46.5651 130.037C46.5651 131.346 45.5181 132.654 43.9475 132.654C42.6386 132.654 41.3298 131.607 41.3298 130.037C41.3298 128.466 42.3769 127.419 43.9475 127.419Z" fill="black"/>
<path d="M121.692 103.86C121.43 105.954 123.524 107.787 125.619 106.478L136.089 100.457C152.319 105.169 168.548 92.8659 168.548 76.1129C168.548 61.9775 157.031 50.7215 143.157 50.7215C129.022 50.7215 117.766 62.2393 117.766 76.1129C117.766 82.1335 119.86 87.8924 123.786 92.3424L121.692 103.86ZM123.001 76.1129C123.001 65.1187 132.163 55.9569 143.157 55.9569C154.151 55.9569 163.313 65.1187 163.313 76.1129C163.313 89.7247 149.701 99.6719 136.613 95.2218C135.828 94.9601 135.042 94.9601 134.519 95.4836L127.713 99.4101L129.022 92.3424C129.283 91.5571 129.022 90.7718 128.236 89.9865C124.833 86.06 123.001 81.3482 123.001 76.1129Z" fill="black"/>
<path d="M134.519 84.2277C135.304 85.7983 137.137 86.3218 138.445 85.2748L154.675 72.71C155.722 71.9247 155.984 70.0923 155.198 69.0452C154.413 67.9982 152.581 67.7364 151.534 68.5217L137.922 78.9924L135.828 74.0188C135.304 72.71 133.734 72.1864 132.425 72.71C131.116 73.2335 130.592 74.8041 131.116 76.1129L134.519 84.2277Z" fill="black"/>
</svg>
