<svg width="204" height="204" viewBox="0 0 204 204" fill="none" xmlns="http://www.w3.org/2000/svg">
<path d="M13.7964 193.758H119C120.697 193.758 121.828 192.627 121.828 190.93C121.828 189.233 120.697 188.102 119 188.102H18.3213C22.2806 179.618 22.2806 179.9 22.2806 179.618H162.27C162.27 180.183 162.27 179.618 166.229 188.102H136.534C134.837 188.102 133.706 189.233 133.706 190.93C133.706 192.627 134.837 193.758 136.534 193.758H170.471C171.319 193.758 172.451 193.192 172.733 192.344C173.299 191.495 173.299 190.364 173.016 189.516L167.36 177.638C166.512 175.375 164.532 173.679 161.987 173.679H146.432V159.821C146.715 159.821 159.724 159.821 159.159 159.821C160.856 159.821 161.987 158.69 161.987 156.993C161.987 155.296 160.856 154.165 159.159 154.165H155.765V147.095C155.765 140.873 150.675 135.783 144.453 135.783H115.607C109.385 135.783 104.294 140.873 104.294 147.095V154.165H99.2039C97.507 154.165 96.3758 155.296 96.3758 156.993C96.3758 158.69 97.507 159.821 99.2039 159.821C99.4867 159.821 112.779 159.821 111.93 159.821V173.679H74.8825V147.095C75.1654 141.722 72.9029 130.975 62.4391 129.278C55.6517 128.147 48.2988 131.823 45.1879 139.176L44.3395 141.439C18.3213 116.269 35.5725 72.4341 71.4889 71.5857C74.5997 75.2621 79.1246 77.5246 84.2151 77.5246C86.7604 77.5246 89.3057 76.959 91.2853 75.8278L97.7898 90.5337C98.3555 91.9477 100.052 92.5133 101.466 91.9477L105.426 90.2509L108.254 96.7554C110.516 102.129 116.738 104.391 121.828 102.129C127.202 99.8663 129.464 93.6445 127.202 88.554L124.374 82.0495L128.333 80.3526C129.747 79.787 130.313 78.0902 129.747 76.6762L107.971 25.4883C107.405 24.0742 105.708 23.5086 104.294 24.0742L100.335 25.7711L96.6586 17.0041L100.618 15.3073C102.032 14.7416 102.88 13.0448 102.032 11.6308C101.184 10.2167 99.7695 9.65113 98.3555 10.2167L71.2061 22.0946C69.792 22.6602 69.2264 24.357 69.792 25.7711C70.3577 27.1851 72.0545 27.7507 73.4685 27.1851L77.4278 25.4883L81.1043 34.2553L77.145 35.9521C75.731 36.5177 75.1654 38.2145 75.731 39.6286L78.2762 45.5675C75.1654 46.6987 72.6201 48.9612 70.6405 51.7892C14.362 53.4861 -9.67646 125.884 36.4209 160.387L30.7648 173.679H22.2806C19.7354 173.679 17.4729 175.375 16.9073 177.638L11.2512 189.516C10.4028 191.495 11.8168 193.758 13.7964 193.758ZM141.059 173.961H117.586V160.104H141.059V173.961ZM109.95 154.165V147.095C109.95 143.984 112.496 141.439 115.607 141.439H117.586V145.964C117.586 147.66 118.717 148.792 120.414 148.792C122.111 148.792 123.242 147.66 123.242 145.964V141.439H137.1V145.964C137.1 147.66 138.231 148.792 139.928 148.792C141.625 148.792 142.756 147.66 142.756 145.964V141.439H144.736C147.846 141.439 150.392 143.984 150.392 147.095V154.165C148.129 154.165 113.344 154.165 109.95 154.165ZM119.849 96.7554C117.303 97.8866 114.758 96.7554 113.627 94.2101L110.799 87.7056L119.566 84.0291L122.394 90.5337C123.525 92.7961 122.394 95.6242 119.849 96.7554ZM91.2853 19.2665L94.9618 28.0335L86.1948 31.71L82.5183 22.943C83.3667 22.943 91.8509 19.2665 91.2853 19.2665ZM104.012 30.296L124.091 76.1106L102.032 85.726L96.3758 72.4341C99.2039 69.3232 101.184 65.3639 101.184 60.839C101.184 51.7892 93.5478 44.1535 84.2151 44.4363L82.2355 39.9114L104.012 30.296ZM84.2151 49.8096C90.1541 49.8096 95.2446 54.6173 95.2446 60.839C95.2446 67.0608 90.4369 71.8685 84.2151 71.8685C77.9934 71.8685 73.1857 67.0608 73.1857 60.839C73.1857 54.6173 78.2762 49.8096 84.2151 49.8096ZM50.5612 141.439C52.5409 136.631 57.3486 134.086 61.5907 134.934C67.2468 136.065 69.2264 141.439 69.2264 147.378V174.244H36.7037C41.5114 162.366 45.1879 153.882 50.5612 141.439ZM68.0952 57.4454C67.5296 60.2734 67.5296 63.1015 68.378 65.9295C28.2195 69.3232 11.2512 119.945 42.077 146.812L38.6834 155.013C-0.62667 124.188 18.8869 61.4046 68.0952 57.4454Z" fill="white"/>
<path d="M58.4798 158.69C63.0047 158.69 66.964 155.013 66.964 150.206C66.964 145.681 63.2875 141.722 58.4798 141.722C53.9549 141.722 49.9956 145.398 49.9956 150.206C49.9956 155.013 53.6721 158.69 58.4798 158.69ZM58.4798 147.66C59.8938 147.66 61.3078 148.792 61.3078 150.489C61.3078 151.903 60.1766 153.317 58.4798 153.317C57.0658 153.317 55.6517 152.185 55.6517 150.489C55.6517 148.792 56.783 147.66 58.4798 147.66Z" fill="white"/>
<path d="M142.473 122.208C142.19 124.47 144.453 126.45 146.715 125.036L158.027 118.531C175.561 123.622 193.095 110.33 193.095 92.2305C193.095 76.9589 180.652 64.7983 165.663 64.7983C150.392 64.7983 138.231 77.2417 138.231 92.2305C138.231 98.735 140.493 104.957 144.735 109.764L142.473 122.208ZM143.887 92.2305C143.887 80.3526 153.785 70.4544 165.663 70.4544C177.541 70.4544 187.439 80.3526 187.439 92.2305C187.439 106.936 172.733 117.683 158.593 112.875C157.745 112.593 156.896 112.593 156.331 113.158L148.978 117.4L150.392 109.764C150.674 108.916 150.392 108.068 149.543 107.219C145.867 102.977 143.887 97.8866 143.887 92.2305Z" fill="white"/>
<path d="M156.331 100.998C157.179 102.694 159.159 103.26 160.573 102.129L178.107 88.554C179.238 87.7056 179.521 85.726 178.672 84.5947C177.824 83.4635 175.844 83.1807 174.713 84.0291L160.007 95.3414L157.745 89.9681C157.179 88.554 155.482 87.9884 154.068 88.554C152.654 89.1196 152.089 90.8165 152.654 92.2305L156.331 100.998Z" fill="white"/>
</svg>
