<svg width="272" height="203" viewBox="0 0 272 203" fill="none" xmlns="http://www.w3.org/2000/svg">
<g clip-path="url(#clip0_1790_13965)">
<path d="M0 33.9486L0.780536 33.0691L48.7974 24.3667L46.9772 33.9486C46.9772 33.9486 116.491 44.3451 122.695 47.4126L45.4007 36.513L40.9057 57.6085L39.3569 58.3214L43.3769 33.4672L47.1222 25.6474L0 33.9486Z" fill="#F79A36"/>
<path d="M39.3569 58.3184L47.1222 25.6475L0 33.9487L39.3569 58.3184Z" fill="#F95700"/>
<path d="M231.542 92.8748C231.542 92.8748 230.147 84.1015 208.378 72.9519C158.908 47.6132 42.3216 34.8621 42.3216 34.8621L39.0977 49.7271C39.0977 49.7271 212.886 60.099 231.542 118.09V92.8748Z" fill="#F95700"/>
<path d="M0 33.9487L47.1222 25.6475C47.1685 26.1134 21.1578 31.4429 0 33.9487Z" fill="#FDCD98"/>
<path d="M63.5077 128.915C63.5077 128.915 73.667 115.325 102.143 112.93L101.942 119.136C96.756 117.359 64.4887 129.773 68.6783 141.207C68.6783 141.207 59.6358 138.071 63.5046 128.912L63.5077 128.915Z" fill="#F95700"/>
<path d="M189.47 66.0022C189.229 65.8633 188.998 65.7152 188.773 65.5547C188.535 65.3819 188.304 65.1998 188.085 65.0054C187.838 64.7863 187.604 64.5518 187.384 64.3018C187.107 63.9901 186.854 63.6568 186.622 63.302C186.274 62.7712 185.984 62.1941 185.752 61.58L170.888 21.8916C170.645 21.2436 170.345 20.6511 169.994 20.1141C169.762 19.7623 169.512 19.4321 169.241 19.1297C169.025 18.8859 168.797 18.6575 168.559 18.4477C168.343 18.2564 168.121 18.0774 167.89 17.9138C167.667 17.7564 167.439 17.6083 167.208 17.4725C167.155 17.4417 167.103 17.4139 167.05 17.383L162.019 14.6304C162.071 14.6581 162.123 14.689 162.176 14.7199C162.41 14.8556 162.639 15.0007 162.858 15.1612C163.089 15.3278 163.311 15.5037 163.527 15.695C163.765 15.908 163.993 16.1332 164.209 16.377C164.477 16.6794 164.73 17.0096 164.962 17.3614C165.31 17.8984 165.613 18.4909 165.856 19.1389L180.721 58.8273C180.949 59.4414 181.242 60.0185 181.591 60.5493C181.822 60.9042 182.078 61.2375 182.353 61.5491C182.572 61.7991 182.806 62.0336 183.053 62.2527C183.272 62.4471 183.503 62.6323 183.741 62.8051C183.966 62.9656 184.198 63.1168 184.438 63.2526C184.491 63.2834 184.543 63.3143 184.599 63.3421L189.63 66.0947C189.578 66.067 189.522 66.0361 189.47 66.0052V66.0022Z" fill="#F4CF31"/>
<path d="M145.251 153.668C143.831 153.594 142.378 153.871 141.021 154.507L102.161 172.662C100.732 173.328 99.2915 173.591 97.9248 173.52C96.6476 173.452 95.4382 173.094 94.3584 172.504L99.3902 175.257C100.467 175.846 101.679 176.204 102.957 176.272C104.323 176.343 105.761 176.081 107.193 175.414L146.053 157.26C147.41 156.624 148.863 156.346 150.282 156.42C151.538 156.485 152.766 156.828 153.883 157.439L148.851 154.686C147.734 154.075 146.503 153.736 145.251 153.668Z" fill="#F4CF31"/>
<path d="M238.073 78.9538C237.844 78.602 237.591 78.2687 237.314 77.9509C237.101 77.7071 236.869 77.4787 236.626 77.2596C236.413 77.0714 236.191 76.8893 235.956 76.7227C235.737 76.5653 235.509 76.4172 235.271 76.2814C235.219 76.2505 235.167 76.2227 235.111 76.1919L230.079 73.4392C230.132 73.467 230.187 73.4978 230.24 73.5287C230.477 73.6645 230.705 73.8126 230.924 73.97C231.159 74.1397 231.381 74.3187 231.594 74.5069C231.838 74.723 232.066 74.9544 232.282 75.1982C232.56 75.513 232.813 75.8493 233.041 76.2011C233.976 77.6454 234.475 79.3673 234.491 81.1263C234.494 81.5553 234.469 81.9842 234.414 82.4131C234.371 82.7526 234.309 83.0921 234.229 83.4284C234.158 83.7216 234.074 84.0148 233.976 84.3048C233.883 84.5733 233.778 84.8387 233.661 85.101C233.55 85.351 233.423 85.6009 233.288 85.8447C233.149 86.0916 233.001 86.3354 232.837 86.573C232.668 86.823 232.482 87.0698 232.282 87.3105C232.06 87.579 231.822 87.8383 231.566 88.0882C231.43 88.2209 231.288 88.3505 231.143 88.4801L198.407 117.05C198.265 117.173 198.13 117.3 197.997 117.429C197.753 117.667 197.522 117.92 197.309 118.179C197.115 118.417 196.929 118.661 196.757 118.914C196.593 119.154 196.442 119.401 196.3 119.657C196.161 119.907 196.032 120.164 195.914 120.426C195.794 120.694 195.689 120.966 195.594 121.241C195.492 121.534 195.405 121.83 195.334 122.132C195.254 122.469 195.193 122.808 195.146 123.151C195.091 123.58 195.066 124.015 195.069 124.453C195.069 124.647 195.078 124.842 195.094 125.036L198.17 167.965C198.185 168.169 198.191 168.369 198.194 168.567C198.201 169.023 198.173 169.471 198.117 169.909C198.074 170.252 198.012 170.588 197.932 170.918C197.861 171.214 197.778 171.504 197.679 171.788C197.587 172.06 197.482 172.322 197.368 172.581C197.253 172.838 197.127 173.088 196.991 173.331C196.852 173.581 196.701 173.825 196.541 174.063C196.368 174.316 196.186 174.56 195.995 174.791C195.776 175.056 195.541 175.309 195.297 175.55C194.992 175.85 194.668 176.127 194.326 176.383C192.623 177.664 190.531 178.368 188.411 178.257C187.208 178.195 185.993 177.868 184.839 177.235L189.871 179.988C191.028 180.62 192.24 180.944 193.443 181.009C195.563 181.12 197.654 180.417 199.357 179.136C199.697 178.88 200.021 178.602 200.329 178.303C200.573 178.062 200.807 177.809 201.027 177.544C201.221 177.309 201.403 177.065 201.573 176.815C201.733 176.581 201.884 176.337 202.023 176.084C202.159 175.84 202.282 175.59 202.399 175.334C202.514 175.075 202.618 174.813 202.711 174.541C202.81 174.257 202.893 173.967 202.964 173.671C203.044 173.341 203.106 173.004 203.149 172.662C203.205 172.224 203.232 171.776 203.226 171.319C203.226 171.119 203.217 170.918 203.202 170.718L200.126 127.789C200.11 127.595 200.104 127.4 200.101 127.206C200.098 126.771 200.123 126.335 200.178 125.903C200.221 125.561 200.286 125.218 200.366 124.885C200.437 124.583 200.524 124.286 200.625 123.993C200.721 123.715 200.826 123.444 200.946 123.179C201.064 122.916 201.19 122.66 201.332 122.41C201.474 122.157 201.625 121.907 201.789 121.666C201.961 121.413 202.143 121.166 202.341 120.932C202.557 120.67 202.788 120.42 203.032 120.182C203.164 120.052 203.303 119.926 203.442 119.803L236.178 91.2328C236.323 91.1063 236.465 90.9736 236.601 90.8409C236.857 90.5909 237.098 90.3317 237.317 90.0632C237.514 89.8225 237.699 89.5787 237.869 89.3257C238.033 89.0881 238.181 88.8443 238.319 88.5974C238.455 88.3536 238.579 88.1036 238.693 87.8537C238.81 87.5914 238.915 87.326 239.007 87.0575C239.106 86.7674 239.193 86.4743 239.26 86.1811C239.341 85.8447 239.402 85.5053 239.446 85.1658C239.501 84.7369 239.526 84.3048 239.523 83.879C239.507 82.1169 239.007 80.3949 238.073 78.9538Z" fill="#F4CF31"/>
<path d="M231.147 88.4833L198.407 117.053C196.118 119.053 194.878 122.04 195.094 125.043L198.167 167.971C198.599 173.955 193.585 178.534 188.412 178.263C187.045 178.192 185.669 177.781 184.379 176.97L170.277 168.119L149.283 154.939C148.055 154.168 146.67 153.742 145.248 153.668C143.828 153.594 142.378 153.871 141.018 154.507L136.6 156.572L102.158 172.662C100.729 173.328 99.2886 173.591 97.9218 173.52C92.7512 173.248 88.6418 168.193 90.1813 162.312L101.229 120.124C102 117.173 101.331 114.084 99.4366 111.866L72.3431 80.1574C67.5704 74.575 71.3466 65.4745 78.7324 64.7616L95.4877 63.1446L120.656 60.7191C123.59 60.4382 126.265 58.6916 127.814 56.05L128.27 55.2693L149.928 18.2996C151.878 14.973 155.203 13.4362 158.372 13.6028C161.537 13.7663 164.545 15.6395 165.853 19.1328L179.594 55.8217L180.717 58.8243C181.754 61.6016 184.08 63.6106 186.934 64.1938L188.282 64.4716L215.715 70.1096L227.691 72.5722C228.185 72.674 228.657 72.8129 229.101 72.9888C235.117 75.3187 236.518 83.7958 231.147 88.4833Z" fill="#FFFA55"/>
<path opacity="0.08" d="M227.692 72.5723L215.715 70.1097C215.62 70.7732 215.687 71.4089 215.752 71.7946C215.718 71.881 215.697 71.9427 215.663 72.0292C213.056 73.9733 210.292 78.8923 206.67 84.6013C204.374 88.2211 203.335 92.3316 202.872 95.0596C201.706 94.7942 200.706 95.2324 200.543 95.757C200.351 96.3711 199.787 96.5748 199.787 96.5748C199.787 96.5748 195.899 95.8835 195.788 98.1702C195.788 98.1702 195.792 98.1764 195.795 98.1795C195.406 98.2412 194.943 98.343 194.416 98.4757C192.345 99.0003 189.331 99.9878 186.391 100.833C186.41 100.488 186.394 100.133 186.326 99.7687C185.385 94.7726 183.5 92.9149 180.375 90.0418C180.375 90.0418 189.291 75.4144 189.566 68.8352C189.624 67.4527 189.14 65.9653 188.282 64.4717C186.484 61.3178 183.038 58.1331 179.595 55.8218C176.898 54.0134 174.205 52.742 172.301 52.4395C167.779 51.7267 159.004 51.449 155.666 56.5346C153.939 56.6303 151.619 57.2289 150.014 59.457C148.052 62.1757 146.112 69.2117 145.862 75.038C144.446 74.0906 142.922 72.9056 141.58 72.3192C140.5 71.8471 139.365 71.6064 138.226 71.5755C137.439 65.0241 133.836 59.0126 128.27 55.2694C126.638 54.1708 124.843 53.2666 122.896 52.6031C113.814 49.4986 104.105 52.4612 98.1751 59.3058L95.7193 62.7343C95.6391 62.8701 95.562 63.0058 95.4879 63.1447C94.8277 64.3297 94.2662 65.5919 93.8127 66.9219L93.7942 66.9867L92.8995 70.6281C92.6219 72.3408 92.5416 74.0566 92.6527 75.7446L93.353 80.0372C95.2319 87.2213 100.557 93.3654 108.094 95.9391C116.748 98.8954 125.969 96.3495 131.948 90.1838C132.812 90.8504 133.796 91.3935 134.888 91.7669C135.005 91.807 135.147 91.8348 135.32 91.8564C134.57 92.3779 134.012 92.8932 134.012 92.8932C133.238 93.3438 133.105 94.0412 133.296 94.6121C132.352 94.9238 131.464 95.3558 131.291 95.9545C131.14 96.4822 131.229 96.8618 131.451 97.1303C131.238 97.3062 131.124 97.5438 131.093 97.8369C131.05 98.2289 131.164 98.5128 131.386 98.7226C131.343 98.8059 131.303 98.8923 131.269 98.9787C131.245 99.0374 131.229 99.0991 131.217 99.1608C130.745 99.0528 130.3 99.1084 129.998 99.5712C129.56 100.247 129.952 100.679 131.683 101.756C131.803 101.833 131.926 101.898 132.047 101.957C130.961 104.194 129.986 105.891 129.492 106.712C129.282 107.058 129.245 107.477 129.384 107.857C129.523 108.24 129.825 108.536 130.211 108.666L131.559 109.125V109.132C130.553 110.113 129.224 111.252 127.484 112.582C126.839 112.452 126.024 112.295 125.238 112.94C124.235 113.76 121.641 116.538 121.641 118.544C121.641 120.33 121.394 123.885 123.47 125.41C123.809 126.067 124.238 126.654 124.781 127.107C126.771 128.764 131.979 128.277 134.691 127.16C134.971 127.082 135.209 126.987 135.394 126.879C135.493 126.817 135.613 126.721 135.74 126.61C135.891 126.505 136.02 126.397 136.122 126.286C136.23 126.169 136.394 125.987 136.597 125.756C136.684 125.663 136.736 125.601 136.736 125.601C136.748 125.586 136.764 125.57 136.779 125.552C137.149 125.132 137.634 124.58 138.198 123.938C138.636 125.469 139.716 127.471 142.089 130.341C142.089 130.341 141.45 135.168 141.722 138.038C141.996 140.908 137.563 150.366 138.035 151.292C138.251 151.721 138.488 152.125 138.738 152.511C138.189 153.257 137.328 154.541 136.804 155.939C136.745 156.097 136.677 156.309 136.6 156.572C135.807 159.275 134.182 167.018 133.589 169.885C133.453 170.533 133.753 171.193 134.327 171.523L145.945 178.177C146.334 178.399 146.726 178.605 147.121 178.8C150.345 178.784 153.553 177.905 156.388 176.186L170.278 168.119L175.047 165.348C175.584 165.037 175.8 164.37 175.541 163.802C174.063 160.547 172.215 156.979 171.036 155.955C172.354 155.526 173.076 154.109 172.659 152.788C171.265 148.369 168.954 140.161 170.139 136.899C171.144 134.131 174.933 128.144 177.179 122.605C185.293 115.177 192.527 113.014 195.807 111.551C197.991 110.579 200.104 109.823 201.372 108.53C201.576 108.61 202.625 108.977 203.344 108.678C204.146 108.345 204.507 106.792 204.979 106.832C205.448 106.873 208.709 106.879 208.913 106.502C209.116 106.126 209.915 104.503 209.641 103.963C209.594 103.867 209.418 103.558 209.153 103.111C210.6 99.6422 220.102 76.834 221.077 73.3376C223.576 73.7727 226.186 74.1183 227.13 73.856C227.775 73.6771 228.451 73.353 229.102 72.9889C228.657 72.813 228.185 72.6741 227.692 72.5723ZM167.513 100.617C167.535 100.682 167.56 100.747 167.584 100.815C167.55 100.793 167.519 100.772 167.482 100.75L167.473 100.769L167.513 100.617ZM144.122 102.932C144.134 102.901 144.143 102.87 144.156 102.839C144.196 102.728 144.236 102.611 144.273 102.487C144.282 102.454 144.295 102.423 144.304 102.386C144.347 102.244 144.387 102.099 144.424 101.947C144.437 101.904 144.446 101.861 144.455 101.818C144.489 101.688 144.52 101.552 144.548 101.417C144.554 101.383 144.563 101.352 144.569 101.318C144.603 101.161 144.631 100.997 144.662 100.83C144.671 100.781 144.68 100.728 144.69 100.679C144.714 100.522 144.742 100.364 144.764 100.204L144.773 100.139C144.801 99.9693 144.822 99.7934 144.847 99.6206C144.853 99.5712 144.859 99.525 144.862 99.4756C144.887 99.2966 144.905 99.1176 144.927 98.9386C144.927 98.917 144.927 98.8954 144.933 98.8738C144.952 98.701 144.97 98.5282 144.986 98.3554L144.995 98.2535C145.013 98.0622 145.029 97.874 145.044 97.6857C145.044 97.6703 145.047 97.658 145.047 97.6456C145.174 96.0872 145.236 94.6276 145.322 93.7018C145.331 93.6185 145.31 93.5444 145.276 93.4796C146.976 94.0597 149.055 94.3683 151.498 94.3622C152.254 95.2941 153.13 96.1119 154.121 96.726C155.111 97.3401 156.219 97.7505 157.437 97.8709C157.641 97.8894 157.857 97.8925 158.067 97.9048L157.197 100.849C157.227 100.676 157.258 100.565 157.258 100.565C156.842 100.685 156.24 101.037 155.654 101.497C154.923 101.562 153.96 101.67 153.007 101.849C152.075 101.231 150.44 100.327 149.237 100.596C147.756 100.923 146.173 101.559 144.076 103.049C144.091 103.009 144.109 102.972 144.122 102.932Z" fill="#731515"/>
<path d="M127.496 146.759C127.496 146.759 125.676 148.885 124.763 151.313C124.013 153.31 121.912 163.315 121.19 166.808C121.042 167.527 121.372 168.261 122.011 168.626L134.922 176.02C141.796 179.957 150.252 179.902 157.073 175.881L169.843 168.351C170.472 167.981 170.737 167.209 170.469 166.527C169.118 163.111 165.113 153.338 162.796 151.329C159.98 148.885 132.658 147.061 127.496 146.759Z" fill="#60499D"/>
<path d="M127.496 146.759C127.496 146.759 125.574 149.187 126.181 150.604C126.789 152.02 131.645 157.485 134.681 158.093C137.717 158.701 150.06 159.105 151.479 159.51C152.895 159.914 157.955 166.595 157.955 166.595C157.955 166.595 156.539 159.309 157.551 157.89C158.563 156.473 162.126 158.726 162.206 158.093C162.41 156.473 162.206 153.841 162.206 153.841C162.206 153.841 163.187 152.252 162.799 151.326C162.41 150.4 133.064 140.278 127.499 146.755L127.496 146.759Z" fill="#4D3B7F"/>
<path d="M143.586 91.7977C143.586 91.7977 140.553 89.3845 138.578 89.8227C135.845 90.4307 132.809 91.9489 127.346 97.2629C121.882 102.577 111.105 106.07 109.739 108.953C108.372 111.838 108.677 117.001 111.408 119.278C114.141 121.556 122.335 120.188 124.007 118.368C125.676 116.547 138.73 101.515 139.794 99.9971C140.858 98.4788 144.804 93.0136 143.589 91.7977H143.586Z" fill="#82C890"/>
<path d="M136.299 98.4016C136.299 98.4016 130.607 104.246 128.33 105.916C127.509 106.518 125.704 107.906 123.736 109.563C122.724 108.375 121.336 107.332 120.16 106.626C118.643 105.715 112.269 105.968 111.51 107.082C111.51 107.082 109.992 108.65 110.041 110.674C110.091 112.699 110.973 116.667 112.873 118.568C114.036 119.732 121.262 120.182 123.193 119.025C123.699 118.72 124.686 117.609 124.686 117.609C128.897 112.409 138.119 105.539 136.299 98.4016Z" fill="#65A776"/>
<path d="M114.949 103.234C114.19 103.157 113.027 102.626 111.914 103.54C110.8 104.45 107.915 107.536 107.915 109.764C107.915 111.992 107.56 116.698 110.902 117.911C114.24 119.124 119.707 118.621 120.817 117.102C121.931 115.584 124.057 113.662 124.257 112.245C124.461 110.829 124.155 108.703 122.131 106.78C120.108 104.857 117.982 103.552 114.946 103.237L114.949 103.234Z" fill="#60499D"/>
<path d="M112.771 104.447C112.771 104.447 110.544 106.675 110.241 108.446C109.939 110.218 110.596 114.973 111.151 115.988C111.707 117.001 115.35 117.911 117.88 116.951C119.568 116.309 121.878 114.723 122.332 113.359C122.789 111.992 116.007 103.237 112.768 104.453L112.771 104.447Z" fill="#56418D"/>
<path d="M161.799 130.156C163.419 125.703 171.514 113.761 171.514 106.675C171.514 100.994 170.829 98.3309 167.871 95.7448C164.634 92.9119 159.775 91.8997 159.775 91.8997C155.728 90.079 149.557 95.3282 149.557 95.3282L146.087 100.46C146.842 97.1644 147.907 91.7732 147.074 90.7363C147.074 90.7363 142.977 90.8875 140.546 91.7979C138.118 92.7083 136.6 98.9326 134.172 101.516C131.744 104.095 126.641 110.036 126.178 112.344C125.774 114.369 125.774 117.001 130.63 122.87C130.63 122.87 129.921 128.234 130.226 131.421C130.528 134.609 125.604 145.117 126.129 146.148C132.99 159.624 155.123 153.822 162.796 151.326C164.261 150.851 165.063 149.277 164.597 147.808C163.049 142.901 160.482 133.779 161.799 130.156Z" fill="#82C890"/>
<path d="M135.767 153.742L133.983 153.134C134.699 151.702 136.047 139.636 136.748 132.353C136.513 130.422 137.544 125.095 137.794 123.849C137.568 122.898 136.634 118.849 136.451 116.306C135.973 109.607 143.655 101.389 143.982 101.04L145.306 102.29C145.232 102.37 137.846 110.273 138.266 116.174C138.457 118.859 139.595 123.568 139.608 123.614L139.657 123.811L139.617 124.012C139.102 126.53 138.358 130.977 138.559 132.181L138.577 132.298L138.565 132.418C138.259 135.615 136.843 151.57 135.76 153.739L135.767 153.742Z" fill="#65A776"/>
<path d="M148.756 85.5827L147.053 91.3442C146.84 92.0663 146.849 92.8409 147.112 93.5476C147.642 94.9733 147.636 96.8495 150.363 97.0625C154.442 97.3803 157.749 94.0969 157.749 94.0969L160.538 83.6016L148.756 85.5858V85.5827Z" fill="#FEB497"/>
<path opacity="0.2" d="M148.553 86.2864C148.553 86.2864 148.738 88.6132 150.799 88.7397C154.927 88.9897 159.422 86.0889 160.477 83.8701C160.477 83.8701 151.073 84.188 148.553 86.2895V86.2864Z" fill="#731515"/>
<path d="M148.327 41.0432C148.327 41.0432 142.619 39.7039 139.439 44.1199C136.258 48.5328 133.117 63.1972 135.826 68.9278C135.826 68.9278 128.369 69.6746 128.187 73.9888C127.956 79.4972 132.525 82.9134 141.089 82.901C147.66 82.8918 156.718 44.6908 148.33 41.0432H148.327Z" fill="#0E0C12"/>
<path d="M145.174 44.2743C145.174 44.2743 140.176 49.9709 139.899 53.1093C139.621 56.2477 137.137 68.32 137.224 72.918C137.31 77.5161 140.975 86.1382 147.686 86.7956C154.396 87.4529 164.706 83.4843 168.226 80.1885C171.743 76.8927 177.216 69.6438 177.698 65.6352C178.179 61.6266 178.145 52.0046 174.316 48.8199C170.488 45.6321 155.219 36.5594 145.174 44.2743Z" fill="#FEB497"/>
<path d="M142.225 74.0844C142.225 74.0844 150.252 76.7568 154.183 77.8184C154.183 77.8184 149.758 81.7406 145.871 80.8519C143.061 80.21 142.225 74.0813 142.225 74.0813V74.0844Z" fill="#731515"/>
<path d="M143.968 79.3058C143.968 79.3058 146.226 76.3742 152.578 79.0065C152.578 79.0065 146.288 83.3515 143.968 79.3058Z" fill="#F77777"/>
<path d="M142.225 74.085C142.225 74.085 142.792 74.949 143.391 75.3409C143.992 75.7329 148.293 77.3499 153.226 77.5227L142.225 74.085Z" fill="white"/>
<path d="M144.267 45.3636C144.267 45.3636 142.005 53.7789 154.016 60.2533C154.016 60.2533 156.348 55.6058 155.722 52.7945C155.722 52.7945 159.52 53.8252 162.219 56.5008C164.073 58.3369 164.638 61.1143 163.672 63.5336C162.161 67.3201 159.797 74.4764 161.988 77.7815C165.045 82.3919 160.772 83.2004 159.285 84.9254C157.798 86.6505 157.629 92.3811 164.916 95.3066C172.203 98.2351 180.826 94.4517 179.783 88.9001C178.74 83.3485 176.642 81.2871 173.171 78.0931C173.171 78.0931 183.075 61.8425 183.383 54.5319C183.689 47.2213 170.299 37.2784 164.2 36.3187C158.101 35.3558 145.032 35.0997 144.267 45.3605V45.3636Z" fill="#0E0C12"/>
<path d="M150.604 92.8284L149.034 94.1677L149.561 95.3249L147.414 96.118L147.149 97.5869C147.149 97.5869 144.585 101.244 143.832 102.293L144.822 102.441C145.652 102.565 146.479 102.191 146.936 101.488L148.96 98.3646L154.124 96.2661L150.604 92.8315V92.8284Z" fill="#D3DCE2"/>
<path d="M150.604 92.8285C150.604 92.8285 152.266 99.1362 153.636 99.812C155.009 100.488 161.115 97.4945 161.71 94.0968C161.71 94.0968 160.821 91.0387 158.85 89.9956C158.85 89.9956 157.193 92.668 150.604 92.8254V92.8285Z" fill="white"/>
<path d="M147.667 92.0601L148.66 94.0752L148.136 94.9609L148.799 96.976L144.85 102.444L144.141 102.367C143.542 102.302 143.234 101.617 143.579 101.123L146.322 97.2198L145.729 93.2049C145.729 93.2049 147.321 92.057 147.667 92.0601Z" fill="#D3DCE2"/>
<path d="M147.488 89.7919C147.488 89.7919 147.093 91.1127 147.664 92.0632C147.664 92.0632 145.773 94.3869 144.699 95.9021C144.412 96.3094 143.78 96.1767 143.678 95.6892C143.511 94.8837 143.4 93.8654 143.678 93.1618C144.209 91.8256 146.405 90.0974 147.488 89.7888V89.7919Z" fill="white"/>
<path d="M150.129 94.4826C150.141 94.6616 150.039 94.8128 149.9 94.8252C149.761 94.8375 149.638 94.7017 149.623 94.5228C149.607 94.3438 149.709 94.1926 149.851 94.1802C149.99 94.1679 150.113 94.3037 150.129 94.4826Z" fill="#351B30"/>
<path d="M119.259 89.8724C118.618 89.499 118.343 88.7182 118.611 88.027C118.815 87.5085 119.204 86.9469 119.941 86.5519C121.712 85.6014 132.186 89.8693 132.186 89.8693C132.186 89.8693 131.569 92.8102 131.961 93.9736C132.352 95.137 125.883 107.092 124.387 110.169C121.107 116.918 115.369 116.544 112.771 115.785C111.111 115.301 109.726 106.592 112.904 104.265C121.622 97.8897 122.406 95.137 122.52 93.3163C122.603 92.0202 120.484 90.5914 119.256 89.8724H119.259Z" fill="#FEB497"/>
<path opacity="0.3" d="M132.186 89.8693C132.186 89.8693 121.712 85.6014 119.941 86.5519C119.204 86.9469 118.815 87.5055 118.611 88.027C118.34 88.7182 118.617 89.4959 119.259 89.8724C120.487 90.5914 122.603 92.0202 122.523 93.3163C122.443 94.6062 122.023 96.359 118.704 99.5314C119.839 100.266 122.307 101.605 124.168 100.757C126.179 99.8369 126.577 99.3246 126.657 99.1611C126.67 99.124 126.676 99.1025 126.676 99.1025C126.676 99.1025 126.676 99.121 126.657 99.1611C126.463 99.732 124.889 104.324 124.168 105.463C123.399 106.678 120.262 113.572 116.177 114.344C112.095 115.115 111.534 113.832 111.423 113.353C111.756 114.671 112.25 115.634 112.771 115.785C115.369 116.544 121.107 116.918 124.387 110.169C125.88 107.095 132.349 95.137 131.961 93.9736C131.569 92.8102 132.186 89.8693 132.186 89.8693Z" fill="#FF8661"/>
<path d="M119.354 98.4605C119.354 98.4605 122.858 100.068 124.321 98.1859C125.293 96.9361 132.345 86.2834 133.996 79.0962L128.998 79.5591C128.998 79.5591 120.943 95.4671 119.351 98.4605H119.354Z" fill="#D9ECDC"/>
<path d="M124.917 78.1643L129.776 79.8246C129.776 79.8246 125.672 92.264 121.424 97.8403C120.943 98.4729 120.11 98.7198 119.357 98.4637L117.741 97.9113C117.265 97.7508 117.059 97.1923 117.318 96.7633C118.802 94.2884 123.118 86.6013 124.92 78.1674L124.917 78.1643Z" fill="#F1F8F3"/>
<path d="M135.662 62.6912C135.628 62.6727 131.963 59.9138 129.819 58.9757C124.133 56.4915 118.049 60.1144 116.136 65.7185C114.211 71.3565 117.195 77.5007 122.831 79.4263C123.747 79.738 128.11 79.8398 129.732 80.0651C134.965 80.7872 139.744 79.1362 141.379 74.3468C143.014 69.5574 140.95 65.521 135.659 62.6943L135.662 62.6912Z" fill="#60499D"/>
<path d="M116.115 65.7834C114.311 71.0851 117.189 77.5286 122.822 79.4511C123.739 79.7628 128.098 79.877 129.721 80.1023C134.95 80.8244 139.692 79.266 141.358 74.4087L116.115 65.7834Z" fill="#56418D"/>
<path opacity="0.6" d="M116.263 66.635C118.176 61.0309 124.26 57.4111 129.946 59.8922C132.09 60.8273 135.755 63.5892 135.789 63.6077C139.281 65.4747 141.358 67.8694 141.901 70.656C141.669 67.4744 139.531 64.7588 135.666 62.6912C135.632 62.6727 131.967 59.9138 129.822 58.9757C124.136 56.4915 118.053 60.1144 116.14 65.7185C115.523 67.5238 115.412 69.3815 115.73 71.1343C115.594 69.6562 115.754 68.1286 116.266 66.635H116.263Z" fill="white"/>
<path d="M127.323 60.7439C125.016 59.9539 118.355 49.7271 118.355 49.7271L108.112 79.7225C108.112 79.7225 119.058 75.5102 121.946 76.4977C126.29 77.982 131.029 75.6552 132.513 71.3102C133.997 66.9682 131.67 62.2251 127.326 60.7408L127.323 60.7439Z" fill="#F1F8F3"/>
<path d="M129.242 61.6729C129.486 61.9907 133.935 65.7988 132.435 70.0358C131.189 73.5507 123.399 73.1865 114.85 69.4988C113.755 69.0267 112.971 68.3755 112.271 67.5454L108.112 79.7257C108.112 79.7257 119.058 75.5133 121.946 76.5008C126.29 77.9852 131.075 75.6738 132.559 71.3288C133.818 67.6472 132.374 63.7003 129.248 61.6729H129.242Z" fill="#D9ECDC"/>
<path d="M122.415 67.8634C118.392 79.6456 105.579 85.9347 93.8003 81.9106C82.0213 77.8866 75.7338 65.0706 79.7568 53.2885C83.7798 41.5063 96.5923 35.2172 108.371 39.2412C120.15 43.2653 126.438 56.0813 122.415 67.8634Z" fill="#D9ECDC"/>
<path d="M104.734 80.852C95.6915 77.763 90.8663 67.9281 93.9545 58.8831C97.0427 49.8382 106.878 45.0118 115.918 48.1008C118.102 48.8476 120.036 49.9894 121.674 51.4152C119.212 45.8851 114.551 41.355 108.371 39.2442C96.5923 35.2201 83.7798 41.5093 79.7568 53.2914C75.7338 65.0736 82.0213 77.8895 93.8003 81.9136C98.9031 83.6571 104.2 83.4627 108.893 81.7253C107.504 81.6081 106.11 81.3242 104.731 80.8551L104.734 80.852Z" fill="#F1F8F3"/>
<path d="M93.0658 84.0645C80.1175 79.6393 73.1821 65.5056 77.6062 52.5539C82.0303 39.6022 96.1602 32.665 109.108 37.0902C122.057 41.5155 128.992 55.6491 124.568 68.6008C120.144 81.5526 106.014 88.4898 93.0658 84.0645ZM107.637 41.3982C97.0641 37.7845 85.5226 43.4504 81.91 54.0259C78.2973 64.6014 83.9616 76.146 94.5343 79.7596C105.107 83.3733 116.648 77.7075 120.261 67.1319C123.874 56.5564 118.21 45.0118 107.637 41.3982Z" fill="#82C890"/>
<path opacity="0.6" d="M78.2546 53.2112C82.6787 40.2595 96.8085 33.3223 109.757 37.7475C113.332 38.9696 116.448 40.9353 118.994 43.4102C116.334 40.6267 112.996 38.4172 109.109 37.0902C96.1607 32.665 82.0308 39.6022 77.6067 52.5539C74.4044 61.9259 77.1563 71.9182 83.8294 78.4018C77.6345 71.9121 75.1602 62.2746 78.2577 53.2112H78.2546Z" fill="white"/>
<path d="M118.876 66.6536C117.528 70.6036 113.233 72.7113 109.287 71.3597C105.338 70.0111 103.231 65.7155 104.579 61.7685C105.927 57.8185 110.222 55.7108 114.168 57.0594C118.117 58.4079 120.224 62.7036 118.876 66.6505V66.6536Z" fill="#60499D"/>
<path d="M116.458 65.8265C115.344 69.0883 111.799 70.8288 108.538 69.7148C105.277 68.6007 103.537 65.055 104.651 61.7931C105.765 58.5313 109.31 56.7908 112.571 57.9048C115.832 59.0189 117.572 62.5646 116.458 65.8265Z" fill="#82C890"/>
<path d="M97.0428 53.708L112.598 57.9142L108.556 69.7488L93.5381 63.4966L97.0428 53.708Z" fill="#82C890"/>
<path d="M100.214 60.278C99.2858 62.9967 96.3272 64.4502 93.6092 63.5213C90.8881 62.5924 89.4381 59.633 90.3667 56.9143C91.2953 54.1925 94.254 52.7421 96.9719 53.671C99.6899 54.5998 101.143 57.5593 100.214 60.278Z" fill="#82C890"/>
<path d="M98.8534 59.8121C98.1809 61.7809 96.0398 62.8301 94.0746 62.1574C92.1062 61.4846 91.0573 59.343 91.7299 57.3772C92.4024 55.4084 94.5435 54.3592 96.5087 55.0319C98.477 55.7047 99.526 57.8463 98.8534 59.8121Z" fill="#65A776"/>
<g opacity="0.7">
<path d="M139.347 70.7024C139.683 70.8536 140.007 70.9986 140.325 71.1406C140.155 72.6496 139.668 74.0753 138.878 75.3714C138.541 75.2912 138.193 75.2048 137.835 75.1215C138.674 73.7698 139.183 72.2824 139.344 70.7024H139.347Z" fill="#482641"/>
</g>
<g opacity="0.7">
<path d="M137.508 69.8783C137.9 70.0542 138.279 70.224 138.646 70.3875C138.489 72.02 137.964 73.5537 137.091 74.9424C136.7 74.8467 136.295 74.751 135.879 74.6492C136.814 73.1988 137.363 71.5941 137.508 69.8752V69.8783Z" fill="#482641"/>
</g>
<g opacity="0.7">
<path d="M135.348 68.9094C135.811 69.1162 136.255 69.3168 136.687 69.5112C136.548 71.2918 135.984 72.9489 135.002 74.4425C134.543 74.3314 134.068 74.2173 133.577 74.1C134.629 72.5354 135.225 70.7949 135.348 68.9125V68.9094Z" fill="#482641"/>
</g>
<path opacity="0.6" d="M87.186 40.0311C87.186 40.0311 86.8066 42.8949 89.4351 44.0058L91.968 42.4875C91.968 42.4875 90.191 41.6667 89.9441 38.4141C89.9441 38.4141 87.8709 39.3028 87.1891 40.028L87.186 40.0311Z" fill="white"/>
<path opacity="0.6" d="M92.7823 42.1017C92.7823 42.1017 90.7985 40.6884 91.0145 37.911C91.0145 37.911 92.8532 37.0531 93.7016 36.8958C93.7016 36.8958 93.8374 39.7719 95.1671 41.2037L92.7823 42.1048V42.1017Z" fill="white"/>
<path d="M70.5719 36.5132L89.4128 53.4643L87.9628 55.6708L66.5859 43.7189L70.5719 36.5132Z" fill="white"/>
<path d="M64.3094 57.2971L83.5204 59.0962L82.7831 61.602L63.2666 64.4504L64.3094 57.2971Z" fill="white"/>
<path d="M52.2714 43.4626L84.3567 55.1769L83.7089 57.6055L50.334 52.9489L52.2714 43.4626Z" fill="white"/>
<path d="M121.663 81.2686C121.663 81.2686 124.159 78.9634 125.846 78.9047C127.534 78.8461 130.455 82.5091 130.042 82.9813C129.453 83.6509 125.353 81.7716 125.353 81.7716C125.353 81.7716 123.992 83.7127 122.412 84.191C121.163 84.5675 119.864 82.3116 121.666 81.2717L121.663 81.2686Z" fill="#FEB497"/>
<path d="M118.639 84.6662C118.988 83.4534 121.987 82.8486 123.171 82.5708C124.353 82.29 128.169 83.6725 129.382 84.3329C130.591 84.9933 128.848 85.6444 127.16 85.8296C126.519 85.9006 124.933 85.2525 124.171 85.3976C122.925 85.6352 122.107 86.4838 121.357 86.5826C120.148 86.743 118.118 86.4838 118.642 84.6662H118.639Z" fill="#FEB497"/>
<path d="M118.417 86.7584C118.534 85.6907 119.605 85.3173 122.304 85.666C125.004 86.0147 127.401 89.0698 126.411 89.7827C125.692 90.298 123.218 88.36 121.974 88.36C120.111 88.36 118.257 88.2489 118.42 86.7584H118.417Z" fill="#FEB497"/>
<path d="M117.201 88.6871C116.714 89.437 117.149 89.9153 119.071 91.1157C120.993 92.3131 123.106 91.5138 122.841 90.5325C122.65 89.8227 121.076 89.3537 120.145 88.9031C119.213 88.4526 117.883 87.641 117.205 88.6871H117.201Z" fill="#FEB497"/>
<path d="M134.228 82.1635C134.265 81.7685 133.814 81.5278 133.5 81.7654C132.762 82.324 131.797 83.2405 131.513 84.3391C131.035 86.1876 131.59 87.1504 131.297 87.8416C131.004 88.5298 127.579 91.3257 128.169 93.1618C128.758 94.998 129.662 96.0564 131.963 93.9734C133.935 92.1897 133.962 84.9717 134.228 82.1635Z" fill="#FEB497"/>
<path opacity="0.3" d="M133.568 84.228C133.466 84.7588 133.568 87.7059 133.568 87.7059C133.568 87.7059 133.013 90.3783 132.405 91.7145C131.797 93.0508 130.026 93.2112 129.622 92.3009C129.218 91.3905 130.079 89.2859 130.079 89.2797C129.045 90.4339 127.793 91.9892 128.169 93.1588C128.758 94.9949 129.662 96.0534 131.964 93.9704C133.494 92.5848 133.852 87.9219 134.062 84.5922C133.855 84.515 133.568 84.228 133.568 84.228Z" fill="#FF8661"/>
<path opacity="0.1" d="M159.371 41.8457C159.371 41.8457 162.256 47.4621 170.604 54.4487C170.604 54.4487 168.478 50.8042 167.871 47.9188C167.871 47.9188 173.942 52.0169 174.399 56.5718C174.399 56.5718 176.524 53.0785 174.855 50.4987C174.855 50.4987 180.47 52.4737 181.229 56.8742C181.229 56.8742 183.355 51.8626 178.193 47.4621C173.032 43.0584 167.112 39.5682 163.317 38.8091C163.317 38.8091 168.176 40.9353 169.694 43.5152L159.371 41.8457Z" fill="white"/>
<path d="M163.204 95.2264C163.204 95.2264 166.415 90.7425 170.552 91.6776C174.677 92.6095 189.347 86.5364 191.448 87.098C193.546 87.6597 197.933 91.8535 197.825 95.5103C197.717 99.2166 194.104 100.309 190.316 101.997C186.484 103.704 177.787 106.271 168.205 115.612C165.792 117.964 153.964 105.935 163.207 95.2264H163.204Z" fill="#82C890"/>
<path d="M188.77 87.4682L195.227 99.6515C195.714 99.3368 196.152 98.9973 196.522 98.6147C195.258 93.6555 191.244 88.0083 190.58 87.0979C190.102 87.1565 189.485 87.2892 188.773 87.4682H188.77Z" fill="#65A776"/>
<path d="M190.297 87.1289C190.297 87.1289 195.424 94.5845 196.458 98.624C196.458 98.624 197.803 99.1764 198.695 98.8061C199.583 98.4358 199.987 96.7107 200.509 96.7539C201.03 96.7971 204.655 96.8033 204.88 96.3867C205.105 95.9701 205.994 94.1648 205.692 93.5631C205.389 92.9644 200.435 84.5984 198.861 83.8979C197.288 83.1974 195.795 83.7652 195.582 84.4472C195.369 85.1322 194.743 85.3575 194.743 85.3575C194.743 85.3575 190.426 84.5891 190.303 87.1289H190.297Z" fill="#60499D"/>
<path d="M195.218 86.9529C195.218 86.9529 198.627 95.8682 198.855 98.0314C198.855 98.0314 199.515 96.2323 200.12 96.186C200.722 96.1398 203.066 96.3311 203.066 96.3311C203.066 96.3311 199.608 93.7235 198.179 91.6806C196.76 89.6469 195.218 86.9529 195.218 86.9529Z" fill="#56418D"/>
<path d="M197.76 87.0731C197.76 87.0731 198.108 78.7966 202.387 72.0538C206.667 65.311 209.866 59.5557 212.926 57.7134C215.987 55.8711 219.491 55.4823 218.412 59.4817C217.332 63.4811 204.942 93.1123 204.942 93.1123C204.942 93.1123 198.491 91.3503 197.763 87.0731H197.76Z" fill="#FEB497"/>
<path d="M222.987 56.9852C222.987 56.9852 229.891 55.2108 230.866 54.4486C231.841 53.6864 234.757 51.5601 235.466 51.1435C236.398 50.5973 234.291 50.0604 233.06 50.7424C232.409 51.1003 230.906 52.165 229.858 52.6464C228.809 53.1278 225.171 53.8222 224.625 53.6925C222.068 53.0846 219.93 52.7853 218.785 53.4981C218.22 53.8499 217.631 57.1827 222.987 56.9852Z" fill="#FEB497"/>
<path opacity="0.3" d="M222.987 56.9853C222.987 56.9853 229.206 55.0474 230.181 54.2851C231.156 53.5229 234.084 51.6652 234.797 51.2517C235.728 50.7054 234.294 50.0636 233.063 50.7456C232.412 51.1035 230.909 52.1682 229.86 52.6496C228.812 53.131 225.174 53.8253 224.628 53.6957C222.071 53.0878 219.933 52.7885 218.788 53.5013C218.223 53.8531 217.634 57.1859 222.99 56.9884L222.987 56.9853Z" fill="#FF8661"/>
<path d="M224.703 57.8339C224.703 57.8339 232.835 56.3619 234.029 55.5627C235.22 54.7634 238.771 52.5477 239.626 52.128C240.749 51.5756 238.358 50.7764 236.877 51.4615C236.096 51.8225 234.267 52.9273 233.011 53.3933C231.759 53.8592 228.022 54.2141 227.375 54.2265C226.727 54.2419 220.448 54.4178 219.933 54.9918C219.421 55.5658 222.392 58.1487 224.7 57.8309L224.703 57.8339Z" fill="#FEB497"/>
<path d="M212.562 58.2412C212.562 58.2412 211.708 55.0719 213.707 53.7049C215.709 52.3378 218.424 52.668 218.424 52.668C218.424 52.668 220.565 51.0911 221.537 50.6343C222.512 50.1776 226.041 49.4555 227.075 50.3844C228.111 51.3133 222.762 52.8501 222.015 53.3315C221.269 53.816 219.47 56.3526 218.711 56.9513C217.949 57.55 214.207 58.9016 212.562 58.2443V58.2412Z" fill="#FEB497"/>
<path opacity="0.3" d="M212.562 58.2412C212.562 58.2412 211.708 55.0719 213.707 53.7049C215.709 52.3378 218.424 52.668 218.424 52.668C218.424 52.668 220.565 51.0911 221.537 50.6343C222.512 50.1776 226.041 49.4555 227.075 50.3844C228.111 51.3133 222.762 52.8501 222.015 53.3315C221.269 53.816 219.47 56.3526 218.711 56.9513C217.949 57.55 214.207 58.9016 212.562 58.2443V58.2412Z" fill="#FF8661"/>
<path opacity="0.3" d="M224.703 57.8339C224.703 57.8339 232.493 55.936 233.687 55.1368C234.881 54.3375 237.241 52.597 238.601 52.1033C239.07 51.9336 238.358 50.7794 236.877 51.4614C236.096 51.8225 234.267 52.9272 233.011 53.3932C231.759 53.8592 228.022 54.2141 227.375 54.2264C226.727 54.2419 220.448 54.4178 219.933 54.9917C219.421 55.5657 222.392 58.1487 224.7 57.8308L224.703 57.8339Z" fill="#FF8661"/>
<path d="M222.333 59.164C222.333 59.164 230.851 59.2164 232.135 58.5776C233.421 57.9388 237.432 57.0655 238.37 56.8834C239.308 56.7014 237.336 55.8188 236.488 55.6923C235.636 55.5657 232.678 55.8466 231.376 56.149C230.074 56.4514 226.097 56.0039 225.452 55.9361C224.808 55.8651 218.56 55.2294 217.977 55.7324C217.394 56.2354 220.007 59.1794 222.336 59.167L222.333 59.164Z" fill="#FEB497"/>
<path opacity="0.3" d="M222.333 59.164C222.333 59.164 230.73 58.3801 232.017 57.7444C233.303 57.1056 234.55 56.6798 236.459 56.76C237.413 56.8001 237.336 55.8188 236.484 55.6923C235.633 55.5657 232.674 55.8466 231.372 56.149C230.07 56.4514 226.093 56.0039 225.449 55.9361C224.804 55.8651 218.556 55.2294 217.973 55.7324C217.39 56.2354 220.003 59.1794 222.333 59.167V59.164Z" fill="#FF8661"/>
<path d="M212.321 58.3215C212.321 58.3215 222.894 60.7316 225.118 60.1144C227.343 59.4972 229.965 57.3401 230.715 56.9482C231.464 56.5563 233.204 54.2542 233.849 53.637C234.497 53.0198 233.615 52.8717 232.328 53.3963C231.042 53.9209 229.379 55.4268 228.925 55.6305C228.472 55.8342 226.093 56.4668 224.85 55.8836C223.61 55.2972 218.55 53.6 217.245 53.9672C215.943 54.3344 212.886 55.1707 212.321 58.3245V58.3215Z" fill="#FEB497"/>
<g filter="url(#filter0_d_1790_13965)">
<path d="M225.165 43.9502C234.886 43.9502 242.766 36.068 242.766 26.3448C242.766 16.6217 234.886 8.7395 225.165 8.7395C215.445 8.7395 207.564 16.6217 207.564 26.3448C207.564 36.068 215.445 43.9502 225.165 43.9502Z" fill="white"/>
</g>
<path d="M225.165 40.7254C233.105 40.7254 239.541 34.287 239.541 26.3449C239.541 18.4027 233.105 11.9644 225.165 11.9644C217.225 11.9644 210.788 18.4027 210.788 26.3449C210.788 34.287 217.225 40.7254 225.165 40.7254Z" fill="#FFF2E3"/>
<path d="M233.134 19.9817H217.683C216.369 19.9817 215.305 21.0463 215.305 22.361V29.5389C215.305 30.8535 216.369 31.9181 217.683 31.9181H220.019L221.827 34.7233C222.021 35.0257 222.468 35.0164 222.647 34.7048L224.252 31.9212H233.134C234.448 31.9212 235.512 30.8566 235.512 29.542V22.364C235.512 21.0494 234.448 19.9848 233.134 19.9848V19.9817ZM227.975 31.1744C227.988 30.8658 227.951 30.5541 228.018 30.2486C228.105 29.8382 228.305 29.4957 228.614 29.2118C228.666 29.1624 228.688 29.1778 228.725 29.2272C229.095 29.7487 229.468 30.2672 229.836 30.7887C229.885 30.8597 229.907 30.8566 229.956 30.7887C230.323 30.2702 230.693 29.7549 231.06 29.2364C231.104 29.1778 231.125 29.1624 231.184 29.221C231.582 29.5975 231.795 30.0604 231.81 30.6097C231.816 30.8041 231.81 30.9954 231.81 31.1899C231.81 31.2485 231.792 31.2701 231.745 31.2763H228.046C227.994 31.2701 227.972 31.2454 227.975 31.1775V31.1744ZM230.446 23.4812C230.422 23.4873 230.394 23.4904 230.369 23.4997C230.045 23.6139 229.725 23.5861 229.394 23.4966C229.104 23.4164 228.805 23.3639 228.512 23.2991V23.2837C228.685 23.2435 228.858 23.2034 229.03 23.1664C229.296 23.1078 229.561 23.0522 229.826 22.9936C229.866 22.9843 229.904 22.9812 229.944 22.9905C230.372 23.0831 230.798 23.1787 231.227 23.2713C231.242 23.2744 231.258 23.2806 231.298 23.296C230.999 23.3608 230.721 23.4225 230.443 23.4842L230.446 23.4812ZM230.854 24.1323C230.848 24.3545 230.851 24.5767 230.854 24.8019C230.854 24.8637 230.841 24.8883 230.774 24.8883C230.187 24.8883 229.604 24.8883 229.018 24.8883C228.981 24.8883 228.935 24.9007 228.935 24.8359C228.935 24.5767 228.935 24.3174 228.935 24.049C229.222 24.1107 229.502 24.1693 229.78 24.2341C229.86 24.2526 229.934 24.2526 230.015 24.2341C230.264 24.1755 230.514 24.1261 230.761 24.0675C230.826 24.0521 230.854 24.0582 230.851 24.1385L230.854 24.1323ZM228.731 25.6321C228.765 25.5549 228.805 25.5241 228.895 25.5241C229.231 25.5302 229.567 25.5241 229.904 25.5241C230.24 25.5241 230.582 25.5241 230.922 25.5241C230.983 25.5241 231.017 25.5426 231.045 25.5981C231.264 26.0857 231.221 26.5517 230.881 26.9652C230.536 27.3849 230.079 27.533 229.558 27.3849C229.052 27.2429 228.743 26.8911 228.642 26.3696C228.592 26.1135 228.632 25.8666 228.737 25.629L228.731 25.6321ZM230.554 28.8414C230.342 29.1408 230.132 29.434 229.925 29.724C229.897 29.7641 229.882 29.7518 229.86 29.7209C229.663 29.4432 229.462 29.1624 229.265 28.8847C229.243 28.8538 229.24 28.8353 229.28 28.8198C229.703 28.681 230.126 28.681 230.554 28.8384V28.8414ZM234.867 29.5389C234.867 30.4955 234.09 31.2732 233.134 31.2732H232.449C232.449 31.0726 232.449 30.872 232.449 30.6683C232.449 29.3691 231.548 28.3138 230.268 28.107C230.218 28.0977 230.163 28.107 230.095 28.073C230.484 28.0237 230.814 27.8848 231.101 27.6534C231.841 27.0547 232.026 26.0024 231.536 25.1846C231.505 25.1352 231.492 25.0858 231.492 25.0241C231.492 24.6816 231.492 24.339 231.492 23.9934C231.492 23.9286 231.508 23.9008 231.573 23.8885C231.733 23.8576 231.89 23.8206 232.051 23.7836C232.112 23.7681 232.137 23.7774 232.134 23.8515C232.131 24.1693 232.134 24.4841 232.131 24.8019C232.131 24.8698 232.149 24.8945 232.22 24.8914C232.381 24.8853 232.538 24.8883 232.699 24.8914C232.754 24.8914 232.773 24.876 232.773 24.8174C232.773 24.2187 232.773 23.6169 232.773 23.0183C232.773 22.938 232.723 22.9442 232.677 22.9319C231.964 22.7745 231.249 22.6202 230.536 22.4628C230.48 22.4504 230.422 22.4443 230.372 22.4258C229.978 22.2684 229.598 22.3856 229.212 22.472C228.509 22.6294 227.806 22.7837 227.102 22.9349C227.078 22.9411 227.05 22.938 227.022 22.9411V23.62C227.411 23.7064 227.799 23.7959 228.188 23.8762C228.278 23.8947 228.302 23.9255 228.302 24.0181C228.296 24.3545 228.302 24.6908 228.302 25.0272C228.302 25.0797 228.293 25.1229 228.265 25.1692C227.546 26.3696 228.275 27.8725 229.663 28.0638C229.666 28.0638 229.669 28.0638 229.675 28.07C229.663 28.1039 229.635 28.0947 229.613 28.0977C228.327 28.2459 227.358 29.3229 227.346 30.619C227.346 30.8381 227.346 31.0541 227.346 31.2732H224.076C223.955 31.2732 223.847 31.338 223.786 31.4398L222.225 34.1462L220.472 31.4244C220.411 31.3287 220.306 31.2701 220.192 31.2701H217.686C216.73 31.2701 215.953 30.4924 215.953 29.5358V22.3579C215.953 21.4012 216.73 20.6236 217.686 20.6236H233.137C234.093 20.6236 234.871 21.4012 234.871 22.3579V29.5358L234.867 29.5389Z" fill="black" stroke="black" stroke-width="0.3" stroke-miterlimit="10"/>
<path d="M219.411 23.5829H219.189C219.121 23.5829 219.059 23.6045 219.004 23.6446L217.989 24.4007C217.862 24.4964 217.828 24.6692 217.908 24.805C218.004 24.9623 218.214 25.0025 218.359 24.8914L219.047 24.3667V28.6747C219.047 28.8445 219.186 28.9833 219.355 28.9833H219.411C219.581 28.9833 219.719 28.8445 219.719 28.6747V23.8884C219.719 23.7187 219.581 23.5798 219.411 23.5798V23.5829Z" fill="black" stroke="black" stroke-width="0.3" stroke-miterlimit="10"/>
<path d="M224.974 23.583H224.465C224.326 23.583 224.202 23.6787 224.165 23.8114L223.095 27.8725H223.064L221.972 23.8114C221.935 23.6756 221.815 23.583 221.676 23.583H221.21C221.04 23.583 220.901 23.7219 220.901 23.8916V28.6779C220.901 28.8476 221.04 28.9865 221.21 28.9865H221.228C221.398 28.9865 221.537 28.8476 221.537 28.6779V24.515H221.559L222.688 28.7581C222.725 28.8939 222.845 28.9865 222.987 28.9865H223.132C223.271 28.9865 223.394 28.8939 223.428 28.7581L224.573 24.515H224.594V28.6779C224.594 28.8476 224.733 28.9865 224.903 28.9865H224.974C225.143 28.9865 225.282 28.8476 225.282 28.6779V23.8916C225.282 23.7219 225.143 23.583 224.974 23.583Z" fill="black" stroke="black" stroke-width="0.3" stroke-miterlimit="10"/>
<path d="M63.507 128.916C63.507 128.916 58.796 139.192 78.4051 142.26C113.221 147.706 142.613 145.247 173.189 137.757C198.549 131.545 230.591 113.477 231.489 93.8843L232.26 114.4C232.26 117.6 231.023 120.717 228.728 123.337C223.93 128.805 213.157 138.016 190.148 147.367C175.201 153.44 144.964 161.05 115.1 159.245C51.8915 155.421 58.8114 134.366 63.5101 128.919L63.507 128.916Z" fill="#F79A36"/>
<path d="M63.5071 128.915C63.5071 128.915 59.8204 135.923 71.0564 140.463C71.0564 140.463 59.6384 136.877 63.5071 128.915Z" fill="#FDCD98"/>
<path opacity="0.6" d="M231.486 93.8806C231.486 93.8806 231.372 104.293 220.83 113.291C220.83 113.291 232.859 102.916 231.486 93.8806Z" fill="white"/>
<path d="M64.0718 70.7021C63.6646 70.7916 63.2604 70.8873 62.8594 70.9861" stroke="#9DB9F7" stroke-linecap="round" stroke-linejoin="round" stroke-dasharray="1 4"/>
<path d="M59.3029 72.063C53.148 74.2664 48.4587 77.843 45.7129 82.2898" stroke="#9DB9F7" stroke-linecap="round" stroke-linejoin="round" stroke-dasharray="1 4"/>
<path d="M44.8147 83.9163C44.6327 84.2897 44.463 84.6692 44.3057 85.0519" stroke="#9DB9F7" stroke-linecap="round" stroke-linejoin="round" stroke-dasharray="1 4"/>
<path d="M36.4814 128.916C47.5478 188.604 114.137 207.734 167.066 200.775C190.577 197.683 215.684 189.804 234.065 174.449" stroke="#9DB9F7" stroke-linecap="round" stroke-linejoin="round" stroke-dasharray="1 4"/>
<path d="M244.139 36.8894C276.199 59.3891 277.992 104.749 261.224 137.124" stroke="#9DB9F7" stroke-linecap="round" stroke-linejoin="round" stroke-dasharray="1 4"/>
<path d="M206.586 13.5906C175.824 -2.93469 134.227 -10.341 106.591 29.798" stroke="#9DB9F7" stroke-linecap="round" stroke-linejoin="round" stroke-dasharray="1 4"/>
<g filter="url(#filter1_d_1790_13965)">
<path d="M38.0801 124.37C47.8007 124.37 55.6808 116.488 55.6808 106.765C55.6808 97.0414 47.8007 89.1592 38.0801 89.1592C28.3596 89.1592 20.4795 97.0414 20.4795 106.765C20.4795 116.488 28.3596 124.37 38.0801 124.37Z" fill="white"/>
</g>
<path d="M38.0798 121.145C46.0198 121.145 52.4565 114.707 52.4565 106.765C52.4565 98.8224 46.0198 92.384 38.0798 92.384C30.1398 92.384 23.7031 98.8224 23.7031 106.765C23.7031 114.707 30.1398 121.145 38.0798 121.145Z" fill="#E0F6E7"/>
<path d="M43.3342 100.744C42.0755 100.744 40.8168 100.744 39.558 100.744C39.4285 100.744 39.3884 100.716 39.3914 100.58C39.3976 100.043 39.3914 99.5064 39.3914 98.9726C39.3914 98.3924 39.0243 98.0344 38.4474 98.0344H34.7761C34.1961 98.0344 33.8413 98.3924 33.8413 98.9756C33.8413 99.4972 33.8351 100.025 33.8413 100.549C33.8413 100.698 33.8104 100.744 33.65 100.744C32.416 100.738 31.1819 100.744 29.9479 100.744C29.2414 100.744 28.8311 101.151 28.8311 101.855C28.8311 104.774 28.8311 107.69 28.8311 110.607C28.8311 111.298 29.2321 111.73 29.9201 111.73H42.6031C42.5599 111.634 42.5259 111.532 42.5043 111.421C42.4766 111.292 42.4735 111.165 42.4889 111.039H39.5426C39.5056 111.051 39.4686 111.039 39.4346 111.039H38.4536C35.6152 111.039 32.7769 111.039 29.9386 111.039C29.6239 111.039 29.5067 110.924 29.5067 110.619C29.5067 108.872 29.5067 107.129 29.5067 105.388C29.5067 105.243 29.5468 105.209 29.6856 105.212C30.1268 105.222 30.5649 105.219 31.003 105.212C31.0986 105.212 31.148 105.228 31.185 105.336C31.3177 105.768 31.7095 106.052 32.1476 106.052C32.5887 106.052 32.9713 105.771 33.1132 105.336C33.1441 105.237 33.1903 105.209 33.2891 105.209C35.4826 105.215 37.6761 105.215 39.8727 105.209C39.9807 105.209 40.0239 105.237 40.0578 105.348C40.1905 105.765 40.5792 106.046 41.0142 106.052C41.443 106.052 41.8379 105.777 41.9737 105.357C42.0076 105.243 42.0508 105.209 42.168 105.209C42.6339 105.219 43.1028 105.219 43.5718 105.209C43.6828 105.209 43.7322 105.228 43.7291 105.354V107.789C43.7847 107.777 43.8433 107.764 43.8988 107.755C43.9451 107.746 43.9914 107.74 44.0376 107.755C44.161 107.783 44.2814 107.805 44.4048 107.832V107.107C44.4048 105.342 44.4048 103.574 44.4048 101.812C44.4048 101.182 43.9636 100.75 43.3342 100.75V100.744ZM34.52 98.9695C34.52 98.7689 34.5817 98.7102 34.7823 98.7102H38.4381C38.6541 98.7102 38.7158 98.7689 38.7158 98.9756C38.7158 99.5188 38.7158 100.062 38.7158 100.602C38.7158 100.713 38.688 100.744 38.5739 100.741C37.9198 100.741 37.2689 100.741 36.6117 100.741C35.9546 100.741 35.3129 100.741 34.6681 100.741C34.5478 100.741 34.5139 100.713 34.5169 100.593C34.5231 100.053 34.5169 99.5095 34.5169 98.9695H34.52ZM32.4838 105.043C32.4777 105.234 32.3203 105.376 32.1414 105.373C31.9594 105.367 31.8205 105.228 31.8113 105.03V104.999C31.8113 104.857 31.8113 104.716 31.8113 104.574C31.8113 104.429 31.8051 104.28 31.8113 104.135C31.8175 103.938 31.9501 103.796 32.1321 103.79C32.3172 103.784 32.4746 103.919 32.4808 104.111C32.49 104.422 32.49 104.731 32.4808 105.04L32.4838 105.043ZM41.3505 105.043C41.3443 105.237 41.187 105.376 41.008 105.373C40.826 105.367 40.6872 105.225 40.6779 105.03V104.135C40.6872 103.938 40.8168 103.796 41.0019 103.79C41.187 103.784 41.3443 103.919 41.3474 104.111C41.3597 104.422 41.3597 104.731 41.3474 105.04L41.3505 105.043ZM43.5594 104.54C43.0998 104.53 42.637 104.533 42.1742 104.54C42.0662 104.54 42.0261 104.512 42.0292 104.401C42.0385 104.246 42.0416 104.086 42.0076 103.929C41.9058 103.426 41.4461 103.08 40.9309 103.117C40.428 103.157 40.0177 103.58 40.0023 104.089V104.194C40.0023 104.424 39.883 104.54 39.6444 104.54C37.5527 104.54 35.461 104.54 33.3662 104.546C33.1842 104.546 33.1441 104.49 33.1626 104.33C33.1749 104.197 33.1626 104.058 33.1379 103.925C33.033 103.426 32.5702 103.08 32.055 103.123C31.5491 103.163 31.148 103.586 31.1295 104.101C31.1233 104.24 31.1912 104.425 31.1017 104.509C31.003 104.604 30.8148 104.537 30.6636 104.537C30.3181 104.543 29.9756 104.537 29.6301 104.543C29.5221 104.543 29.4974 104.509 29.4974 104.41C29.4974 103.54 29.4974 102.673 29.4974 101.802C29.4974 101.546 29.6301 101.426 29.9078 101.426H43.2262C43.6119 101.426 43.7137 101.522 43.7137 101.904C43.7137 102.728 43.7137 103.552 43.7137 104.373C43.7137 104.506 43.6859 104.546 43.5471 104.543L43.5594 104.54Z" fill="black" stroke="black" stroke-width="0.1" stroke-miterlimit="10"/>
<path d="M33.4712 110.091C32.6135 110.091 31.7559 110.091 30.8982 110.091C30.5619 110.091 30.457 109.983 30.457 109.644C30.457 108.943 30.457 108.246 30.457 107.545C30.457 107.326 30.5989 107.181 30.7964 107.181C30.9846 107.181 31.1203 107.326 31.1327 107.533C31.1327 107.579 31.1327 107.622 31.1327 107.669C31.1327 108.2 31.1358 108.73 31.1296 109.261C31.1296 109.391 31.1635 109.418 31.29 109.418C32.8573 109.415 34.4276 109.418 35.9948 109.418C36.0442 109.418 36.0966 109.418 36.146 109.418C36.3373 109.431 36.4792 109.576 36.4792 109.758C36.4792 109.937 36.3373 110.082 36.1429 110.094C36.0936 110.097 36.0411 110.094 35.9917 110.094C35.1526 110.094 34.3104 110.094 33.4712 110.094V110.091Z" fill="black" stroke="black" stroke-width="0.1" stroke-miterlimit="10"/>
<path d="M37.4973 109.416C37.6793 109.416 37.8335 109.567 37.8366 109.749C37.8366 109.934 37.6762 110.094 37.4911 110.091C37.3091 110.085 37.1641 109.934 37.1641 109.749C37.1641 109.564 37.3152 109.416 37.4973 109.416Z" fill="black" stroke="black" stroke-width="0.1" stroke-miterlimit="10"/>
<path d="M47.2148 107.694C46.3849 107.524 45.5519 107.354 44.719 107.187C44.6542 107.172 44.5863 107.166 44.5308 107.144C44.4907 107.129 44.4475 107.116 44.4043 107.107C44.176 107.046 43.9539 107.055 43.7286 107.089C43.5435 107.116 43.3615 107.16 43.1764 107.197C42.3558 107.37 41.5382 107.533 40.7145 107.7C40.6867 107.706 40.6528 107.7 40.625 107.706V108.44C41.0754 108.536 41.5289 108.632 41.9825 108.721C42.0874 108.743 42.1151 108.777 42.1151 108.872C42.1089 109.237 42.1151 109.601 42.1151 109.965C42.1151 110.02 42.1028 110.07 42.0719 110.119C41.8868 110.409 41.785 110.721 41.7634 111.039C41.7387 111.273 41.7634 111.508 41.8313 111.733C41.9578 112.177 42.2324 112.579 42.6519 112.866C42.7105 112.906 42.7723 112.946 42.837 112.98C43.6176 113.412 44.6017 113.359 45.3206 112.85L45.3823 112.807C46.2492 112.159 46.4651 111.017 45.8882 110.131C45.8543 110.079 45.8358 110.023 45.8358 109.959C45.8358 109.588 45.8358 109.215 45.8358 108.845C45.8358 108.774 45.8543 108.743 45.9283 108.727C46.1134 108.696 46.2985 108.656 46.4867 108.616C46.5608 108.598 46.5855 108.61 46.5824 108.687C46.5824 109.033 46.5824 109.375 46.5824 109.718C46.5824 109.795 46.604 109.817 46.6842 109.814C46.8693 109.814 47.0575 109.814 47.2426 109.814C47.3074 109.814 47.3259 109.795 47.3259 109.733C47.3259 109.082 47.3259 108.431 47.3259 107.786C47.3259 107.7 47.2673 107.706 47.2148 107.694ZM45.12 112.069C44.719 112.523 44.1852 112.684 43.5744 112.523C43.0993 112.397 42.7753 112.128 42.6057 111.733C42.5625 111.637 42.5285 111.536 42.5069 111.424C42.4792 111.295 42.4761 111.168 42.4915 111.042C42.51 110.9 42.5532 110.761 42.618 110.622C42.655 110.539 42.7013 110.502 42.8062 110.505C43.1116 110.511 43.417 110.505 43.7256 110.505H44.4012C44.6542 110.505 44.9072 110.505 45.1663 110.505C45.2373 110.505 45.2805 110.523 45.3082 110.585C45.5612 111.116 45.5118 111.619 45.12 112.066V112.069ZM42.8555 109.758C42.8555 109.477 42.8555 109.196 42.8555 108.903C43.1517 108.965 43.4386 109.021 43.7256 109.082C43.7626 109.088 43.8027 109.098 43.8397 109.107C43.9323 109.129 44.0217 109.129 44.1143 109.107L44.4043 109.045C44.5956 109.005 44.793 108.965 44.9874 108.925C45.0645 108.906 45.0953 108.913 45.0923 109.002C45.0861 109.243 45.0923 109.486 45.0923 109.724C45.0923 109.792 45.0768 109.82 44.9966 109.817H42.9512C42.908 109.817 42.8555 109.832 42.8555 109.758ZM44.6172 108.292C44.5894 108.298 44.5555 108.305 44.5277 108.314C44.4876 108.329 44.4475 108.342 44.4043 108.348C44.1791 108.403 43.9539 108.406 43.7286 108.376C43.6176 108.363 43.5065 108.339 43.3924 108.308C43.053 108.221 42.7075 108.166 42.3619 108.095V108.079C42.5625 108.036 42.763 107.993 42.9697 107.95C43.2227 107.897 43.4726 107.848 43.7286 107.795C43.7842 107.783 43.8428 107.771 43.8983 107.761C43.9446 107.752 43.9909 107.746 44.0372 107.761C44.1606 107.789 44.2809 107.811 44.4043 107.839C44.7776 107.916 45.154 107.99 45.5304 108.067C45.5519 108.073 45.5674 108.079 45.6106 108.095C45.2619 108.169 44.9411 108.234 44.6172 108.298V108.292Z" fill="black" stroke="black" stroke-width="0.1" stroke-miterlimit="10"/>
<path d="M46.8421 115.09C46.7773 114.427 46.3485 113.316 45.2286 112.831C44.883 112.68 44.4727 112.588 43.9852 112.588C43.4978 112.588 43.0813 112.683 42.7358 112.844C41.6591 113.338 41.2364 114.433 41.1654 115.087C41.1408 115.303 41.3135 115.495 41.5295 115.495H46.4749C46.6909 115.495 46.8606 115.309 46.839 115.093L46.8421 115.09ZM41.9923 114.757C42.1681 114.214 42.6586 113.325 43.9852 113.325C45.3119 113.325 45.8363 114.217 46.0153 114.757H41.9923Z" fill="black" stroke="black" stroke-width="0.1" stroke-miterlimit="10"/>
<g filter="url(#filter2_d_1790_13965)">
<path d="M246.847 172.335C256.567 172.335 264.447 164.453 264.447 154.729C264.447 145.006 256.567 137.124 246.847 137.124C237.126 137.124 229.246 145.006 229.246 154.729C229.246 164.453 237.126 172.335 246.847 172.335Z" fill="white"/>
</g>
<path d="M246.846 169.11C254.786 169.11 261.223 162.672 261.223 154.729C261.223 146.787 254.786 140.349 246.846 140.349C238.906 140.349 232.47 146.787 232.47 154.729C232.47 162.672 238.906 169.11 246.846 169.11Z" fill="#D4F0F7"/>
<path d="M256.614 159.124C256.558 158.371 256.015 157.717 255.263 157.491C255.244 157.485 255.232 157.482 255.229 157.482C255.229 157.476 255.229 157.46 255.229 157.436C255.232 155.63 255.232 153.825 255.229 152.02C255.229 151.998 255.229 151.986 255.229 151.983C255.235 151.98 255.247 151.974 255.269 151.967C256.022 151.742 256.562 151.085 256.617 150.329C256.673 149.548 256.262 148.823 255.574 148.483C254.859 148.132 254.05 148.255 253.464 148.804C253.436 148.829 253.421 148.838 253.424 148.841C253.421 148.841 253.409 148.835 253.384 148.823C251.826 147.919 250.265 147.014 248.701 146.116C248.676 146.104 248.667 146.095 248.664 146.092C248.664 146.086 248.664 146.073 248.673 146.046C248.744 145.817 248.75 145.564 248.701 145.274C248.611 144.774 248.333 144.342 247.914 144.058C247.485 143.768 246.967 143.666 246.452 143.774C245.964 143.876 245.548 144.166 245.276 144.592C245.002 145.024 244.915 145.536 245.032 146.036C245.042 146.073 245.042 146.092 245.045 146.092C245.045 146.095 245.032 146.104 245.008 146.116C243.444 147.014 241.886 147.916 240.324 148.82C240.3 148.832 240.287 148.838 240.284 148.841C240.278 148.838 240.269 148.832 240.257 148.817C239.67 148.261 238.862 148.129 238.149 148.471C237.437 148.811 237.03 149.523 237.085 150.326C237.138 151.082 237.681 151.739 238.433 151.964C238.455 151.971 238.467 151.977 238.473 151.977C238.473 151.983 238.473 151.995 238.473 152.017C238.47 153.822 238.47 155.627 238.473 157.433C238.473 157.46 238.473 157.473 238.473 157.476C238.467 157.476 238.458 157.482 238.436 157.488C237.681 157.713 237.138 158.368 237.085 159.121C237.03 159.901 237.437 160.63 238.122 160.969C238.831 161.321 239.643 161.201 240.235 160.654C240.266 160.624 240.281 160.617 240.281 160.614C240.284 160.614 240.297 160.62 240.321 160.633C241.879 161.54 243.44 162.441 245.005 163.336C245.029 163.351 245.039 163.358 245.042 163.358C245.042 163.364 245.042 163.379 245.032 163.413C244.829 164.265 245.233 165.132 246.013 165.521C246.137 165.583 246.263 165.623 246.387 165.663C246.439 165.678 246.492 165.697 246.544 165.715L247.109 165.725L247.164 165.712L247.204 165.688C248.337 165.407 248.91 164.499 248.654 163.373C248.654 163.373 248.664 163.364 248.691 163.348C250.259 162.444 251.826 161.54 253.39 160.633C253.415 160.62 253.427 160.614 253.427 160.611C253.433 160.614 253.442 160.62 253.458 160.636C254.044 161.188 254.852 161.318 255.565 160.975C256.268 160.636 256.682 159.908 256.623 159.118L256.614 159.124ZM254.096 149.542C254.269 149.366 254.498 149.27 254.738 149.267H254.741C254.985 149.267 255.213 149.36 255.383 149.53C255.553 149.696 255.645 149.925 255.645 150.165C255.645 150.406 255.553 150.634 255.38 150.804C255.21 150.974 254.985 151.066 254.744 151.066H254.741C254.254 151.066 253.85 150.665 253.84 150.175C253.837 149.937 253.927 149.712 254.096 149.539V149.542ZM246.846 144.706C247.087 144.706 247.312 144.799 247.482 144.969C247.652 145.138 247.747 145.367 247.744 145.613C247.744 145.857 247.649 146.086 247.473 146.258C247.3 146.428 247.075 146.521 246.837 146.518C246.597 146.518 246.371 146.419 246.202 146.246C246.032 146.073 245.943 145.845 245.946 145.601C245.952 145.101 246.344 144.709 246.843 144.709L246.846 144.706ZM238.313 150.804C238.143 150.634 238.051 150.406 238.051 150.162C238.051 149.921 238.146 149.696 238.316 149.53C238.489 149.36 238.717 149.27 238.964 149.27C239.455 149.273 239.856 149.678 239.856 150.168C239.856 150.409 239.763 150.634 239.59 150.807C239.417 150.98 239.192 151.073 238.955 151.073H238.952C238.708 151.073 238.483 150.977 238.313 150.807V150.804ZM239.6 159.92C239.427 160.096 239.198 160.191 238.958 160.191C238.714 160.191 238.489 160.099 238.319 159.929C238.149 159.759 238.057 159.534 238.057 159.29C238.057 159.047 238.153 158.821 238.325 158.649C238.495 158.479 238.72 158.389 238.958 158.389H238.964C239.455 158.392 239.859 158.794 239.865 159.284C239.865 159.522 239.775 159.747 239.606 159.92H239.6ZM246.853 164.756C246.612 164.756 246.387 164.663 246.217 164.493C246.047 164.324 245.952 164.095 245.952 163.851C245.952 163.608 246.047 163.379 246.22 163.206C246.39 163.037 246.631 162.941 246.856 162.947C247.096 162.947 247.322 163.046 247.488 163.216C247.658 163.389 247.75 163.62 247.747 163.864C247.741 164.354 247.34 164.756 246.853 164.756ZM253.442 157.976C253.442 157.976 253.43 157.973 253.402 157.954C253.115 157.784 252.829 157.621 252.542 157.457C252.184 157.257 251.934 157.399 251.817 157.602C251.702 157.803 251.706 158.093 252.06 158.303C252.341 158.466 252.622 158.63 252.906 158.79C252.94 158.809 252.946 158.818 252.933 158.824C252.841 159.133 252.844 159.454 252.927 159.784C251.348 160.691 249.771 161.605 248.173 162.528C247.939 162.287 247.658 162.123 247.337 162.059C247.337 162.059 247.337 162.049 247.337 162.021C247.343 161.673 247.343 161.327 247.337 160.978C247.331 160.806 247.266 160.657 247.149 160.565C247.069 160.503 246.97 160.469 246.865 160.469C246.828 160.469 246.788 160.472 246.748 160.482C246.606 160.512 246.368 160.62 246.365 160.991V161.117C246.365 161.417 246.359 161.713 246.365 162.012C246.365 162.043 246.362 162.055 246.34 162.049C246.032 162.126 245.764 162.284 245.526 162.524L245.517 162.518C243.94 161.605 242.361 160.691 240.766 159.759C240.855 159.451 240.855 159.139 240.766 158.831C240.763 158.818 240.76 158.809 240.76 158.806C240.766 158.803 240.772 158.797 240.784 158.79C241.012 158.667 241.238 158.534 241.463 158.402L241.633 158.303C241.932 158.127 242.031 157.868 241.892 157.612C241.827 157.491 241.731 157.408 241.614 157.374C241.475 157.334 241.318 157.362 241.151 157.457L240.988 157.55C240.756 157.68 240.528 157.809 240.306 157.951C240.294 157.957 240.287 157.963 240.284 157.963C240.278 157.957 240.269 157.951 240.254 157.933C240.035 157.707 239.775 157.559 239.485 157.488C239.464 157.482 239.451 157.482 239.448 157.479C239.448 157.473 239.445 157.454 239.445 157.42C239.448 156.738 239.448 156.059 239.445 155.377V154.054C239.445 153.378 239.445 152.702 239.445 152.026C239.445 151.989 239.445 151.974 239.445 151.971C239.451 151.971 239.461 151.964 239.485 151.958C239.778 151.887 240.044 151.733 240.254 151.511C240.266 151.495 240.275 151.489 240.278 151.486C240.284 151.486 240.3 151.495 240.328 151.511C240.59 151.671 240.858 151.822 241.127 151.974L241.176 152.001C241.33 152.088 241.485 152.112 241.62 152.075C241.737 152.042 241.836 151.961 241.901 151.841C242.009 151.643 242.003 151.36 241.66 151.159C241.367 150.986 241.074 150.813 240.772 150.644C240.861 150.326 240.864 150.008 240.787 149.668C242.367 148.761 243.946 147.848 245.526 146.934L245.535 146.928C245.764 147.166 246.038 147.326 246.371 147.4C246.371 147.4 246.374 147.413 246.371 147.443C246.365 147.771 246.365 148.095 246.371 148.422C246.374 148.77 246.553 148.98 246.85 148.983C247.053 148.986 247.155 148.9 247.217 148.826C247.297 148.73 247.34 148.598 247.343 148.431C247.346 148.098 247.349 147.764 247.356 147.406C247.658 147.332 247.929 147.178 248.185 146.925C249.768 147.845 251.351 148.758 252.943 149.684C252.853 150.002 252.853 150.32 252.958 150.634C252.958 150.634 252.952 150.64 252.927 150.653C252.637 150.813 252.35 150.983 252.063 151.15C251.863 151.267 251.792 151.406 251.767 151.501C251.736 151.619 251.758 151.739 251.826 151.853C251.943 152.051 252.196 152.193 252.551 151.992C252.841 151.829 253.128 151.662 253.415 151.492C253.439 151.477 253.449 151.474 253.439 151.489C253.668 151.727 253.945 151.887 254.266 151.949C254.266 151.949 254.266 151.961 254.266 151.995C254.266 153.813 254.266 155.634 254.266 157.451C254.266 157.479 254.266 157.488 254.257 157.479C253.936 157.559 253.658 157.72 253.452 157.967L253.442 157.976ZM255.383 159.932C255.213 160.099 254.988 160.191 254.744 160.191H254.738C254.248 160.191 253.847 159.787 253.84 159.297C253.84 159.059 253.933 158.831 254.103 158.658C254.275 158.485 254.504 158.389 254.744 158.389C254.985 158.389 255.21 158.482 255.383 158.655C255.553 158.828 255.648 159.053 255.648 159.297C255.648 159.54 255.553 159.766 255.383 159.932Z" fill="black"/>
<path d="M250.709 153.344L250.697 153.334L250.709 153.319C251.079 152.875 251.249 152.313 251.184 151.736C251.119 151.153 250.826 150.634 250.363 150.276C249.888 149.912 249.281 149.761 248.691 149.86C248.121 149.955 247.636 150.27 247.325 150.745C247.118 151.06 247.013 151.174 246.723 151.125L246.671 151.116C246.615 151.107 246.58 151.088 246.566 151.057C246.174 150.258 245.507 149.835 244.647 149.832H244.641C243.752 149.832 243.086 150.258 242.706 151.063C242.339 151.85 242.438 152.631 242.996 153.328C242.506 153.649 242.135 154.097 241.895 154.652C241.741 155.01 241.66 155.393 241.657 155.788C241.657 156.075 241.855 156.288 242.129 156.294C242.404 156.297 242.595 156.112 242.626 155.822C242.626 155.797 242.629 155.772 242.632 155.748V155.692C242.709 154.921 243.073 154.371 243.752 154.01C243.835 153.967 243.882 153.961 243.949 153.989C244.172 154.078 244.415 154.112 244.708 154.097L244.758 154.087C244.819 154.066 244.897 154.038 244.983 154.269C245.026 154.381 245.1 154.495 245.205 154.606C244.659 154.964 244.267 155.464 244.042 156.09C243.925 156.42 243.869 156.754 243.875 157.084C243.882 157.349 244.042 157.528 244.301 157.562C244.326 157.565 244.347 157.568 244.372 157.568C244.604 157.568 244.786 157.411 244.835 157.158C244.844 157.112 244.847 157.062 244.85 157.013V156.97C244.912 156.195 245.285 155.64 245.995 155.269C246.044 155.245 246.081 155.235 246.158 155.263C246.615 155.421 247.069 155.421 247.513 155.269C247.596 155.242 247.655 155.248 247.735 155.291C248.42 155.664 248.784 156.217 248.839 156.976C248.876 157.485 249.148 157.578 249.361 157.568C249.497 157.562 249.608 157.513 249.685 157.423C249.783 157.312 249.824 157.146 249.808 156.917C249.743 155.951 249.299 155.174 248.485 154.609C248.614 154.473 248.719 154.3 248.79 154.094C248.79 154.094 248.802 154.09 248.836 154.094C249.176 154.131 249.469 154.097 249.728 153.995C249.802 153.964 249.857 153.97 249.944 154.016C250.632 154.387 250.996 154.951 251.058 155.741V155.785C251.064 155.862 251.067 155.97 251.138 156.069C251.27 156.26 251.465 156.334 251.672 156.275C251.817 156.232 252.057 156.103 252.033 155.704C251.971 154.692 251.523 153.896 250.706 153.337L250.709 153.344ZM245.652 151.477C245.106 151.853 244.795 152.369 244.724 153.017C244.721 153.057 244.715 153.1 244.708 153.131C244.674 153.131 244.628 153.131 244.585 153.131C244.017 153.115 243.551 152.68 243.474 152.094C243.403 151.56 243.767 151.017 244.304 150.856C244.838 150.699 245.427 150.952 245.677 151.446L245.683 151.458C245.683 151.458 245.668 151.47 245.656 151.477H245.652ZM246.843 154.405C246.205 154.405 245.683 153.887 245.68 153.248C245.68 152.609 246.195 152.085 246.837 152.078H246.849C247.152 152.078 247.439 152.199 247.661 152.418C247.886 152.643 248.01 152.936 248.01 153.251C248.006 153.887 247.485 154.405 246.846 154.405H246.843ZM250.209 152.119C250.114 152.717 249.645 153.125 249.04 153.131H249.006C249.006 153.131 248.981 153.137 248.978 153.14C248.972 153.128 248.966 153.1 248.963 153.047C248.917 152.393 248.605 151.869 248.043 151.483C248.025 151.47 248.016 151.461 248.01 151.458C248.013 151.449 248.019 151.437 248.028 151.421C248.303 150.918 248.892 150.687 249.432 150.872C249.953 151.048 250.296 151.597 250.212 152.122L250.209 152.119Z" fill="black"/>
<path d="M247.938 157.562H247.358V156.982C247.358 156.701 247.13 156.473 246.849 156.473C246.568 156.473 246.34 156.701 246.34 156.982V157.562H245.76C245.479 157.562 245.251 157.791 245.251 158.071C245.251 158.352 245.479 158.581 245.76 158.581H246.34V159.161C246.34 159.442 246.568 159.67 246.849 159.67C247.13 159.67 247.358 159.442 247.358 159.161V158.581H247.938C248.219 158.581 248.447 158.352 248.447 158.071C248.447 157.791 248.219 157.562 247.938 157.562Z" fill="black"/>
</g>
<defs>
<filter id="filter0_d_1790_13965" x="197.564" y="-1.2605" width="55.2012" height="55.2107" filterUnits="userSpaceOnUse" color-interpolation-filters="sRGB">
<feFlood flood-opacity="0" result="BackgroundImageFix"/>
<feColorMatrix in="SourceAlpha" type="matrix" values="0 0 0 0 0 0 0 0 0 0 0 0 0 0 0 0 0 0 127 0" result="hardAlpha"/>
<feOffset/>
<feGaussianBlur stdDeviation="5"/>
<feColorMatrix type="matrix" values="0 0 0 0 0.560784 0 0 0 0 0.352941 0 0 0 0 0.756863 0 0 0 0.25 0"/>
<feBlend mode="normal" in2="BackgroundImageFix" result="effect1_dropShadow_1790_13965"/>
<feBlend mode="normal" in="SourceGraphic" in2="effect1_dropShadow_1790_13965" result="shape"/>
</filter>
<filter id="filter1_d_1790_13965" x="10.4795" y="79.1592" width="55.2012" height="55.2107" filterUnits="userSpaceOnUse" color-interpolation-filters="sRGB">
<feFlood flood-opacity="0" result="BackgroundImageFix"/>
<feColorMatrix in="SourceAlpha" type="matrix" values="0 0 0 0 0 0 0 0 0 0 0 0 0 0 0 0 0 0 127 0" result="hardAlpha"/>
<feOffset/>
<feGaussianBlur stdDeviation="5"/>
<feColorMatrix type="matrix" values="0 0 0 0 0.560784 0 0 0 0 0.352941 0 0 0 0 0.756863 0 0 0 0.25 0"/>
<feBlend mode="normal" in2="BackgroundImageFix" result="effect1_dropShadow_1790_13965"/>
<feBlend mode="normal" in="SourceGraphic" in2="effect1_dropShadow_1790_13965" result="shape"/>
</filter>
<filter id="filter2_d_1790_13965" x="219.246" y="127.124" width="55.2012" height="55.2107" filterUnits="userSpaceOnUse" color-interpolation-filters="sRGB">
<feFlood flood-opacity="0" result="BackgroundImageFix"/>
<feColorMatrix in="SourceAlpha" type="matrix" values="0 0 0 0 0 0 0 0 0 0 0 0 0 0 0 0 0 0 127 0" result="hardAlpha"/>
<feOffset/>
<feGaussianBlur stdDeviation="5"/>
<feColorMatrix type="matrix" values="0 0 0 0 0.560784 0 0 0 0 0.352941 0 0 0 0 0.756863 0 0 0 0.25 0"/>
<feBlend mode="normal" in2="BackgroundImageFix" result="effect1_dropShadow_1790_13965"/>
<feBlend mode="normal" in="SourceGraphic" in2="effect1_dropShadow_1790_13965" result="shape"/>
</filter>
<clipPath id="clip0_1790_13965">
<rect width="272" height="202.447" fill="white"/>
</clipPath>
</defs>
</svg>
