<svg width="500" height="500" viewBox="0 0 500 500" fill="none" xmlns="http://www.w3.org/2000/svg">
<g clip-path="url(#clip0_655_597)">
<path d="M67.49 378.91C67.49 378.91 116.54 441 200.34 443.55C284.14 446.1 359.1 393.83 420.93 353.11C482.76 312.39 503.05 244.27 472.18 188.11C441.31 131.95 385.28 151.11 317.99 111.65C250.7 72.19 238.78 51.39 160.77 54.94C82.76 58.49 18.19 141.83 21 235.2C23.81 328.57 67.49 378.91 67.49 378.91Z" fill="#38A7BB"/>
<path opacity="0.7" d="M67.49 378.91C67.49 378.91 116.54 441 200.34 443.55C284.14 446.1 359.1 393.83 420.93 353.11C482.76 312.39 503.05 244.27 472.18 188.11C441.31 131.95 385.28 151.11 317.99 111.65C250.7 72.19 238.78 51.39 160.77 54.94C82.76 58.49 18.19 141.83 21 235.2C23.81 328.57 67.49 378.91 67.49 378.91Z" fill="white"/>
<path d="M332.5 441.35C332.021 441.356 331.555 441.19 331.188 440.882C330.821 440.573 330.577 440.143 330.5 439.67C326.58 415.73 351.18 399.58 352.23 398.9C352.39 398.79 375.49 382.28 375.49 368.07C375.49 358.27 366.21 350.88 355.49 342.33C350.603 338.594 345.929 334.588 341.49 330.33C326.7 315.53 329.58 302.72 329.71 302.18C329.839 301.67 330.164 301.232 330.614 300.96C331.064 300.688 331.602 300.604 332.114 300.726C332.625 300.849 333.068 301.167 333.346 301.613C333.624 302.059 333.715 302.597 333.6 303.11C333.49 303.61 331.24 314.42 344.32 327.5C348.658 331.653 353.225 335.559 358 339.2C369.07 348.02 379.53 356.34 379.53 368.07C379.53 384.34 355.53 401.5 354.53 402.22C354.23 402.42 331.02 417.69 334.53 439.03C334.614 439.552 334.487 440.087 334.178 440.516C333.869 440.945 333.402 441.234 332.88 441.32L332.5 441.35Z" fill="#E8382B"/>
<path d="M376.44 441.35H376.12C375.598 441.264 375.131 440.975 374.822 440.546C374.513 440.117 374.386 439.582 374.47 439.06C377.96 417.72 354.75 402.45 354.47 402.3C353.38 401.53 329.38 384.37 329.38 368.1C329.38 356.37 339.84 348.05 350.92 339.23C355.681 335.576 360.238 331.664 364.57 327.51C377.67 314.4 375.39 303.57 375.29 303.12C375.175 302.607 375.266 302.069 375.544 301.623C375.823 301.177 376.265 300.859 376.776 300.736C377.288 300.614 377.827 300.698 378.276 300.97C378.726 301.242 379.051 301.68 379.18 302.19C379.31 302.73 382.18 315.54 367.39 330.34C362.951 334.598 358.277 338.605 353.39 342.34C342.64 350.89 333.39 358.28 333.39 368.08C333.39 382.3 356.49 398.8 356.72 398.96C357.72 399.59 382.3 415.74 378.38 439.68C378.303 440.141 378.067 440.561 377.712 440.866C377.358 441.171 376.908 441.342 376.44 441.35Z" fill="#E8382B"/>
<path d="M376.53 310.82H332.92C332.655 310.82 332.4 310.715 332.213 310.527C332.025 310.34 331.92 310.085 331.92 309.82C331.92 309.555 332.025 309.3 332.213 309.113C332.4 308.925 332.655 308.82 332.92 308.82H376.53C376.795 308.82 377.049 308.925 377.237 309.113C377.425 309.3 377.53 309.555 377.53 309.82C377.53 310.085 377.425 310.34 377.237 310.527C377.049 310.715 376.795 310.82 376.53 310.82Z" fill="#E8382B"/>
<path d="M376.53 315.45H332.92C332.655 315.45 332.4 315.345 332.213 315.157C332.025 314.97 331.92 314.715 331.92 314.45C331.92 314.185 332.025 313.93 332.213 313.743C332.4 313.555 332.655 313.45 332.92 313.45H376.53C376.795 313.45 377.049 313.555 377.237 313.743C377.425 313.93 377.53 314.185 377.53 314.45C377.53 314.715 377.425 314.97 377.237 315.157C377.049 315.345 376.795 315.45 376.53 315.45Z" fill="#E8382B"/>
<path d="M374.05 320.07H335.39C335.125 320.07 334.871 319.965 334.683 319.777C334.495 319.59 334.39 319.335 334.39 319.07C334.39 318.805 334.495 318.55 334.683 318.363C334.871 318.175 335.125 318.07 335.39 318.07H374.05C374.315 318.07 374.57 318.175 374.757 318.363C374.945 318.55 375.05 318.805 375.05 319.07C375.05 319.335 374.945 319.59 374.757 319.777C374.57 319.965 374.315 320.07 374.05 320.07Z" fill="#E8382B"/>
<path d="M370.33 324.7H339.11C338.845 324.7 338.591 324.595 338.403 324.407C338.215 324.22 338.11 323.965 338.11 323.7C338.11 323.435 338.215 323.18 338.403 322.993C338.591 322.805 338.845 322.7 339.11 322.7H370.33C370.595 322.7 370.85 322.805 371.037 322.993C371.225 323.18 371.33 323.435 371.33 323.7C371.33 323.965 371.225 324.22 371.037 324.407C370.85 324.595 370.595 324.7 370.33 324.7Z" fill="#E8382B"/>
<path d="M376.53 433.43H332.92C332.655 433.43 332.4 433.325 332.213 433.137C332.025 432.95 331.92 432.695 331.92 432.43C331.92 432.165 332.025 431.91 332.213 431.723C332.4 431.535 332.655 431.43 332.92 431.43H376.53C376.795 431.43 377.049 431.535 377.237 431.723C377.425 431.91 377.53 432.165 377.53 432.43C377.53 432.695 377.425 432.95 377.237 433.137C377.049 433.325 376.795 433.43 376.53 433.43Z" fill="#E8382B"/>
<path d="M376.53 428.8H332.92C332.655 428.8 332.4 428.695 332.213 428.507C332.025 428.32 331.92 428.065 331.92 427.8C331.92 427.535 332.025 427.28 332.213 427.093C332.4 426.905 332.655 426.8 332.92 426.8H376.53C376.795 426.8 377.049 426.905 377.237 427.093C377.425 427.28 377.53 427.535 377.53 427.8C377.53 428.065 377.425 428.32 377.237 428.507C377.049 428.695 376.795 428.8 376.53 428.8Z" fill="#E8382B"/>
<path d="M374.05 424.18H335.39C335.125 424.18 334.871 424.075 334.683 423.887C334.495 423.7 334.39 423.445 334.39 423.18C334.39 422.915 334.495 422.66 334.683 422.473C334.871 422.285 335.125 422.18 335.39 422.18H374.05C374.315 422.18 374.57 422.285 374.757 422.473C374.945 422.66 375.05 422.915 375.05 423.18C375.05 423.445 374.945 423.7 374.757 423.887C374.57 424.075 374.315 424.18 374.05 424.18Z" fill="#E8382B"/>
<path d="M370.33 419.55H339.11C338.845 419.55 338.591 419.445 338.403 419.257C338.215 419.07 338.11 418.815 338.11 418.55C338.11 418.285 338.215 418.03 338.403 417.843C338.591 417.655 338.845 417.55 339.11 417.55H370.33C370.595 417.55 370.85 417.655 371.037 417.843C371.225 418.03 371.33 418.285 371.33 418.55C371.33 418.815 371.225 419.07 371.037 419.257C370.85 419.445 370.595 419.55 370.33 419.55Z" fill="#E8382B"/>
<path d="M376.53 362.11H332.92C332.655 362.11 332.4 362.005 332.213 361.817C332.025 361.629 331.92 361.375 331.92 361.11C331.92 360.845 332.025 360.59 332.213 360.403C332.4 360.215 332.655 360.11 332.92 360.11H376.53C376.795 360.11 377.049 360.215 377.237 360.403C377.425 360.59 377.53 360.845 377.53 361.11C377.53 361.375 377.425 361.629 377.237 361.817C377.049 362.005 376.795 362.11 376.53 362.11Z" fill="#E8382B"/>
<path d="M376.53 366.57H332.92C332.655 366.57 332.4 366.465 332.213 366.277C332.025 366.09 331.92 365.835 331.92 365.57C331.92 365.305 332.025 365.05 332.213 364.863C332.4 364.675 332.655 364.57 332.92 364.57H376.53C376.795 364.57 377.049 364.675 377.237 364.863C377.425 365.05 377.53 365.305 377.53 365.57C377.53 365.835 377.425 366.09 377.237 366.277C377.049 366.465 376.795 366.57 376.53 366.57Z" fill="#E8382B"/>
<path d="M377.27 371H332.17C331.905 371 331.65 370.895 331.463 370.707C331.275 370.52 331.17 370.265 331.17 370C331.17 369.735 331.275 369.48 331.463 369.293C331.65 369.105 331.905 369 332.17 369H377.27C377.535 369 377.789 369.105 377.977 369.293C378.165 369.48 378.27 369.735 378.27 370C378.27 370.265 378.165 370.52 377.977 370.707C377.789 370.895 377.535 371 377.27 371Z" fill="#E8382B"/>
<path d="M376.28 375.49H333.16C332.895 375.49 332.641 375.385 332.453 375.197C332.265 375.01 332.16 374.755 332.16 374.49C332.16 374.225 332.265 373.97 332.453 373.783C332.641 373.595 332.895 373.49 333.16 373.49H376.28C376.545 373.49 376.8 373.595 376.987 373.783C377.175 373.97 377.28 374.225 377.28 374.49C377.28 374.755 377.175 375.01 376.987 375.197C376.8 375.385 376.545 375.49 376.28 375.49Z" fill="#E8382B"/>
<path d="M374.45 380H335C334.735 380 334.48 379.895 334.293 379.707C334.105 379.52 334 379.265 334 379C334 378.735 334.105 378.48 334.293 378.293C334.48 378.105 334.735 378 335 378H374.46C374.725 378 374.98 378.105 375.167 378.293C375.355 378.48 375.46 378.735 375.46 379C375.46 379.265 375.355 379.52 375.167 379.707C374.98 379.895 374.725 380 374.46 380H374.45Z" fill="#E8382B"/>
<path d="M106.52 329.66C106.69 330.14 107.09 330.9 107.52 330.9C108.17 330.9 108.69 329.96 108.69 328.8C108.69 327.64 108.17 326.7 107.52 326.7C107.13 326.7 106.75 327.37 106.52 327.78L102.16 327.65C102.026 324.902 101.321 322.211 100.09 319.75L105.83 316.21C106.25 316.58 107.06 317.08 107.46 316.85C108.08 316.49 108.07 315.31 107.46 314.2C106.85 313.09 105.8 312.49 105.18 312.85C104.82 313.06 104.82 313.91 104.88 314.39L98.8801 317.61C97.3566 315.317 95.3793 313.36 93.0701 311.86L95.0701 308.08C95.5701 308.18 96.4301 308.21 96.6401 307.84C96.9701 307.28 96.4201 306.35 95.4101 305.77C94.4001 305.19 93.3301 305.18 93.0001 305.77C92.8101 306.1 93.2001 306.77 93.4601 307.12L91.1801 310.83C88.7285 309.582 86.046 308.854 83.3001 308.69L83.1001 301.94C83.6301 301.76 84.4701 301.31 84.4701 300.84C84.4701 300.13 83.4701 299.55 82.1601 299.55C80.8501 299.55 79.8501 300.13 79.8501 300.84C79.8501 301.27 80.5801 301.69 81.0301 301.84L80.8301 308.65C78.1005 308.824 75.4356 309.556 73.0001 310.8L70.7401 307.14C71.0801 306.75 71.5301 306.02 71.3201 305.66C71.0001 305.09 69.9201 305.11 68.9101 305.66C67.9001 306.21 67.3601 307.16 67.6801 307.73C67.8701 308.06 68.6801 308.06 69.0901 308L71.1501 311.83C68.8409 313.33 66.8636 315.287 65.3401 317.58L59.4101 314.39C59.5201 313.84 59.5501 312.89 59.1501 312.66C58.5301 312.3 57.5101 312.91 56.8701 314.01C56.2301 315.11 56.2201 316.3 56.8701 316.66C57.2301 316.87 57.9701 316.44 58.3601 316.15L64.1501 319.72C62.9189 322.181 62.2139 324.872 62.0801 327.62L57.7701 327.75C57.6001 327.27 57.2001 326.51 56.7701 326.51C56.1201 326.51 55.6001 327.45 55.6001 328.61C55.6001 329.77 56.1201 330.71 56.7701 330.71C57.1601 330.71 57.5401 330.04 57.7201 329.63L62.0801 329.76C62.2139 332.509 62.9189 335.199 64.1501 337.66L58.4101 341.2C57.9801 340.83 57.1801 340.33 56.7801 340.56C56.1601 340.92 56.1701 342.1 56.7801 343.21C57.3901 344.32 58.4401 344.92 59.0601 344.56C59.4201 344.35 59.4201 343.5 59.3601 343.02L65.3601 339.8C66.8836 342.094 68.8609 344.05 71.1701 345.55L69.1701 349.33C68.6701 349.23 67.8101 349.2 67.6001 349.57C67.2701 350.13 67.8201 351.06 68.8301 351.64C69.8401 352.22 70.9101 352.23 71.2401 351.64C71.4301 351.31 71.0401 350.64 70.7801 350.29L73.0001 346.64C75.4517 347.888 78.1342 348.616 80.8801 348.78L81.0801 355.53C80.5501 355.71 79.7101 356.16 79.7101 356.62C79.7101 357.34 80.7101 357.92 82.0201 357.92C83.3301 357.92 84.3301 357.34 84.3301 356.62C84.3301 356.2 83.6001 355.78 83.1501 355.62L83.3501 348.81C86.096 348.646 88.7786 347.918 91.2301 346.67L93.4901 350.33C93.1501 350.72 92.7001 351.45 92.9101 351.81C93.2301 352.38 94.3101 352.36 95.3201 351.81C96.3301 351.26 96.8701 350.31 96.5501 349.74C96.3501 349.41 95.5501 349.41 95.1401 349.47L93.0801 345.64C95.3893 344.14 97.3666 342.184 98.8901 339.89L104.82 343.08C104.71 343.63 104.68 344.58 105.08 344.81C105.7 345.17 106.72 344.56 107.36 343.46C108 342.36 108.01 341.17 107.36 340.81C106.99 340.6 106.26 341.03 105.87 341.32L100.08 337.75C101.311 335.289 102.016 332.599 102.15 329.85L106.52 329.66Z" fill="white" stroke="#E8382B" stroke-linecap="round" stroke-linejoin="round"/>
<path d="M83.7101 313.36C83.7241 313.772 83.6146 314.179 83.3958 314.529C83.177 314.878 82.8588 315.154 82.482 315.322C82.1052 315.489 81.6869 315.54 81.2809 315.469C80.8749 315.397 80.4995 315.205 80.203 314.919C79.9064 314.632 79.7022 314.264 79.6165 313.86C79.5308 313.457 79.5675 313.037 79.7219 312.655C79.8763 312.273 80.1414 311.945 80.4831 311.714C80.8249 311.484 81.2278 311.36 81.6401 311.36C81.9086 311.351 82.1762 311.396 82.427 311.492C82.6778 311.588 82.9066 311.734 83.0998 311.921C83.293 312.107 83.4466 312.331 83.5515 312.578C83.6563 312.826 83.7103 313.091 83.7101 313.36Z" fill="white" stroke="#E8382B" stroke-linecap="round" stroke-linejoin="round"/>
<path d="M71.2 329.31C71.2159 329.724 71.1076 330.134 70.889 330.487C70.6703 330.839 70.3513 331.118 69.9729 331.288C69.5946 331.457 69.174 331.51 68.7654 331.439C68.3568 331.368 67.9788 331.177 67.6798 330.889C67.3809 330.602 67.1747 330.232 67.0877 329.826C67.0008 329.421 67.037 328.998 67.1918 328.614C67.3466 328.229 67.6129 327.899 67.9565 327.667C68.3001 327.435 68.7052 327.31 69.12 327.31C69.3893 327.299 69.658 327.343 69.9099 327.439C70.1619 327.534 70.3919 327.68 70.5862 327.867C70.7805 328.053 70.935 328.278 71.0404 328.526C71.1459 328.774 71.2002 329.04 71.2 329.31Z" fill="white" stroke="#E8382B" stroke-linecap="round" stroke-linejoin="round"/>
<path d="M80.47 324.18C80.486 324.595 80.3774 325.005 80.1583 325.358C79.9392 325.71 79.6197 325.989 79.2407 326.159C78.8617 326.328 78.4407 326.38 78.0318 326.309C77.6229 326.237 77.2448 326.044 76.9463 325.756C76.6477 325.467 76.4423 325.096 76.3565 324.69C76.2706 324.284 76.3083 323.861 76.4647 323.477C76.621 323.092 76.8889 322.763 77.2338 322.532C77.5787 322.301 77.9848 322.178 78.4 322.18C78.6685 322.171 78.9361 322.215 79.1869 322.312C79.4377 322.408 79.6665 322.554 79.8597 322.74C80.0529 322.927 80.2065 323.151 80.3113 323.398C80.4162 323.645 80.4702 323.911 80.47 324.18Z" fill="white" stroke="#E8382B" stroke-linecap="round" stroke-linejoin="round"/>
<path d="M75.63 341.35C75.644 341.762 75.5345 342.169 75.3157 342.519C75.0969 342.868 74.7787 343.144 74.4019 343.312C74.0251 343.479 73.6069 343.53 73.2008 343.458C72.7948 343.387 72.4194 343.195 72.1229 342.909C71.8264 342.622 71.6221 342.254 71.5364 341.85C71.4507 341.447 71.4874 341.027 71.6418 340.645C71.7962 340.263 72.0613 339.935 72.4031 339.704C72.7448 339.474 73.1477 339.35 73.56 339.35C73.8285 339.341 74.0961 339.385 74.3469 339.482C74.5977 339.578 74.8265 339.724 75.0197 339.911C75.2129 340.097 75.3665 340.321 75.4714 340.568C75.5762 340.816 75.6302 341.081 75.63 341.35Z" fill="white" stroke="#E8382B" stroke-linecap="round" stroke-linejoin="round"/>
<path d="M98.2201 333.06C98.2341 333.472 98.1246 333.879 97.9058 334.229C97.687 334.578 97.3688 334.854 96.992 335.022C96.6152 335.189 96.1969 335.24 95.7909 335.168C95.3849 335.097 95.0095 334.905 94.713 334.619C94.4164 334.332 94.2122 333.964 94.1265 333.56C94.0408 333.157 94.0775 332.737 94.2319 332.355C94.3863 331.973 94.6514 331.645 94.9931 331.414C95.3349 331.184 95.7378 331.06 96.1501 331.06C96.4186 331.051 96.6862 331.095 96.937 331.192C97.1878 331.288 97.4166 331.434 97.6098 331.621C97.803 331.807 97.9566 332.031 98.0615 332.278C98.1663 332.526 98.2203 332.791 98.2201 333.06Z" fill="white" stroke="#E8382B" stroke-linecap="round" stroke-linejoin="round"/>
<path d="M83.4001 335.76C83.414 336.172 83.3045 336.579 83.0857 336.928C82.8669 337.278 82.5487 337.554 82.1719 337.722C81.7951 337.889 81.3769 337.94 80.9708 337.868C80.5648 337.797 80.1894 337.605 79.8929 337.319C79.5964 337.032 79.3922 336.664 79.3064 336.26C79.2207 335.857 79.2574 335.437 79.4118 335.055C79.5662 334.673 79.8313 334.345 80.1731 334.114C80.5148 333.884 80.9177 333.76 81.3301 333.76C81.5985 333.751 81.8661 333.795 82.1169 333.892C82.3677 333.988 82.5965 334.134 82.7897 334.32C82.9829 334.507 83.1365 334.731 83.2414 334.978C83.3463 335.225 83.4002 335.491 83.4001 335.76Z" fill="white" stroke="#E8382B" stroke-linecap="round" stroke-linejoin="round"/>
<path d="M90.1101 327.86C90.1261 328.275 90.0175 328.685 89.7985 329.038C89.5794 329.39 89.2598 329.669 88.8808 329.839C88.5018 330.008 88.0808 330.061 87.6719 329.989C87.263 329.917 86.885 329.724 86.5864 329.436C86.2878 329.148 86.0824 328.776 85.9966 328.37C85.9108 327.964 85.9485 327.541 86.1048 327.157C86.2612 326.772 86.529 326.443 86.8739 326.212C87.2188 325.981 87.625 325.858 88.0401 325.86C88.3086 325.851 88.5762 325.896 88.827 325.992C89.0778 326.088 89.3066 326.234 89.4998 326.421C89.693 326.607 89.8466 326.831 89.9515 327.078C90.0563 327.326 90.1103 327.591 90.1101 327.86Z" fill="white" stroke="#E8382B" stroke-linecap="round" stroke-linejoin="round"/>
<path d="M95.11 318.67C95.124 319.082 95.0145 319.489 94.7957 319.838C94.5769 320.188 94.2587 320.464 93.8819 320.632C93.5051 320.799 93.0868 320.85 92.6808 320.778C92.2748 320.707 91.8994 320.515 91.6029 320.229C91.3063 319.942 91.1021 319.574 91.0164 319.17C90.9307 318.767 90.9674 318.347 91.1218 317.965C91.2762 317.582 91.5413 317.255 91.883 317.024C92.2248 316.794 92.6277 316.67 93.04 316.67C93.3085 316.661 93.5761 316.705 93.8269 316.802C94.0777 316.898 94.3065 317.044 94.4997 317.23C94.6929 317.417 94.8465 317.641 94.9514 317.888C95.0562 318.135 95.1102 318.401 95.11 318.67Z" fill="white" stroke="#E8382B" stroke-linecap="round" stroke-linejoin="round"/>
<path d="M90.33 342.33C90.3439 342.742 90.2345 343.149 90.0157 343.499C89.7968 343.848 89.4786 344.124 89.1018 344.292C88.725 344.459 88.3068 344.51 87.9008 344.438C87.4947 344.367 87.1194 344.175 86.8228 343.889C86.5263 343.602 86.3221 343.234 86.2364 342.83C86.1507 342.427 86.1874 342.007 86.3418 341.625C86.4962 341.243 86.7612 340.915 87.103 340.684C87.4448 340.454 87.8476 340.33 88.26 340.33C88.5285 340.321 88.7961 340.365 89.0469 340.462C89.2977 340.558 89.5265 340.704 89.7197 340.891C89.9129 341.077 90.0665 341.301 90.1713 341.548C90.2762 341.796 90.3301 342.061 90.33 342.33Z" fill="white" stroke="#E8382B" stroke-linecap="round" stroke-linejoin="round"/>
<path d="M73.3701 316.88C73.3861 317.294 73.2778 317.704 73.0591 318.057C72.8405 318.409 72.5215 318.688 72.1431 318.858C71.7647 319.028 71.3442 319.08 70.9356 319.009C70.527 318.938 70.149 318.747 69.85 318.459C69.5511 318.172 69.3449 317.802 69.2579 317.396C69.1709 316.991 69.2072 316.568 69.362 316.184C69.5168 315.799 69.7831 315.469 70.1267 315.237C70.4702 315.005 70.8754 314.88 71.2901 314.88C71.5594 314.869 71.8281 314.913 72.0801 315.009C72.332 315.104 72.5621 315.25 72.7563 315.437C72.9506 315.624 73.1051 315.848 73.2106 316.096C73.3161 316.344 73.3704 316.611 73.3701 316.88Z" fill="white" stroke="#E8382B" stroke-linecap="round" stroke-linejoin="round"/>
<path d="M239.64 99.7C239.75 100.03 240.02 100.54 240.3 100.54C240.74 100.54 241.09 99.91 241.09 99.13C241.09 98.35 240.74 97.72 240.3 97.72C240.05 97.72 239.79 98.17 239.67 98.44L236.74 98.35C236.645 96.5067 236.172 94.7027 235.35 93.05L239.2 90.67C239.49 90.91 240.03 91.25 240.3 91.09C240.57 90.93 240.71 90.09 240.3 89.32C239.89 88.55 239.18 88.17 238.77 88.41C238.52 88.55 238.52 89.12 238.56 89.41L234.56 91.58C233.531 90.0394 232.201 88.723 230.65 87.71L232 85.2C232.34 85.27 232.92 85.29 233.06 85.04C233.2 84.79 232.91 84.04 232.23 83.65C231.55 83.26 230.84 83.25 230.62 83.65C230.49 83.87 230.75 84.32 230.93 84.56L229.38 87C227.73 86.1624 225.927 85.6723 224.08 85.56L224 81.06C224.36 80.94 224.92 80.64 224.92 80.32C224.92 79.84 224.23 79.45 223.37 79.45C222.51 79.45 221.82 79.84 221.82 80.32C221.82 80.61 222.31 80.89 222.61 81.02L222.48 85.59C220.633 85.7023 218.83 86.1924 217.18 87.03L215.67 84.57C215.89 84.31 216.2 83.82 216.06 83.57C215.92 83.32 215.11 83.2 214.44 83.57C213.77 83.94 213.44 84.57 213.61 84.96C213.74 85.18 214.26 85.18 214.55 85.14L215.94 87.71C214.39 88.7205 213.062 90.0375 212.04 91.58L208.04 89.43C208.12 89.06 208.14 88.43 207.87 88.27C207.45 88.03 206.77 88.44 206.34 89.18C205.91 89.92 205.9 90.72 206.34 90.96C206.58 91.1 207.08 90.81 207.34 90.62L211.23 93.02C210.401 94.6703 209.924 96.4753 209.83 98.32L206.94 98.41C206.83 98.08 206.56 97.57 206.27 97.57C205.98 97.57 205.48 98.21 205.48 98.98C205.48 99.75 205.84 100.4 206.27 100.4C206.53 100.4 206.79 99.95 206.9 99.67L209.83 99.76C209.925 101.608 210.402 103.416 211.23 105.07L207.37 107.45C207.09 107.2 206.55 106.86 206.27 107.02C205.99 107.18 205.87 108.02 206.27 108.8C206.67 109.58 207.38 109.95 207.8 109.71C208.04 109.56 208.04 108.99 208 108.71L212 106.54C213.023 108.082 214.35 109.399 215.9 110.41L214.53 112.95C214.19 112.88 213.62 112.86 213.47 113.11C213.32 113.36 213.63 114.11 214.3 114.5C214.97 114.89 215.7 114.9 215.92 114.5C216.05 114.28 215.79 113.83 215.61 113.59L217.14 111.1C218.79 111.938 220.593 112.428 222.44 112.54L222.57 117.07C222.22 117.2 221.65 117.5 221.65 117.81C221.65 118.29 222.35 118.68 223.21 118.68C224.07 118.68 224.76 118.29 224.76 117.81C224.76 117.53 224.26 117.24 223.96 117.11L224.09 112.54C225.937 112.428 227.74 111.938 229.39 111.1L230.91 113.56C230.68 113.82 230.38 114.31 230.52 114.56C230.66 114.81 231.46 114.93 232.14 114.56C232.82 114.19 233.14 113.56 232.96 113.17C232.78 112.78 232.31 112.94 232.02 112.98L230.63 110.41C232.181 109.397 233.511 108.081 234.54 106.54L238.54 108.69C238.47 109.06 238.44 109.69 238.72 109.85C239 110.01 239.82 109.69 240.24 108.94C240.66 108.19 240.68 107.4 240.24 107.16C239.99 107.02 239.5 107.31 239.24 107.5L235.35 105.11C236.17 103.453 236.643 101.646 236.74 99.8L239.64 99.7Z" fill="white" stroke="#E8382B" stroke-linecap="round" stroke-linejoin="round"/>
<path d="M224.31 88.75C224.322 89.0272 224.251 89.3016 224.105 89.5379C223.96 89.7743 223.747 89.9617 223.495 90.0762C223.242 90.1907 222.961 90.2269 222.687 90.1802C222.414 90.1336 222.161 90.0061 221.96 89.8143C221.76 89.6226 221.621 89.3752 221.563 89.104C221.504 88.8329 221.528 88.5504 221.631 88.2929C221.734 88.0354 221.912 87.8147 222.142 87.6591C222.372 87.5036 222.643 87.4203 222.92 87.42C223.099 87.4147 223.277 87.445 223.444 87.5092C223.611 87.5734 223.764 87.6703 223.893 87.794C224.023 87.9178 224.126 88.0661 224.198 88.2302C224.269 88.3943 224.307 88.571 224.31 88.75Z" fill="white" stroke="#E8382B" stroke-linecap="round" stroke-linejoin="round"/>
<path d="M215.9 99.47C215.912 99.7472 215.841 100.022 215.696 100.258C215.55 100.494 215.338 100.682 215.085 100.796C214.832 100.911 214.551 100.947 214.278 100.9C214.004 100.854 213.751 100.726 213.55 100.534C213.35 100.343 213.211 100.095 213.153 99.824C213.094 99.5529 213.118 99.2704 213.221 99.0129C213.324 98.7554 213.502 98.5346 213.732 98.3791C213.962 98.2235 214.233 98.1403 214.51 98.14C214.689 98.1347 214.867 98.165 215.034 98.2292C215.201 98.2934 215.354 98.3902 215.483 98.514C215.613 98.6378 215.716 98.786 215.788 98.9502C215.859 99.1143 215.897 99.291 215.9 99.47Z" fill="white" stroke="#E8382B" stroke-linecap="round" stroke-linejoin="round"/>
<path d="M222.13 96C222.144 96.2775 222.075 96.5528 221.931 96.7904C221.787 97.028 221.575 97.217 221.322 97.333C221.07 97.4491 220.788 97.4868 220.514 97.4413C220.24 97.3958 219.986 97.2693 219.785 97.078C219.583 96.8866 219.444 96.6394 219.384 96.368C219.325 96.0966 219.348 95.8136 219.451 95.5555C219.553 95.2975 219.731 95.0761 219.961 94.92C220.191 94.764 220.462 94.6804 220.74 94.68C221.099 94.672 221.447 94.8062 221.707 95.0535C221.968 95.3008 222.12 95.6411 222.13 96Z" fill="white" stroke="#E8382B" stroke-linecap="round" stroke-linejoin="round"/>
<path d="M218.88 107.55C218.894 107.828 218.825 108.103 218.681 108.34C218.537 108.578 218.325 108.767 218.072 108.883C217.82 108.999 217.538 109.037 217.264 108.991C216.99 108.946 216.736 108.819 216.535 108.628C216.333 108.437 216.194 108.189 216.134 107.918C216.075 107.647 216.098 107.364 216.201 107.106C216.303 106.847 216.481 106.626 216.711 106.47C216.941 106.314 217.212 106.23 217.49 106.23C217.849 106.222 218.197 106.356 218.457 106.604C218.718 106.851 218.87 107.191 218.88 107.55Z" fill="white" stroke="#E8382B" stroke-linecap="round" stroke-linejoin="round"/>
<path d="M234.06 102C234.072 102.277 234.001 102.552 233.855 102.788C233.71 103.024 233.497 103.212 233.245 103.326C232.992 103.441 232.711 103.477 232.437 103.43C232.164 103.384 231.911 103.256 231.71 103.064C231.51 102.873 231.371 102.625 231.313 102.354C231.254 102.083 231.278 101.8 231.381 101.543C231.484 101.285 231.662 101.065 231.892 100.909C232.122 100.754 232.393 100.67 232.67 100.67C232.849 100.665 233.027 100.695 233.194 100.759C233.361 100.823 233.514 100.92 233.643 101.044C233.773 101.168 233.876 101.316 233.948 101.48C234.019 101.644 234.057 101.821 234.06 102Z" fill="white" stroke="#E8382B" stroke-linecap="round" stroke-linejoin="round"/>
<path d="M224.1 103.8C224.112 104.077 224.041 104.352 223.895 104.588C223.75 104.824 223.538 105.012 223.285 105.126C223.032 105.241 222.751 105.277 222.477 105.23C222.204 105.184 221.951 105.056 221.75 104.864C221.55 104.673 221.411 104.425 221.353 104.154C221.294 103.883 221.318 103.6 221.421 103.343C221.524 103.085 221.702 102.865 221.932 102.709C222.162 102.554 222.433 102.47 222.71 102.47C222.889 102.465 223.067 102.495 223.234 102.559C223.401 102.623 223.554 102.72 223.683 102.844C223.813 102.968 223.916 103.116 223.988 103.28C224.059 103.444 224.097 103.621 224.1 103.8Z" fill="white" stroke="#E8382B" stroke-linecap="round" stroke-linejoin="round"/>
<path d="M228.61 98.5C228.624 98.7799 228.554 99.0575 228.408 99.297C228.263 99.5365 228.049 99.7268 227.794 99.8433C227.539 99.9598 227.255 99.9971 226.979 99.9504C226.702 99.9038 226.446 99.7753 226.244 99.5815C226.041 99.3878 225.902 99.1378 225.843 98.8638C225.784 98.5898 225.809 98.3045 225.914 98.0447C226.019 97.7849 226.2 97.5627 226.433 97.4068C226.666 97.2508 226.94 97.1684 227.22 97.17C227.399 97.166 227.576 97.1973 227.743 97.262C227.909 97.3267 228.061 97.4235 228.191 97.547C228.32 97.6705 228.423 97.8183 228.495 97.9818C228.567 98.1453 228.606 98.3214 228.61 98.5Z" fill="white" stroke="#E8382B" stroke-linecap="round" stroke-linejoin="round"/>
<path d="M232 92.3199C232.014 92.5961 231.945 92.8701 231.802 93.107C231.659 93.3438 231.449 93.5327 231.199 93.6495C230.948 93.7663 230.668 93.8056 230.395 93.7625C230.122 93.7195 229.868 93.5959 229.665 93.4076C229.463 93.2193 229.321 92.9749 229.258 92.7056C229.195 92.4363 229.214 92.1544 229.312 91.8959C229.41 91.6374 229.584 91.4141 229.809 91.2544C230.035 91.0948 230.303 91.0062 230.58 90.9999C230.76 90.9919 230.94 91.0198 231.11 91.082C231.279 91.1443 231.434 91.2396 231.566 91.3624C231.699 91.4853 231.805 91.6332 231.879 91.7976C231.954 91.962 231.995 92.1395 232 92.3199Z" fill="white" stroke="#E8382B" stroke-linecap="round" stroke-linejoin="round"/>
<path d="M228.76 108.22C228.774 108.5 228.704 108.778 228.558 109.017C228.413 109.256 228.199 109.447 227.944 109.563C227.689 109.68 227.405 109.717 227.129 109.67C226.852 109.624 226.596 109.495 226.394 109.302C226.191 109.108 226.052 108.858 225.993 108.584C225.934 108.31 225.959 108.024 226.064 107.765C226.169 107.505 226.35 107.283 226.583 107.127C226.815 106.971 227.09 106.888 227.37 106.89C227.549 106.886 227.726 106.917 227.893 106.982C228.059 107.047 228.211 107.143 228.34 107.267C228.47 107.391 228.573 107.538 228.645 107.702C228.717 107.865 228.756 108.041 228.76 108.22Z" fill="white" stroke="#E8382B" stroke-linecap="round" stroke-linejoin="round"/>
<path d="M217.36 91.1201C217.372 91.3985 217.3 91.6741 217.153 91.9111C217.007 92.1481 216.792 92.3356 216.538 92.4491C216.283 92.5627 216.001 92.5972 215.726 92.548C215.452 92.4989 215.199 92.3684 214.999 92.1736C214.8 91.9787 214.664 91.7285 214.609 91.4553C214.554 91.1822 214.582 90.8987 214.69 90.6418C214.798 90.3848 214.98 90.1662 215.214 90.0143C215.447 89.8625 215.721 89.7843 216 89.7901C216.356 89.7874 216.699 89.9257 216.954 90.1749C217.209 90.424 217.355 90.7638 217.36 91.1201Z" fill="white" stroke="#E8382B" stroke-linecap="round" stroke-linejoin="round"/>
<path d="M437.33 321.76C437.44 322.09 437.71 322.6 438 322.6C438.29 322.6 438.79 321.97 438.79 321.19C438.79 320.41 438.44 319.78 438 319.78C437.74 319.78 437.48 320.23 437.37 320.5L434.44 320.41C434.345 318.562 433.868 316.754 433.04 315.1L436.9 312.73C437.19 312.97 437.73 313.31 438 313.15C438.27 312.99 438.4 312.15 438 311.38C437.6 310.61 436.89 310.23 436.47 310.47C436.23 310.61 436.23 311.18 436.27 311.47L432.27 313.64C431.247 312.098 429.92 310.781 428.37 309.77L429.74 307.23C430.08 307.3 430.65 307.32 430.8 307.07C430.95 306.82 430.65 306.07 429.97 305.68C429.29 305.29 428.57 305.28 428.35 305.68C428.22 305.9 428.48 306.35 428.66 306.59L427.13 309.08C425.48 308.242 423.677 307.752 421.83 307.64L421.7 303.11C422.05 302.98 422.62 302.69 422.62 302.37C422.62 301.89 421.92 301.5 421.07 301.5C420.22 301.5 419.51 301.89 419.51 302.37C419.51 302.66 420.01 302.94 420.31 303.07L420.18 307.64C418.333 307.752 416.529 308.242 414.88 309.08L413.36 306.62C413.59 306.36 413.89 305.87 413.75 305.62C413.61 305.37 412.81 305.26 412.13 305.62C411.45 305.98 411.13 306.62 411.31 307.01C411.44 307.23 411.96 307.23 412.25 307.19L413.64 309.76C412.089 310.773 410.759 312.089 409.73 313.63L405.73 311.48C405.8 311.11 405.83 310.48 405.55 310.32C405.27 310.16 404.45 310.49 404.03 311.23C403.61 311.97 403.59 312.77 404.03 313.01C404.28 313.15 404.77 312.86 405.03 312.67L408.92 315.07C408.098 316.723 407.625 318.527 407.53 320.37L404.64 320.46C404.52 320.13 404.25 319.62 403.97 319.62C403.53 319.62 403.18 320.25 403.18 321.03C403.18 321.81 403.53 322.44 403.97 322.44C404.23 322.44 404.49 321.99 404.6 321.72L407.53 321.81C407.626 323.656 408.099 325.463 408.92 327.12L405 329.53C404.71 329.29 404.17 328.95 403.9 329.11C403.48 329.35 403.5 330.11 403.9 330.88C404.3 331.65 405.02 332.03 405.43 331.79C405.68 331.65 405.68 331.08 405.64 330.79L409.64 328.62C410.669 330.161 411.999 331.477 413.55 332.49L412.22 335C411.88 334.93 411.3 334.91 411.16 335.16C411.02 335.41 411.31 336.16 411.99 336.55C412.67 336.94 413.39 336.95 413.6 336.55C413.73 336.33 413.47 335.88 413.29 335.64L414.83 333.15C416.479 333.988 418.283 334.478 420.13 334.59L420.26 339.12C419.9 339.25 419.34 339.54 419.34 339.86C419.34 340.34 420.03 340.73 420.89 340.73C421.75 340.73 422.44 340.34 422.44 339.86C422.44 339.57 421.95 339.29 421.65 339.16L421.78 334.59C423.627 334.478 425.43 333.988 427.08 333.15L428.6 335.61C428.37 335.87 428.06 336.36 428.21 336.61C428.36 336.86 429.15 336.97 429.82 336.61C430.49 336.25 430.87 335.61 430.65 335.22C430.52 335 430 335 429.71 335.04L428.32 332.47C429.87 331.459 431.197 330.142 432.22 328.6L436.22 330.75C436.14 331.12 436.12 331.75 436.39 331.91C436.81 332.15 437.49 331.74 437.92 331C438.35 330.26 438.36 329.46 437.92 329.22C437.68 329.08 437.18 329.37 436.92 329.56L433.03 327.16C433.859 325.51 434.336 323.705 434.43 321.86L437.33 321.76Z" fill="white" stroke="#E8382B" stroke-linecap="round" stroke-linejoin="round"/>
<path d="M422 310.81C422.014 311.09 421.944 311.367 421.799 311.606C421.654 311.845 421.44 312.036 421.186 312.152C420.932 312.269 420.648 312.307 420.372 312.261C420.096 312.215 419.84 312.088 419.637 311.895C419.435 311.702 419.294 311.453 419.234 311.18C419.174 310.907 419.198 310.622 419.301 310.362C419.405 310.102 419.584 309.879 419.815 309.722C420.047 309.565 420.32 309.48 420.6 309.48C420.779 309.475 420.958 309.505 421.126 309.569C421.293 309.633 421.447 309.73 421.577 309.853C421.707 309.977 421.811 310.125 421.884 310.289C421.957 310.454 421.996 310.631 422 310.81Z" fill="white" stroke="#E8382B" stroke-linecap="round" stroke-linejoin="round"/>
<path d="M413.6 321.53C413.614 321.81 413.544 322.088 413.398 322.327C413.253 322.567 413.039 322.757 412.784 322.873C412.529 322.99 412.245 323.027 411.969 322.98C411.692 322.934 411.436 322.805 411.234 322.612C411.031 322.418 410.892 322.168 410.833 321.894C410.774 321.62 410.799 321.334 410.904 321.075C411.009 320.815 411.19 320.593 411.423 320.437C411.656 320.281 411.93 320.198 412.21 320.2C412.389 320.196 412.566 320.227 412.733 320.292C412.899 320.357 413.051 320.454 413.181 320.577C413.31 320.701 413.413 320.848 413.485 321.012C413.557 321.175 413.596 321.351 413.6 321.53Z" fill="white" stroke="#E8382B" stroke-linecap="round" stroke-linejoin="round"/>
<path d="M419.83 318.08C419.846 318.36 419.777 318.639 419.633 318.879C419.489 319.12 419.276 319.312 419.021 319.43C418.767 319.548 418.482 319.587 418.205 319.541C417.929 319.496 417.672 319.368 417.468 319.175C417.265 318.982 417.124 318.732 417.064 318.458C417.005 318.183 417.029 317.898 417.133 317.637C417.238 317.377 417.419 317.154 417.652 316.998C417.885 316.841 418.159 316.758 418.44 316.76C418.798 316.754 419.144 316.89 419.404 317.136C419.664 317.383 419.817 317.722 419.83 318.08Z" fill="white" stroke="#E8382B" stroke-linecap="round" stroke-linejoin="round"/>
<path d="M416.58 329.61C416.594 329.887 416.525 330.163 416.381 330.4C416.237 330.638 416.025 330.827 415.772 330.943C415.52 331.059 415.238 331.097 414.964 331.051C414.69 331.006 414.436 330.879 414.235 330.688C414.033 330.497 413.894 330.249 413.834 329.978C413.775 329.706 413.798 329.424 413.9 329.165C414.003 328.907 414.181 328.686 414.411 328.53C414.641 328.374 414.912 328.29 415.19 328.29C415.549 328.282 415.897 328.416 416.157 328.663C416.418 328.911 416.57 329.251 416.58 329.61Z" fill="white" stroke="#E8382B" stroke-linecap="round" stroke-linejoin="round"/>
<path d="M431.76 324.05C431.774 324.33 431.704 324.607 431.559 324.846C431.414 325.085 431.2 325.276 430.946 325.392C430.692 325.509 430.408 325.547 430.132 325.501C429.856 325.455 429.6 325.328 429.398 325.135C429.195 324.942 429.054 324.693 428.994 324.42C428.934 324.147 428.958 323.862 429.061 323.602C429.165 323.342 429.344 323.119 429.576 322.962C429.807 322.805 430.08 322.72 430.36 322.72C430.54 322.715 430.718 322.745 430.886 322.809C431.054 322.873 431.207 322.97 431.337 323.093C431.467 323.217 431.572 323.365 431.644 323.529C431.717 323.694 431.756 323.871 431.76 324.05Z" fill="white" stroke="#E8382B" stroke-linecap="round" stroke-linejoin="round"/>
<path d="M421.8 325.86C421.814 326.14 421.744 326.418 421.598 326.657C421.453 326.897 421.239 327.087 420.984 327.203C420.729 327.32 420.445 327.357 420.169 327.311C419.892 327.264 419.636 327.135 419.434 326.942C419.231 326.748 419.092 326.498 419.033 326.224C418.974 325.95 418.999 325.665 419.104 325.405C419.209 325.145 419.39 324.923 419.623 324.767C419.855 324.611 420.13 324.528 420.41 324.53C420.589 324.526 420.766 324.557 420.933 324.622C421.099 324.687 421.251 324.784 421.381 324.907C421.51 325.031 421.613 325.178 421.685 325.342C421.757 325.505 421.796 325.681 421.8 325.86Z" fill="white" stroke="#E8382B" stroke-linecap="round" stroke-linejoin="round"/>
<path d="M426.3 320.56C426.312 320.837 426.241 321.112 426.095 321.348C425.95 321.584 425.737 321.772 425.485 321.886C425.232 322.001 424.951 322.037 424.677 321.99C424.404 321.944 424.151 321.816 423.95 321.624C423.75 321.433 423.611 321.185 423.553 320.914C423.494 320.643 423.518 320.36 423.621 320.103C423.724 319.845 423.902 319.625 424.132 319.469C424.362 319.314 424.633 319.23 424.91 319.23C425.089 319.225 425.267 319.255 425.434 319.319C425.601 319.383 425.754 319.48 425.883 319.604C426.013 319.728 426.116 319.876 426.188 320.04C426.259 320.204 426.297 320.381 426.3 320.56Z" fill="white" stroke="#E8382B" stroke-linecap="round" stroke-linejoin="round"/>
<path d="M429.67 314.38C429.684 314.659 429.614 314.937 429.469 315.176C429.324 315.415 429.11 315.605 428.856 315.722C428.602 315.839 428.318 315.877 428.042 315.831C427.766 315.785 427.51 315.658 427.308 315.465C427.105 315.272 426.964 315.023 426.904 314.75C426.844 314.477 426.868 314.192 426.971 313.932C427.075 313.672 427.254 313.449 427.486 313.292C427.717 313.134 427.99 313.05 428.27 313.05C428.632 313.042 428.982 313.177 429.244 313.426C429.507 313.676 429.66 314.018 429.67 314.38Z" fill="white" stroke="#E8382B" stroke-linecap="round" stroke-linejoin="round"/>
<path d="M426.45 330.28C426.462 330.557 426.391 330.832 426.246 331.068C426.1 331.304 425.888 331.492 425.635 331.606C425.382 331.721 425.101 331.757 424.828 331.71C424.554 331.664 424.301 331.536 424.1 331.344C423.9 331.153 423.762 330.905 423.703 330.634C423.644 330.363 423.668 330.08 423.771 329.823C423.874 329.565 424.052 329.345 424.282 329.189C424.512 329.034 424.783 328.95 425.06 328.95C425.239 328.945 425.417 328.975 425.584 329.039C425.751 329.103 425.904 329.2 426.034 329.324C426.163 329.448 426.266 329.596 426.338 329.76C426.409 329.924 426.448 330.101 426.45 330.28Z" fill="white" stroke="#E8382B" stroke-linecap="round" stroke-linejoin="round"/>
<path d="M415.06 313.18C415.074 313.459 415.004 313.737 414.859 313.976C414.714 314.215 414.5 314.405 414.246 314.522C413.992 314.639 413.708 314.677 413.432 314.631C413.156 314.585 412.9 314.458 412.697 314.265C412.495 314.072 412.354 313.823 412.294 313.55C412.234 313.277 412.258 312.992 412.361 312.732C412.465 312.472 412.644 312.249 412.875 312.092C413.107 311.934 413.38 311.85 413.66 311.85C413.839 311.845 414.018 311.875 414.186 311.939C414.354 312.003 414.507 312.1 414.637 312.223C414.767 312.347 414.872 312.495 414.944 312.659C415.017 312.824 415.056 313 415.06 313.18Z" fill="white" stroke="#E8382B" stroke-linecap="round" stroke-linejoin="round"/>
<path d="M69.8999 275.43C69.6347 275.43 69.3803 275.325 69.1928 275.137C69.0053 274.949 68.8999 274.695 68.8999 274.43V267.91C68.8999 267.645 69.0053 267.39 69.1928 267.203C69.3803 267.015 69.6347 266.91 69.8999 266.91C70.1651 266.91 70.4195 267.015 70.607 267.203C70.7945 267.39 70.8999 267.645 70.8999 267.91V274.43C70.8999 274.695 70.7945 274.949 70.607 275.137C70.4195 275.325 70.1651 275.43 69.8999 275.43Z" fill="#E8382B"/>
<path d="M73.1601 272.17H66.6401C66.3749 272.17 66.1206 272.065 65.933 271.877C65.7455 271.689 65.6401 271.435 65.6401 271.17C65.6401 270.905 65.7455 270.65 65.933 270.463C66.1206 270.275 66.3749 270.17 66.6401 270.17H73.1601C73.4254 270.17 73.6797 270.275 73.8672 270.463C74.0548 270.65 74.1601 270.905 74.1601 271.17C74.1601 271.435 74.0548 271.689 73.8672 271.877C73.6797 272.065 73.4254 272.17 73.1601 272.17Z" fill="#E8382B"/>
<path d="M47.3 147.11C46.9703 147.11 46.6538 146.98 46.4197 146.747C46.1855 146.515 46.0527 146.2 46.05 145.87V137.76C46.0779 137.449 46.2212 137.16 46.4516 136.949C46.682 136.738 46.9829 136.622 47.295 136.622C47.6072 136.622 47.9081 136.738 48.1385 136.949C48.3689 137.16 48.5122 137.449 48.5401 137.76V145.87C48.5374 146.198 48.406 146.512 48.174 146.744C47.942 146.976 47.6281 147.107 47.3 147.11Z" fill="#E8382B"/>
<path d="M51.3501 143.06H43.2401C42.9292 143.032 42.6399 142.889 42.4293 142.659C42.2186 142.428 42.1018 142.127 42.1018 141.815C42.1018 141.503 42.2186 141.202 42.4293 140.972C42.6399 140.741 42.9292 140.598 43.2401 140.57H51.3501C51.661 140.598 51.9503 140.741 52.1609 140.972C52.3716 141.202 52.4884 141.503 52.4884 141.815C52.4884 142.127 52.3716 142.428 52.1609 142.659C51.9503 142.889 51.661 143.032 51.3501 143.06Z" fill="#E8382B"/>
<path d="M406.76 110.35C406.495 110.35 406.24 110.245 406.053 110.057C405.865 109.87 405.76 109.615 405.76 109.35V102.83C405.76 102.565 405.865 102.311 406.053 102.123C406.24 101.935 406.495 101.83 406.76 101.83C407.025 101.83 407.28 101.935 407.467 102.123C407.655 102.311 407.76 102.565 407.76 102.83V109.35C407.76 109.615 407.655 109.87 407.467 110.057C407.28 110.245 407.025 110.35 406.76 110.35Z" fill="#E8382B"/>
<path d="M410 107.09H403.5C403.235 107.09 402.98 106.985 402.793 106.797C402.605 106.61 402.5 106.355 402.5 106.09C402.5 105.825 402.605 105.571 402.793 105.383C402.98 105.195 403.235 105.09 403.5 105.09H410C410.265 105.09 410.52 105.195 410.707 105.383C410.895 105.571 411 105.825 411 106.09C411 106.355 410.895 106.61 410.707 106.797C410.52 106.985 410.265 107.09 410 107.09Z" fill="#E8382B"/>
<path d="M180.1 87C179.835 87 179.581 86.8946 179.393 86.7071C179.205 86.5196 179.1 86.2652 179.1 86V79.5C179.1 79.2348 179.205 78.9804 179.393 78.7929C179.581 78.6054 179.835 78.5 180.1 78.5C180.365 78.5 180.62 78.6054 180.807 78.7929C180.995 78.9804 181.1 79.2348 181.1 79.5V86C181.1 86.2652 180.995 86.5196 180.807 86.7071C180.62 86.8946 180.365 87 180.1 87Z" fill="#E8382B"/>
<path d="M183.36 83.76H176.84C176.575 83.76 176.321 83.6547 176.133 83.4671C175.945 83.2796 175.84 83.0252 175.84 82.76C175.84 82.4948 175.945 82.2404 176.133 82.0529C176.321 81.8654 176.575 81.76 176.84 81.76H183.36C183.625 81.76 183.88 81.8654 184.067 82.0529C184.255 82.2404 184.36 82.4948 184.36 82.76C184.36 83.0252 184.255 83.2796 184.067 83.4671C183.88 83.6547 183.625 83.76 183.36 83.76Z" fill="#E8382B"/>
<path d="M43.53 243.73C43.2648 243.73 43.0105 243.625 42.8229 243.437C42.6354 243.25 42.53 242.995 42.53 242.73V236.21C42.53 235.945 42.6354 235.69 42.8229 235.503C43.0105 235.315 43.2648 235.21 43.53 235.21C43.7952 235.21 44.0496 235.315 44.2371 235.503C44.4247 235.69 44.53 235.945 44.53 236.21V242.73C44.53 242.995 44.4247 243.25 44.2371 243.437C44.0496 243.625 43.7952 243.73 43.53 243.73Z" fill="#E8382B"/>
<path d="M46.79 240.47H40.27C40.0048 240.47 39.7504 240.365 39.5629 240.177C39.3754 239.99 39.27 239.735 39.27 239.47C39.27 239.205 39.3754 238.95 39.5629 238.763C39.7504 238.575 40.0048 238.47 40.27 238.47H46.79C47.0552 238.47 47.3096 238.575 47.4971 238.763C47.6847 238.95 47.79 239.205 47.79 239.47C47.79 239.735 47.6847 239.99 47.4971 240.177C47.3096 240.365 47.0552 240.47 46.79 240.47Z" fill="#E8382B"/>
<path d="M124.84 411.61C124.575 411.61 124.321 411.505 124.133 411.317C123.945 411.13 123.84 410.875 123.84 410.61V404.09C123.84 403.825 123.945 403.571 124.133 403.383C124.321 403.195 124.575 403.09 124.84 403.09C125.105 403.09 125.36 403.195 125.547 403.383C125.735 403.571 125.84 403.825 125.84 404.09V410.61C125.84 410.875 125.735 411.13 125.547 411.317C125.36 411.505 125.105 411.61 124.84 411.61Z" fill="#E8382B"/>
<path d="M128.1 408.35H121.57C121.305 408.35 121.05 408.245 120.863 408.057C120.675 407.87 120.57 407.615 120.57 407.35C120.57 407.085 120.675 406.831 120.863 406.643C121.05 406.455 121.305 406.35 121.57 406.35H128.1C128.365 406.35 128.62 406.455 128.807 406.643C128.995 406.831 129.1 407.085 129.1 407.35C129.1 407.615 128.995 407.87 128.807 408.057C128.62 408.245 128.365 408.35 128.1 408.35Z" fill="#E8382B"/>
<path d="M389.42 401.13C389.155 401.13 388.9 401.025 388.713 400.837C388.525 400.649 388.42 400.395 388.42 400.13V393.61C388.42 393.345 388.525 393.09 388.713 392.903C388.9 392.715 389.155 392.61 389.42 392.61C389.685 392.61 389.939 392.715 390.127 392.903C390.315 393.09 390.42 393.345 390.42 393.61V400.13C390.42 400.395 390.315 400.649 390.127 400.837C389.939 401.025 389.685 401.13 389.42 401.13Z" fill="#E8382B"/>
<path d="M392.68 397.87H386.16C385.895 397.87 385.641 397.765 385.453 397.577C385.265 397.39 385.16 397.135 385.16 396.87C385.16 396.605 385.265 396.351 385.453 396.163C385.641 395.975 385.895 395.87 386.16 395.87H392.68C392.945 395.87 393.2 395.975 393.387 396.163C393.575 396.351 393.68 396.605 393.68 396.87C393.68 397.135 393.575 397.39 393.387 397.577C393.2 397.765 392.945 397.87 392.68 397.87Z" fill="#E8382B"/>
<path d="M55.8 382.84C55.5348 382.84 55.2805 382.735 55.0929 382.547C54.9054 382.36 54.8 382.105 54.8 381.84V375.31C54.8 375.045 54.9054 374.791 55.0929 374.603C55.2805 374.415 55.5348 374.31 55.8 374.31C56.0653 374.31 56.3196 374.415 56.5072 374.603C56.6947 374.791 56.8 375.045 56.8 375.31V381.84C56.8 382.105 56.6947 382.36 56.5072 382.547C56.3196 382.735 56.0653 382.84 55.8 382.84Z" fill="#E8382B"/>
<path d="M59.06 379.58H52.54C52.2748 379.58 52.0205 379.475 51.8329 379.287C51.6454 379.1 51.54 378.845 51.54 378.58C51.54 378.315 51.6454 378.061 51.8329 377.873C52.0205 377.685 52.2748 377.58 52.54 377.58H59.06C59.3253 377.58 59.5796 377.685 59.7671 377.873C59.9547 378.061 60.06 378.315 60.06 378.58C60.06 378.845 59.9547 379.1 59.7671 379.287C59.5796 379.475 59.3253 379.58 59.06 379.58Z" fill="#E8382B"/>
<path d="M92.43 288.35C91.7037 288.35 90.9938 288.135 90.39 287.731C89.7863 287.327 89.3159 286.753 89.0384 286.082C88.7609 285.411 88.6888 284.673 88.8313 283.96C88.9737 283.248 89.3242 282.594 89.8385 282.081C90.3527 281.569 91.0076 281.22 91.7202 281.079C92.4327 280.939 93.171 281.013 93.8414 281.292C94.5118 281.572 95.0843 282.044 95.4864 282.648C95.8884 283.253 96.102 283.964 96.1 284.69C96.0973 285.662 95.7095 286.593 95.0216 287.279C94.3336 287.965 93.4016 288.35 92.43 288.35ZM92.43 283.02C92.0997 283.02 91.7768 283.118 91.5022 283.301C91.2276 283.485 91.0135 283.746 90.8871 284.051C90.7607 284.356 90.7277 284.692 90.7921 285.016C90.8565 285.34 91.0156 285.637 91.2491 285.871C91.4827 286.104 91.7803 286.263 92.1042 286.328C92.4281 286.392 92.7639 286.359 93.0691 286.233C93.3742 286.106 93.6351 285.892 93.8186 285.618C94.0021 285.343 94.1 285.02 94.1 284.69C94.1026 284.469 94.0614 284.25 93.9787 284.045C93.8959 283.84 93.7733 283.653 93.618 283.496C93.4627 283.339 93.2777 283.214 93.0737 283.129C92.8698 283.044 92.651 283 92.43 283V283.02Z" fill="#E8382B"/>
<path d="M287.76 103.92C287.187 103.918 286.627 103.746 286.152 103.427C285.676 103.107 285.306 102.653 285.088 102.123C284.87 101.593 284.814 101.01 284.927 100.448C285.04 99.8864 285.317 99.3706 285.723 98.966C286.129 98.5614 286.646 98.2862 287.208 98.1751C287.77 98.064 288.353 98.122 288.882 98.3418C289.412 98.5616 289.864 98.9333 290.182 99.41C290.5 99.8867 290.67 100.447 290.67 101.02C290.67 101.402 290.595 101.78 290.448 102.132C290.302 102.485 290.088 102.805 289.817 103.074C289.547 103.344 289.226 103.557 288.873 103.702C288.52 103.847 288.142 103.921 287.76 103.92ZM287.76 99.7001C287.499 99.7001 287.244 99.7775 287.027 99.9226C286.81 100.068 286.64 100.274 286.541 100.515C286.441 100.756 286.415 101.022 286.465 101.278C286.516 101.534 286.642 101.769 286.827 101.953C287.011 102.138 287.247 102.264 287.503 102.315C287.759 102.366 288.024 102.34 288.265 102.24C288.506 102.14 288.713 101.971 288.858 101.753C289.003 101.536 289.08 101.281 289.08 101.02C289.077 100.671 288.938 100.337 288.691 100.09C288.444 99.8426 288.109 99.7027 287.76 99.7001Z" fill="#E8382B"/>
<path d="M394.43 309C393.704 309 392.995 308.785 392.391 308.381C391.788 307.978 391.317 307.405 391.039 306.734C390.762 306.064 390.689 305.326 390.831 304.614C390.972 303.902 391.322 303.248 391.835 302.735C392.348 302.222 393.002 301.872 393.714 301.73C394.426 301.589 395.164 301.661 395.834 301.939C396.505 302.217 397.078 302.687 397.482 303.291C397.885 303.894 398.1 304.604 398.1 305.33C398.1 306.303 397.713 307.237 397.025 307.925C396.337 308.613 395.403 309 394.43 309ZM394.43 303.67C394.099 303.67 393.776 303.768 393.501 303.952C393.226 304.136 393.012 304.397 392.886 304.703C392.76 305.009 392.728 305.345 392.793 305.669C392.858 305.994 393.018 306.291 393.253 306.524C393.487 306.757 393.786 306.916 394.11 306.979C394.435 307.042 394.771 307.008 395.076 306.88C395.381 306.752 395.641 306.536 395.823 306.26C396.006 305.984 396.102 305.661 396.1 305.33C396.095 304.891 395.916 304.473 395.603 304.165C395.29 303.858 394.869 303.687 394.43 303.69V303.67Z" fill="#E8382B"/>
<path d="M97.7999 444.15C96.5895 444.15 95.4063 443.791 94.3998 443.119C93.3934 442.446 92.609 441.49 92.1458 440.372C91.6826 439.254 91.5614 438.023 91.7975 436.836C92.0337 435.649 92.6165 434.558 93.4724 433.702C94.3283 432.847 95.4188 432.264 96.606 432.028C97.7931 431.791 99.0237 431.913 100.142 432.376C101.26 432.839 102.216 433.623 102.889 434.63C103.561 435.636 103.92 436.819 103.92 438.03C103.92 439.653 103.275 441.21 102.127 442.357C100.98 443.505 99.4231 444.15 97.7999 444.15ZM97.7999 435.26C97.2497 435.26 96.7118 435.423 96.2544 435.729C95.797 436.035 95.4407 436.47 95.2306 436.978C95.0205 437.487 94.966 438.046 95.0741 438.586C95.1822 439.125 95.448 439.621 95.8377 440.009C96.2275 440.398 96.7238 440.662 97.2637 440.768C97.8037 440.874 98.3629 440.817 98.8707 440.605C99.3785 440.393 99.812 440.036 100.116 439.577C100.421 439.119 100.582 438.58 100.58 438.03C100.577 437.294 100.283 436.59 99.7622 436.071C99.2411 435.551 98.5355 435.26 97.7999 435.26Z" fill="#E8382B"/>
<path d="M449.65 184.68C448.442 184.68 447.26 184.322 446.255 183.65C445.251 182.979 444.468 182.025 444.005 180.908C443.543 179.792 443.422 178.563 443.657 177.378C443.893 176.193 444.475 175.104 445.33 174.25C446.184 173.395 447.273 172.813 448.458 172.577C449.643 172.342 450.872 172.463 451.988 172.925C453.105 173.388 454.059 174.171 454.73 175.175C455.402 176.18 455.76 177.362 455.76 178.57C455.757 180.19 455.113 181.742 453.968 182.887C452.822 184.033 451.27 184.677 449.65 184.68ZM449.65 175.79C449.1 175.79 448.563 175.953 448.106 176.258C447.648 176.564 447.292 176.998 447.082 177.506C446.871 178.014 446.816 178.573 446.923 179.112C447.031 179.652 447.295 180.147 447.684 180.536C448.073 180.925 448.568 181.189 449.108 181.297C449.647 181.404 450.206 181.349 450.714 181.138C451.222 180.928 451.656 180.572 451.962 180.114C452.267 179.657 452.43 179.12 452.43 178.57C452.427 177.833 452.134 177.128 451.613 176.607C451.092 176.086 450.387 175.793 449.65 175.79Z" fill="#E8382B"/>
<path d="M294.76 285.69C294.034 285.69 293.325 285.475 292.721 285.072C292.118 284.668 291.647 284.095 291.369 283.425C291.092 282.754 291.019 282.016 291.161 281.304C291.302 280.592 291.652 279.938 292.165 279.425C292.678 278.912 293.332 278.562 294.044 278.421C294.756 278.279 295.494 278.352 296.165 278.629C296.835 278.907 297.408 279.378 297.812 279.981C298.215 280.585 298.43 281.294 298.43 282.02C298.43 282.993 298.043 283.927 297.355 284.615C296.667 285.303 295.733 285.69 294.76 285.69ZM294.76 280.35C294.43 280.35 294.107 280.448 293.832 280.632C293.558 280.815 293.344 281.076 293.217 281.381C293.091 281.686 293.058 282.022 293.122 282.346C293.187 282.67 293.346 282.967 293.579 283.201C293.813 283.435 294.11 283.594 294.434 283.658C294.758 283.722 295.094 283.689 295.399 283.563C295.704 283.437 295.965 283.223 296.149 282.948C296.332 282.673 296.43 282.35 296.43 282.02C296.431 281.8 296.389 281.583 296.306 281.379C296.222 281.176 296.099 280.992 295.944 280.836C295.789 280.681 295.604 280.558 295.401 280.475C295.198 280.391 294.98 280.349 294.76 280.35Z" fill="#E8382B"/>
<path d="M248 128.18C247.273 128.182 246.562 127.968 245.957 127.566C245.352 127.163 244.88 126.59 244.601 125.919C244.322 125.248 244.249 124.509 244.39 123.797C244.531 123.084 244.881 122.429 245.395 121.915C245.909 121.401 246.564 121.051 247.277 120.91C247.989 120.769 248.728 120.842 249.399 121.121C250.07 121.4 250.643 121.872 251.046 122.477C251.448 123.082 251.662 123.793 251.66 124.52C251.66 125.491 251.274 126.422 250.588 127.108C249.902 127.794 248.971 128.18 248 128.18ZM248 122.85C247.669 122.848 247.345 122.944 247.07 123.127C246.794 123.309 246.578 123.569 246.45 123.874C246.322 124.179 246.288 124.515 246.351 124.84C246.414 125.164 246.572 125.463 246.806 125.697C247.039 125.932 247.336 126.092 247.661 126.157C247.985 126.222 248.321 126.19 248.627 126.064C248.933 125.938 249.194 125.724 249.378 125.449C249.562 125.174 249.66 124.851 249.66 124.52C249.66 124.079 249.485 123.656 249.174 123.343C248.863 123.03 248.441 122.853 248 122.85Z" fill="#E8382B"/>
<path d="M412.435 257.42C449.211 220.644 449.211 161.019 412.435 124.243C375.66 87.4674 316.035 87.4674 279.259 124.243C242.483 161.019 242.483 220.644 279.259 257.42C316.035 294.195 375.66 294.195 412.435 257.42Z" fill="#38A7BB"/>
<path d="M297.82 271.85C310.621 279.444 325.039 283.896 339.892 284.841C354.745 285.787 369.611 283.199 383.272 277.29C396.932 271.381 408.997 262.319 418.479 250.847C427.961 239.375 434.589 225.819 437.82 211.29H419.22V219.4H431.11V228.59H405.16V197.77H400.83V236.7H391.64V218.86H385.69V272.93H329.46V255.63H350V207.51H298.64V255.63H319.18V271.85H297.82Z" fill="#263238"/>
<mask id="mask0_655_597" style="mask-type:luminance" maskUnits="userSpaceOnUse" x="253" y="76" width="219" height="219">
<path d="M428.73 232.6C438.975 212.256 441.382 188.856 435.495 166.853C429.607 144.85 415.835 125.779 396.8 113.27V76.21H296.45V112.27C278.128 123.807 264.416 141.385 257.686 161.964C250.956 182.543 251.632 204.827 259.596 224.96C267.561 245.093 282.313 261.809 301.3 272.214C320.287 282.619 342.314 286.06 363.57 281.94V294.51H471.09V232.6H428.73Z" fill="white"/>
</mask>
<g mask="url(#mask0_655_597)">
<path d="M352.36 178.12L382.5 197.48L340.26 247.42L313.64 223.44L352.36 178.12Z" fill="#263238" stroke="#263238" stroke-linecap="round" stroke-linejoin="round"/>
<path d="M363.58 184.5L365.56 182.08L372.6 186.48L370.18 189.34L363.58 184.5Z" fill="white" stroke="#263238" stroke-linecap="round" stroke-linejoin="round"/>
<path d="M352.14 182.3L377.22 198.8L339.38 244.34L317.38 223.22L352.14 182.3Z" fill="white" stroke="#263238" stroke-linecap="round" stroke-linejoin="round"/>
<path d="M350.96 191.32L365.96 202.87" stroke="#263238" stroke-linecap="round" stroke-linejoin="round"/>
<path d="M347.67 195.36L362.68 206.9" stroke="#263238" stroke-linecap="round" stroke-linejoin="round"/>
<path d="M344.39 199.4L359.4 210.94" stroke="#263238" stroke-linecap="round" stroke-linejoin="round"/>
<path d="M341.11 203.43L356.11 214.98" stroke="#263238" stroke-linecap="round" stroke-linejoin="round"/>
<path d="M337.83 207.47L352.83 219.01" stroke="#263238" stroke-linecap="round" stroke-linejoin="round"/>
<path d="M334.55 211.51L349.55 223.05" stroke="#263238" stroke-linecap="round" stroke-linejoin="round"/>
<path d="M331.27 215.55L346.27 227.09" stroke="#263238" stroke-linecap="round" stroke-linejoin="round"/>
<path d="M327.99 219.58L342.99 231.13" stroke="#263238" stroke-linecap="round" stroke-linejoin="round"/>
<path d="M360.72 182.96L357.64 186.7L370.4 194.4L373.26 190.88L360.72 182.96Z" fill="white" stroke="#263238" stroke-linecap="round" stroke-linejoin="round"/>
<path d="M319.8 204.52C319.8 204.52 328.16 198.8 330.58 198.8C333 198.8 345.58 199.9 344.44 201.88C343.3 203.86 342.68 205.18 339.6 205.4C336.52 205.62 331.9 205.4 331.9 205.4C331.9 205.4 328.82 208.26 326.18 208.92C323.54 209.58 323.76 211.12 323.76 211.12L319.8 204.52Z" fill="#949494" stroke="#263238" stroke-linecap="round" stroke-linejoin="round"/>
<path d="M287.24 138.09C287.24 138.09 271.08 151 264.81 160.85C258.54 170.7 244.35 200.78 244.35 212.66V290.86H321.89C321.89 290.86 316.94 220.86 315.95 204.41C314.96 187.96 312.32 170.09 312.32 170.09L287.24 138.09Z" fill="white" stroke="#263238" stroke-linecap="round" stroke-linejoin="round"/>
<path d="M300.75 130.16L293.75 139.16L312.44 161.47L323.09 148.61C323.09 148.61 329.52 132.13 322.29 124.09C315.06 116.05 305.57 125.14 300.75 130.16Z" fill="white" stroke="#263238" stroke-linecap="round" stroke-linejoin="round"/>
<path d="M323.06 148.65C323.06 148.65 329.49 132.17 322.26 124.13C321.272 122.986 320.033 122.086 318.64 121.5C318.22 122.39 317.64 123.3 317.16 122.98C317.128 122.307 317.037 121.638 316.89 120.98C313.69 120.5 310.39 121.98 307.44 124.11C307.143 126.12 307.445 128.172 308.31 130.01C309.2 131.49 313.03 132.67 313.03 132.67C313.03 132.67 308.89 142.86 311.25 146.1C312.47 147.78 314.89 151.79 317.53 155.28L323.06 148.65Z" fill="#263238" stroke="#263238" stroke-linecap="round" stroke-linejoin="round"/>
<path d="M355 121.37C355 121.37 360.61 122.55 364.15 118.37C367.69 114.19 358.25 99.78 351.46 95.06C344.67 90.34 319.32 86 312.24 93.05C305.16 100.1 296.9 130.82 299.24 132.05C301.58 133.28 314.29 132.34 317.24 130.87C320.19 129.4 321.67 121.72 327.86 122.01C334.05 122.3 337.6 124.08 341.44 123.79C345.28 123.5 355 121.37 355 121.37Z" fill="#263238" stroke="#263238" stroke-linecap="round" stroke-linejoin="round"/>
<path d="M319.32 122.26C319.32 122.26 319.03 114 313.42 117.54C307.81 121.08 309.59 127.87 310.47 129.34C311.35 130.81 315.19 132 315.19 132C315.19 132 311.05 142.19 313.41 145.43C315.77 148.67 322.66 160.71 326.88 160.71C328.2 160.71 340.57 147.05 340.57 147.05L344.41 148.23L350.59 133L355.03 121.4L336.44 113.4C336.44 113.4 334.96 120.18 330.24 119.3C327.314 118.771 324.316 118.771 321.39 119.3C321.39 119.3 320.21 122.85 319.32 122.26Z" fill="white" stroke="#263238" stroke-linecap="round" stroke-linejoin="round"/>
<path d="M352.6 134.18L330.9 124.53L328.49 131.37C328.49 131.37 336.12 140.61 339.94 141.62C343.76 142.63 346.17 139 347.94 139.81L346.94 143.63C346.94 143.63 350.8 145 352.6 134.18Z" fill="white" stroke="#263238" stroke-linecap="round" stroke-linejoin="round"/>
<path d="M318.35 118.6L352.6 134.18" stroke="#263238" stroke-width="2" stroke-linecap="round" stroke-linejoin="round"/>
<path d="M291.1 133.38C291.1 133.38 302.16 146.44 306.58 151.87C311 157.3 316.23 164.13 316.23 164.13L314.82 177.59C314.82 177.59 298.74 155.48 294.72 151.26C290.7 147.04 283.87 139.2 283.87 139.2L291.1 133.38Z" fill="white" stroke="#263238" stroke-linecap="round" stroke-linejoin="round"/>
<path d="M439.77 247.64H448.34V283.24C448.34 284.102 447.998 284.929 447.388 285.538C446.779 286.148 445.952 286.49 445.09 286.49H443C442.138 286.49 441.311 286.148 440.702 285.538C440.092 284.929 439.75 284.102 439.75 283.24V247.64H439.77Z" fill="white" stroke="#263238" stroke-linecap="round" stroke-linejoin="round"/>
<path d="M444.06 284.85C443.198 284.85 442.371 284.508 441.762 283.898C441.152 283.289 440.81 282.462 440.81 281.6V251.92H447.31V281.6C447.31 282.462 446.968 283.289 446.358 283.898C445.749 284.508 444.922 284.85 444.06 284.85Z" fill="#38A7BB" stroke="#263238" stroke-linecap="round" stroke-linejoin="round"/>
<path d="M426.12 247.64H434.69V283.24C434.69 284.102 434.348 284.929 433.738 285.538C433.129 286.148 432.302 286.49 431.44 286.49H429.36C428.498 286.49 427.672 286.148 427.062 285.538C426.453 284.929 426.11 284.102 426.11 283.24V247.64H426.12Z" fill="white" stroke="#263238" stroke-linecap="round" stroke-linejoin="round"/>
<path d="M435.57 245.89H425.25V248.16H435.57V245.89Z" fill="white" stroke="#263238" stroke-linecap="round" stroke-linejoin="round"/>
<path d="M430.41 284.85C429.984 284.85 429.562 284.766 429.168 284.602C428.774 284.439 428.417 284.199 428.116 283.897C427.815 283.595 427.576 283.237 427.414 282.843C427.252 282.449 427.169 282.026 427.17 281.6V251.92H433.66V281.6C433.661 282.027 433.578 282.45 433.415 282.845C433.253 283.24 433.013 283.599 432.711 283.901C432.409 284.203 432.05 284.442 431.655 284.605C431.261 284.768 430.837 284.851 430.41 284.85Z" fill="#38A7BB" stroke="#263238" stroke-linecap="round" stroke-linejoin="round"/>
<path d="M412.4 247.64H421V283.24C421 284.102 420.658 284.929 420.048 285.538C419.439 286.148 418.612 286.49 417.75 286.49H415.67C414.808 286.49 413.982 286.148 413.372 285.538C412.763 284.929 412.42 284.102 412.42 283.24V247.64H412.4Z" fill="white" stroke="#263238" stroke-linecap="round" stroke-linejoin="round"/>
<path d="M421.85 245.89H411.53V248.16H421.85V245.89Z" fill="white" stroke="#263238" stroke-linecap="round" stroke-linejoin="round"/>
<path d="M416.69 284.85C415.828 284.85 415.002 284.508 414.392 283.898C413.783 283.289 413.44 282.462 413.44 281.6V251.92H419.94V281.6C419.942 282.027 419.858 282.45 419.695 282.845C419.533 283.24 419.293 283.599 418.991 283.901C418.689 284.203 418.33 284.442 417.935 284.605C417.541 284.768 417.117 284.851 416.69 284.85Z" fill="#38A7BB" stroke="#263238" stroke-linecap="round" stroke-linejoin="round"/>
<path d="M398.83 247.64H407.4V283.24C407.4 284.102 407.058 284.929 406.448 285.538C405.839 286.148 405.012 286.49 404.15 286.49H402.07C401.208 286.49 400.381 286.148 399.772 285.538C399.162 284.929 398.82 284.102 398.82 283.24V247.64H398.83Z" fill="white" stroke="#263238" stroke-linecap="round" stroke-linejoin="round"/>
<path d="M408.27 245.89H397.95V248.16H408.27V245.89Z" fill="white" stroke="#263238" stroke-linecap="round" stroke-linejoin="round"/>
<path d="M403.12 284.85C402.258 284.85 401.432 284.508 400.822 283.898C400.213 283.289 399.87 282.462 399.87 281.6V251.92H406.37V281.6C406.371 282.027 406.288 282.45 406.125 282.845C405.963 283.24 405.723 283.599 405.421 283.901C405.119 284.203 404.76 284.442 404.365 284.605C403.971 284.768 403.547 284.851 403.12 284.85Z" fill="#38A7BB" stroke="#263238" stroke-linecap="round" stroke-linejoin="round"/>
<path d="M449.22 245.89H438.9V248.16H449.22V245.89Z" fill="white" stroke="#263238" stroke-linecap="round" stroke-linejoin="round"/>
<path d="M455.35 281.24H378.7V290.51H455.35V281.24Z" fill="white" stroke="#263238" stroke-linecap="round" stroke-linejoin="round"/>
<path d="M455.35 257.79H378.7V259.89H455.35V257.79Z" fill="white" stroke="#263238" stroke-linecap="round" stroke-linejoin="round"/>
<path d="M375.24 251L398.47 249C398.47 249 408.82 253.32 410.33 255.16C411.84 257 409.67 264.51 409.67 264.51C409.67 264.51 406.19 272.13 404.67 272.27C403.15 272.41 395.67 272.47 394.67 271.68C393.67 270.89 394.2 269.07 395.08 268.99C395.96 268.91 386.54 269.8 382.87 268.38C379.2 266.96 372.61 262.73 372.61 262.73L375.24 251Z" fill="#949494" stroke="#263238" stroke-linecap="round" stroke-linejoin="round"/>
<path d="M398.84 262.26L405.3 267.39C405.3 267.39 406.92 270.55 405.56 272.45" stroke="#263238" stroke-linecap="round" stroke-linejoin="round"/>
<path d="M398.56 257L407.45 262.13C407.45 262.13 410.05 261.66 409.67 264.57" stroke="#263238" stroke-linecap="round" stroke-linejoin="round"/>
<path d="M398.82 252.76C398.82 252.76 408.24 256.51 408.98 257.32C409.72 258.13 410.49 261.6 410.49 261.6" stroke="#263238" stroke-linecap="round" stroke-linejoin="round"/>
<path d="M283.33 198.89C283.33 198.89 311.27 252.25 313.46 254.36C315.65 256.47 374.6 266.44 374.6 266.44L377.11 251L333.11 231C333.11 231 314.66 176.4 309.56 171.58C304.46 166.76 297.33 161.48 292.26 163.95" fill="white"/>
<path d="M283.33 198.89C283.33 198.89 311.27 252.25 313.46 254.36C315.65 256.47 374.6 266.44 374.6 266.44L377.11 251L333.11 231C333.11 231 314.66 176.4 309.56 171.58C304.46 166.76 297.33 161.48 292.26 163.95" stroke="#263238" stroke-linecap="round" stroke-linejoin="round"/>
</g>
<path d="M211.654 257.355C248.387 220.622 248.387 161.067 211.654 124.334C174.921 87.6016 115.366 87.6015 78.6333 124.334C41.9006 161.067 41.9006 220.622 78.6333 257.355C115.366 294.088 174.921 294.088 211.654 257.355Z" fill="#38A7BB"/>
<path d="M197 226.43V263.74H113.71V243.74H102.9V268.62H96.9999V261.62H83.1599C94.4283 271.492 107.892 278.53 122.429 282.148C136.967 285.767 152.158 285.86 166.74 282.422C181.321 278.984 194.87 272.112 206.26 262.38C217.649 252.648 226.549 240.336 232.22 226.47L197 226.43Z" fill="#263238"/>
<path d="M90.4599 209.13H52.8699C56.3316 226.608 64.7017 242.737 76.9999 255.63H90.4999L90.4599 209.13Z" fill="#263238"/>
<mask id="mask1_655_597" style="mask-type:luminance" maskUnits="userSpaceOnUse" x="42" y="78" width="196" height="206">
<path d="M236.83 176.44V78.5598H42.1199V179.82H52.9999C52.5713 183.471 52.3543 187.144 52.3499 190.82C52.3623 203.607 55.0174 216.254 60.1487 227.967C65.2799 239.68 72.7766 250.206 82.1682 258.885C91.5598 267.564 102.644 274.208 114.725 278.4C126.805 282.593 139.622 284.243 152.371 283.248C165.12 282.253 177.526 278.634 188.81 272.618C200.094 266.602 210.012 258.318 217.944 248.287C225.875 238.257 231.648 226.695 234.899 214.328C238.151 201.96 238.812 189.054 236.84 176.42L236.83 176.44Z" fill="white"/>
</mask>
<g mask="url(#mask1_655_597)">
<path d="M131.38 128.12C131.38 128.12 121.44 119.34 122.28 113.48C122.99 108.48 137.28 91.3099 152.21 91.0299C167.14 90.7499 181.86 95.7399 183.8 110.71C185.74 125.68 186 132 189.34 139C192.68 146 209.84 180 214.55 189.71C219.26 199.42 216.49 207.99 198.76 214.09C181.03 220.19 141.96 224.09 141.13 193.31C140.3 162.53 146.13 144.54 143.34 137.06C140.55 129.58 131.38 128.12 131.38 128.12Z" fill="#263238" stroke="#263238" stroke-linecap="round" stroke-linejoin="round"/>
<path d="M159.41 168.89C159.41 168.89 136.8 168.6 135.32 169.49C133.84 170.38 94.5999 193.25 94.5999 193.25L82.6599 158.48L62.1299 171.27C62.1299 171.27 78.7999 230.51 80.2899 230.81C81.7799 231.11 125.2 221 125.2 221L119.2 290.91H209.04C209.04 290.91 212.04 190.66 212.31 185.31C212.58 179.96 204 170.08 199 169.79C194 169.5 159.41 168.89 159.41 168.89Z" fill="white" stroke="#263238" stroke-linecap="round" stroke-linejoin="round"/>
<path d="M98.0098 206.63L94.5898 193.25L103.47 207.41" stroke="#263238" stroke-linecap="round" stroke-linejoin="round"/>
<path d="M186.95 218.41H167.88V248.23H186.95V218.41Z" fill="#38A7BB" stroke="#263238" stroke-linecap="round" stroke-linejoin="round"/>
<path d="M180.02 210.44H174.82V222.58H180.02V210.44Z" fill="#263238" stroke="#263238" stroke-linecap="round" stroke-linejoin="round"/>
<path d="M157.2 167.51C157.2 167.51 155.53 170.28 153.04 173.61C150.55 176.94 142.51 182.75 142.51 182.75L149.71 186.35L141.13 193.28C142.024 200.41 143.506 207.454 145.56 214.34C147.716 221.456 149.472 228.687 150.82 236L186 195.22L179.35 188.85L189.05 186.63C189.05 186.63 187.94 173.88 185.73 168.63C183.52 163.38 179.91 163.09 174.37 163.09C168.83 163.09 159.14 164.74 157.2 167.51Z" fill="white" stroke="#263238" stroke-linecap="round" stroke-linejoin="round"/>
<path d="M155.53 164.19C156.624 168.247 157 172.463 156.64 176.65C156.09 183.86 150.27 219.05 154.15 220.16C158.03 221.27 178.53 171.39 178.53 168.34C178.53 165.29 174.65 144.51 174.65 144.51C174.65 144.51 168.56 163.35 155.53 164.19Z" fill="white" stroke="#263238" stroke-linecap="round" stroke-linejoin="round"/>
<path d="M174.65 144.51C174.65 144.51 168.56 163.35 155.53 164.19C156.153 166.436 156.532 168.742 156.66 171.07C157.208 171.163 157.764 171.209 158.32 171.21C166.91 171.21 175.84 157.09 175.84 153.21C175.84 152.55 175.84 151.86 175.84 151.21C175.19 147.4 174.65 144.51 174.65 144.51Z" fill="#263238" stroke="#263238" stroke-linecap="round" stroke-linejoin="round"/>
<path d="M154.15 220.16C156.15 220.72 162.3 208.29 167.95 195.45C163.494 196.714 158.767 196.662 154.34 195.3C153 207 151.86 219.5 154.15 220.16Z" fill="#38A7BB" stroke="#263238" stroke-linecap="round" stroke-linejoin="round"/>
<path d="M134.48 113.76C134.48 113.76 130.92 121.15 130.92 125.58C130.92 130.01 134.75 145.34 138.92 151.16C143.09 156.98 149.38 168.33 157.97 168.33C166.56 168.33 175.49 154.21 175.49 150.33C175.49 146.45 175.77 141.74 175.77 141.74C175.77 141.74 179.65 137.03 178.54 133.15C177.43 129.27 176.33 129 176.33 129C176.33 129 159.98 130.1 151.11 125.12C145.283 121.765 139.724 117.968 134.48 113.76Z" fill="white" stroke="#263238" stroke-linecap="round" stroke-linejoin="round"/>
<path d="M142.36 149.14C142.811 149.67 143.376 150.091 144.014 150.37C144.652 150.649 145.344 150.779 146.04 150.75" stroke="#263238" stroke-linecap="round" stroke-linejoin="round"/>
<path d="M167.52 128.46C167.52 128.46 140.76 130.8 126.78 138.17C126.78 138.17 130.57 149.59 132.66 150.02C134.75 150.45 140.5 149.12 141.29 147.8C142.08 146.48 141.29 141.88 142.94 141.34C144.59 140.8 146.08 146.46 148.75 146.61C151.42 146.76 161.75 143.71 163.75 142.79C165.75 141.87 169.12 136.22 169.12 136.22L167.52 128.46Z" fill="white" stroke="#263238" stroke-linecap="round" stroke-linejoin="round"/>
<path d="M126.78 138.17C139.592 132.294 153.435 128.995 167.52 128.46" stroke="#263238" stroke-width="3" stroke-linecap="round" stroke-linejoin="round"/>
<path d="M200.17 170.68C200.17 170.68 209.09 170.38 215.04 173.36C220.99 176.34 226.64 184.07 225.16 189.72C223.68 195.37 198.38 275.39 198.38 275.39L145.22 240.26L155.14 217.32L183.87 235.92L197.19 192.4" fill="white"/>
<path d="M200.17 170.68C200.17 170.68 209.09 170.38 215.04 173.36C220.99 176.34 226.64 184.07 225.16 189.72C223.68 195.37 198.38 275.39 198.38 275.39L145.22 240.26L155.14 217.32L183.87 235.92L197.19 192.4" stroke="#263238" stroke-linecap="round" stroke-linejoin="round"/>
<path d="M183.87 235.92L187.7 245.63" stroke="#263238" stroke-linecap="round" stroke-linejoin="round"/>
<path d="M116.656 180.035L125.27 179.707L126.569 213.832C126.604 214.749 126.273 215.642 125.649 216.315C125.026 216.989 124.16 217.386 123.243 217.421L121.584 217.484C120.667 217.519 119.774 217.188 119.101 216.565C118.428 215.941 118.03 215.075 117.995 214.158L116.696 180.033L116.656 180.035Z" fill="#38A7BB" stroke="#263238" stroke-linecap="round" stroke-linejoin="round"/>
<path d="M126.163 178.169L115.581 178.572L115.658 180.591L126.24 180.188L126.163 178.169Z" fill="white" stroke="#263238" stroke-linecap="round" stroke-linejoin="round"/>
<path d="M150.27 213.76C150.27 213.76 145.6 209.24 143.67 205.05C141.74 200.86 140.28 195.22 138.18 194.41C136.08 193.6 125.93 188.13 125.93 188.13V193.45L120.29 188.45C120.29 188.45 115.94 179.75 115.46 179.91C114.98 180.07 114.01 178.91 113.04 181.2C112.07 183.49 113.52 187.32 113.52 187.32C113.52 187.32 110.3 189.42 111.27 192.32C112.24 195.22 111.59 198.61 112.56 203.12C113.53 207.63 114.33 211.18 117.23 213.6C121.4 216.704 125.822 219.453 130.45 221.82C133.19 223.11 137.7 226.01 137.7 226.01L151.08 240.51L162.68 225.68L150.27 213.76Z" fill="#949494" stroke="#263238" stroke-linecap="round" stroke-linejoin="round"/>
<path d="M125.93 193.45L131.9 197.32" stroke="#263238" stroke-linecap="round" stroke-linejoin="round"/>
<path d="M113.52 187.32C113.52 187.32 115.62 194.25 116.91 195.87C118.2 197.49 126.26 202.8 126.26 202.8" stroke="#263238" stroke-linecap="round" stroke-linejoin="round"/>
<path d="M111.59 194.9C111.59 194.9 114.65 203.9 116.42 205.21C118.19 206.52 124.97 209.73 124.97 209.73" stroke="#263238" stroke-linecap="round" stroke-linejoin="round"/>
<path d="M113.36 207.15C115.593 210.273 118.593 212.77 122.07 214.4" stroke="#263238" stroke-linecap="round" stroke-linejoin="round"/>
<path d="M78.8799 131.34L117.32 178.47L119.8 178.26L85.2799 126.59L78.8799 131.34Z" fill="white" stroke="#263238" stroke-linecap="round" stroke-linejoin="round"/>
<path d="M77.64 132.79L86.14 126.16L69.1 104.71L61.24 110.5L77.64 132.79Z" fill="#263238" stroke="#263238" stroke-linecap="round" stroke-linejoin="round"/>
<path d="M68.8399 167.09L80.8399 159.59C80.3199 152.12 79.3099 138.02 78.9599 135.59C78.4899 132.29 72.3599 126.16 72.3599 126.16C72.3599 126.16 80.0599 118.77 81.4799 118.77C82.8999 118.77 86.0399 117.51 85.4099 116.25C84.7799 114.99 80.4099 114.84 80.4099 114.84L78.8399 113.42L71.2899 106.03C71.2899 106.03 68.9299 103.03 67.6699 103.03C66.4099 103.03 51.6699 115.14 51.3199 116.71C50.9699 118.28 65.6299 135.11 67.0399 137.79C68.1099 139.82 68.6399 158.07 68.8399 167.09Z" fill="#949494" stroke="#263238" stroke-linecap="round" stroke-linejoin="round"/>
<path d="M80.4199 114.86C78.8711 114.907 77.3364 115.17 75.8599 115.64C74.5999 116.27 67.3699 121.93 67.3699 121.93" stroke="#263238" stroke-linecap="round" stroke-linejoin="round"/>
<path d="M75.0698 110C75.0698 110 71.7698 111.42 71.1398 112.36C70.5098 113.3 63.2798 118.18 63.2798 118.18" stroke="#263238" stroke-linecap="round" stroke-linejoin="round"/>
<path d="M71.46 106.68C71.46 106.68 60.29 112.34 58.72 114.23" stroke="#263238" stroke-linecap="round" stroke-linejoin="round"/>
<path d="M80.8799 159.59C80.6899 156.8 80.4199 153.08 80.1499 149.39C74.0799 151.6 70.4699 151.85 68.3499 151.44C68.5899 156.97 68.7499 162.99 68.8399 167.09L80.8799 159.59Z" fill="white" stroke="#263238" stroke-linecap="round" stroke-linejoin="round"/>
</g>
<path d="M304.794 435.775C341.504 399.066 341.504 339.548 304.794 302.839C268.085 266.13 208.568 266.13 171.858 302.839C135.149 339.548 135.149 399.066 171.858 435.775C208.568 472.484 268.085 472.484 304.794 435.775Z" fill="#38A7BB"/>
<path d="M328.71 395.2H312.45V311.51C310.69 309.263 308.833 307.097 306.88 305.01V318.48H284.61V365.48H209.12V309.2H204.79V352.51H187.47V321H179.42V418.14H158C167.489 433.761 181.327 446.277 197.819 454.155C214.311 462.034 232.743 464.933 250.857 462.499C268.972 460.065 285.984 452.402 299.811 440.449C313.638 428.497 323.681 412.772 328.71 395.2ZM295.71 323.43H306.85V365.5H295.74L295.71 323.43Z" fill="#263238"/>
<mask id="mask2_655_597" style="mask-type:luminance" maskUnits="userSpaceOnUse" x="116" y="233" width="216" height="230">
<path d="M289.93 292.18V233.18H209.13V281.18C202.762 283.293 196.643 286.093 190.88 289.53V270.73H116.88V418.9H159.88C167.262 430.586 177.161 440.476 188.855 447.847C200.548 455.218 213.74 459.884 227.467 461.505C241.195 463.125 255.111 461.658 268.199 457.212C281.287 452.766 293.216 445.453 303.116 435.807C313.016 426.16 320.637 414.424 325.421 401.456C330.205 388.487 332.031 374.614 330.768 360.849C329.504 347.085 325.182 333.776 318.116 321.895C311.051 310.015 301.421 299.863 289.93 292.18Z" fill="white"/>
</mask>
<g mask="url(#mask2_655_597)">
<path d="M151.095 273.474L160.678 273.109L162.145 311.651C162.163 312.108 162.09 312.563 161.93 312.992C161.77 313.42 161.528 313.812 161.216 314.146C160.904 314.48 160.529 314.748 160.112 314.936C159.696 315.124 159.246 315.228 158.79 315.242L156.111 315.344C155.194 315.378 154.301 315.048 153.628 314.424C152.955 313.8 152.557 312.935 152.522 312.018L151.055 273.476L151.095 273.474Z" fill="white" stroke="#263238" stroke-linecap="round" stroke-linejoin="round"/>
<path d="M157.37 314C156.454 314.035 155.561 313.705 154.888 313.083C154.215 312.46 153.817 311.596 153.78 310.68L152.56 278.68L159.47 278.41L160.69 310.41C160.725 311.326 160.396 312.219 159.773 312.892C159.151 313.565 158.286 313.963 157.37 314Z" fill="#38A7BB" stroke="#263238" stroke-linecap="round" stroke-linejoin="round"/>
<path d="M161.734 271.389L149.893 271.84L149.979 274.098L161.82 273.647L161.734 271.389Z" fill="white" stroke="#263238" stroke-linecap="round" stroke-linejoin="round"/>
<path d="M126.62 330.81C126.62 330.81 124.08 309.38 124.08 305.15C124.08 300.92 136.77 284.56 139.08 282.86C141.39 281.16 157.13 282.3 157.13 282.3C157.13 282.3 165.31 291.04 165.31 292.45C165.31 293.86 163.31 294.45 163.31 294.45C163.31 294.45 164.15 295.01 162.74 296.71C161.696 297.77 160.278 298.377 158.79 298.4C158.79 298.4 158.23 301.78 155.97 301.78H153.7L148.62 304.6C148.62 304.6 144.95 308.83 144.11 311.09C143.27 313.35 142.11 314.19 142.11 315.6C142.11 317.01 142.96 324.6 142.96 324.6L126.62 330.81Z" fill="#949494" stroke="#263238" stroke-linecap="round" stroke-linejoin="round"/>
<path d="M163.29 294.43C163.29 294.43 155.95 284.56 153.42 284.56C150.89 284.56 143.26 284.84 143.26 284.84" stroke="#263238" stroke-linecap="round" stroke-linejoin="round"/>
<path d="M158.77 298.38C158.77 298.38 152.29 291.04 149.77 290.48C147.25 289.92 139.9 289.92 139.9 289.92" stroke="#263238" stroke-linecap="round" stroke-linejoin="round"/>
<path d="M153.7 301.76C153.7 301.76 145 294.15 143 294.15C141 294.15 133.69 295.56 133.69 295.56" fill="white"/>
<path d="M153.7 301.76C153.7 301.76 145 294.15 143 294.15C141 294.15 133.69 295.56 133.69 295.56" stroke="#263238" stroke-linecap="round" stroke-linejoin="round"/>
<path d="M132.83 302.61L140.16 300.07C140.16 300.07 148.62 303.74 150.88 303.74C153.14 303.74 154.88 303.45 151.72 300.35C148.56 297.25 146.65 294.43 142.98 294.15C140.28 294.101 137.597 294.58 135.08 295.56" fill="#949494"/>
<path d="M132.83 302.61L140.16 300.07C140.16 300.07 148.62 303.74 150.88 303.74C153.14 303.74 154.88 303.45 151.72 300.35C148.56 297.25 146.65 294.43 142.98 294.15C140.28 294.101 137.597 294.58 135.08 295.56" stroke="#263238" stroke-linecap="round" stroke-linejoin="round"/>
<path d="M132 315.87C133.543 316.397 135.224 316.343 136.73 315.719C138.236 315.095 139.462 313.943 140.18 312.48C143.28 307.12 143.28 304.02 143.28 304.02" stroke="#263238" stroke-linecap="round" stroke-linejoin="round"/>
<path d="M231.26 323.2C231.26 323.2 194.03 329.12 192.62 329.69C191.21 330.26 161.88 367.48 161.88 367.48L148.88 319.81L123 329.69C123 329.69 137.11 375.94 139.65 387.22C142.19 398.5 148.65 409.51 150.36 410.35C152.07 411.19 186.75 387.22 186.75 387.22L187.03 468.17H298.11C298.11 468.17 293 344.35 291.34 341C289.68 337.65 253.55 322.1 253.55 322.1L231.26 323.2Z" fill="white" stroke="#263238" stroke-linecap="round" stroke-linejoin="round"/>
<path d="M161.88 367.48C161.88 367.48 166.65 381.72 164.31 390.3" stroke="#263238" stroke-linecap="round" stroke-linejoin="round"/>
<path d="M163.92 373.92C163.92 373.92 166.65 377.82 167.43 385.62" stroke="#263238" stroke-linecap="round" stroke-linejoin="round"/>
<path d="M216.17 402.77L218.12 465.56" stroke="#263238" stroke-linecap="round" stroke-linejoin="round"/>
<path d="M186.53 378.99L183.02 357.93" stroke="#263238" stroke-linecap="round" stroke-linejoin="round"/>
<path d="M186.7 387.22L186.16 356.21" stroke="#263238" stroke-linecap="round" stroke-linejoin="round"/>
<path d="M229.67 321.88C229.67 321.88 223.09 326.43 219.55 331.75C216.01 337.07 212 342.62 212 342.62L216.8 347.18L207.44 352.24C207.44 352.24 211.44 376.77 213.52 385.12C215.6 393.47 216.52 399.29 216.52 399.29L259.78 355.53L253.71 347.94L263.57 344.65C263.57 344.65 260.57 329.98 259.78 324.92C258.99 319.86 254.47 319.1 252.7 319.1C250.93 319.1 232.7 318.09 229.67 321.88Z" fill="white" stroke="#263238" stroke-linecap="round" stroke-linejoin="round"/>
<path d="M224.35 266.48C223.11 263.968 222.503 261.191 222.58 258.39C222.58 253.33 232.95 247.26 242.31 247.26C251.67 247.26 264.57 249.26 271.66 257.12C278.75 264.98 276.46 279.12 274.19 283.94C272.316 288.305 270.71 292.78 269.38 297.34C269.13 298.1 264.32 301.39 261.54 297.6C258.76 293.81 261.29 285.96 258.25 279.89C255.21 273.82 247.12 269.01 240.25 267.24C233.38 265.47 224.35 266.48 224.35 266.48Z" fill="#263238" stroke="#263238" stroke-linecap="round" stroke-linejoin="round"/>
<path d="M228.91 318.09C228.91 318.09 227.14 331.49 225.37 337.57C223.6 343.65 219.8 368.68 219.29 376.52C218.78 384.36 218.29 389.17 218.29 389.17C218.29 389.17 240 355.78 245.1 344.9C250.2 334.02 256.23 322.9 256.23 322.9L259.52 304.44C259.52 304.44 242.06 318.85 228.91 318.09Z" fill="white" stroke="#263238" stroke-linecap="round" stroke-linejoin="round"/>
<path d="M228.91 318.09C228.91 318.09 228.54 320.9 227.96 324.52C231.162 326.041 234.679 326.783 238.222 326.686C241.766 326.588 245.236 325.654 248.35 323.96C251.82 321.892 254.897 319.228 257.44 316.09L259.52 304.43C259.52 304.43 242.06 318.85 228.91 318.09Z" fill="#263238" stroke="#263238" stroke-linecap="round" stroke-linejoin="round"/>
<path d="M245.26 344.56C232.26 348.28 226.54 344.97 224.26 342.48C222.35 352.1 219.73 370.09 219.26 376.48C218.76 384.32 218.26 389.13 218.26 389.13C218.26 389.13 240 355.78 245.1 344.9L245.26 344.56Z" fill="#38A7BB" stroke="#263238" stroke-linecap="round" stroke-linejoin="round"/>
<path d="M222.58 264.71C222.58 264.71 219 283.94 218.79 292C218.58 300.06 222.84 318.56 227.14 320.84C230.351 322.386 233.884 323.146 237.447 323.057C241.009 322.969 244.5 322.034 247.63 320.33C255.22 316.06 260 308 260 308C262.333 307.434 264.591 306.598 266.73 305.51C269.64 303.99 271 301.15 272.04 298.19C272.58 296.68 274.79 290.8 271.64 290.8C270.68 290.713 269.715 290.906 268.861 291.354C268.008 291.803 267.303 292.489 266.83 293.33C266.33 294.09 265.06 295.86 264.05 295.6C263.04 295.34 264.3 289.53 264.05 284.73C263.8 279.93 260.51 278.4 260.25 275.37C259.99 272.34 264.81 269.04 264.81 266.01C264.81 262.98 258.48 261.2 253.42 262.46C248.36 263.72 240.78 264.99 236.22 261.96C231.66 258.93 228.13 256.9 225.85 259.18C224.379 260.769 223.264 262.655 222.58 264.71Z" fill="white" stroke="#263238" stroke-linecap="round" stroke-linejoin="round"/>
<path d="M225.87 296.84L229.37 299.95" stroke="#263238" stroke-linecap="round" stroke-linejoin="round"/>
<path d="M264.07 286.47C264.07 286.47 234.22 275.34 215.5 276.09C215.5 276.09 213.73 290.26 215.75 291.78C217.77 293.3 224.61 294.78 226.12 293.78C227.63 292.78 229.12 287.46 231.18 287.71C233.24 287.96 231.94 294.79 234.73 296.31C237.52 297.83 250.16 299.85 252.73 299.85C255.3 299.85 261.83 295.55 261.83 295.55L264.07 286.47Z" fill="white" stroke="#263238" stroke-linecap="round" stroke-linejoin="round"/>
<path d="M215.5 276.09C215.5 276.09 240.79 277.47 264.07 286.47L270.14 290.26" stroke="#263238" stroke-width="3" stroke-linecap="round" stroke-linejoin="round"/>
<path d="M279.78 359C279.78 359 271.46 374.6 272.5 378.76C273.54 382.92 288.11 441.53 288.11 441.53L290.53 469.27H319.32L316.18 425.08C316.18 425.08 293.66 342.34 292.27 341C290.88 339.66 284.64 342.38 284.64 342.38" fill="white"/>
<path d="M279.78 359C279.78 359 271.46 374.6 272.5 378.76C273.54 382.92 288.11 441.53 288.11 441.53L290.53 469.27H319.32L316.18 425.08C316.18 425.08 293.66 342.34 292.27 341C290.88 339.66 284.64 342.38 284.64 342.38" stroke="#263238" stroke-linecap="round" stroke-linejoin="round"/>
<path d="M264.35 391.24H245.28V421.06H264.35V391.24Z" fill="#38A7BB" stroke="#263238" stroke-linecap="round" stroke-linejoin="round"/>
<path d="M257.42 383.26H252.22V395.4H257.42V383.26Z" fill="#263238" stroke="#263238" stroke-linecap="round" stroke-linejoin="round"/>
</g>
</g>
<defs>
<clipPath id="clip0_655_597">
<rect width="500" height="500" fill="white"/>
</clipPath>
</defs>
</svg>
