<svg width="127" height="177" viewBox="0 0 127 177" fill="none" xmlns="http://www.w3.org/2000/svg">
<path d="M123.541 160.963H107.727C106.296 160.963 105.136 162.123 105.136 163.554C105.136 164.985 106.296 166.145 107.727 166.145H120.95V171.693H72.489V166.145H96.435C97.8658 166.145 99.0258 164.985 99.0258 163.554C99.0258 162.123 97.8658 160.963 96.435 160.963H72.489V155.416H99.6617C102.423 155.416 104.67 153.169 104.67 150.407L104.667 133.95H118.174C119.605 133.95 120.765 132.79 120.765 131.36V120.63C120.765 119.199 119.605 118.039 118.174 118.039H75.2538C73.823 118.039 72.6631 119.199 72.6631 120.63V131.36C72.6631 132.79 73.823 133.95 75.2538 133.95H88.763V139.492H70.7017C67.7054 133.16 61.2572 128.769 53.8 128.769C48.4842 128.769 43.6837 131.003 40.2774 134.578C28.3275 129.571 20.4123 117.8 20.4123 104.748C20.4123 91.7803 28.6229 79.6663 40.5669 74.7974C45.6012 79.849 54.0857 81.617 60.7121 78.9627L68.3839 92.2487L65.9862 93.6328C64.7471 94.3482 64.3226 95.9327 65.038 97.1718L70.4046 106.467C71.4537 107.778 72.6334 108.094 73.9436 107.415L85.6385 100.663L89.7064 107.709C90.4311 108.964 92.0487 109.349 93.2453 108.657L102.538 103.292C103.777 102.577 104.201 100.993 103.486 99.7535L99.4182 92.7078L111.113 85.9556C112.406 85.0378 112.722 83.8581 112.061 82.4166L106.695 73.1214C105.979 71.8823 104.395 71.4575 103.156 72.1732L100.754 73.5598L87.2106 50.1039C86.4952 48.8648 84.9104 48.4403 83.6713 49.1557C82.4322 49.871 82.0077 51.4555 82.7231 52.695L96.2668 76.1505L72.8714 89.6579L65.2083 76.3868C69.6212 72.967 72.4696 67.6211 72.4696 61.6189C72.4696 51.3194 64.0905 42.94 53.7907 42.94C51.2836 42.94 48.8922 43.4398 46.7056 44.3396L43.1815 38.2365L66.5772 24.727L77.0784 42.9158C77.7941 44.1552 79.3786 44.5797 80.6173 43.864C81.8564 43.1486 82.2809 41.5641 81.5656 40.325L69.769 19.8927C68.8512 18.5994 67.6716 18.283 66.2297 18.9445L59.1805 23.0151L56.4067 18.2105L58.8092 16.8232C59.6589 16.3327 60.1588 15.4038 60.0997 14.4245L59.3809 2.44942C59.1909 0.185806 57.291 -0.505059 55.4996 0.36094L27.6225 16.4557C25.9409 17.875 25.3748 19.4723 27.4902 20.8613L37.5008 27.4718C38.4007 28.0149 39.3085 28.0422 40.2239 27.5534L42.627 26.1661L45.4016 30.9718L38.3468 35.0454C37.1077 35.7608 36.6832 37.3453 37.3986 38.5847L42.235 46.9604C39.8284 48.8617 37.8988 51.3391 36.6587 54.1858C16.9476 60.4672 2.31787 78.2404 0.0165973 98.8164C-0.142301 100.238 0.881213 101.52 2.30336 101.679C2.40111 101.69 2.49818 101.695 2.59456 101.695C3.89649 101.695 5.01811 100.716 5.16596 99.3922C6.01123 91.8342 8.60197 84.7887 12.5568 78.6849L20.3805 85.8084C17.0854 91.4324 15.2305 97.9335 15.2305 104.749C15.2305 119.497 23.9392 132.837 37.1996 138.889C35.5516 142.069 34.9008 145.714 35.1108 149.272C18.7421 142.781 7.13837 127.762 5.16596 110.109C5.00706 108.686 3.72481 107.661 2.30336 107.821C0.881558 107.98 -0.142647 109.262 0.0162521 110.684C2.27849 130.93 15.9683 148.049 35.1104 154.803V160.964H5.51035C4.07957 160.964 2.91961 162.124 2.91961 163.555V174.284C2.91961 175.715 4.07957 176.875 5.51035 176.875H123.541C124.972 176.875 126.132 175.715 126.132 174.284V163.555C126.132 162.123 124.972 160.963 123.541 160.963ZM77.8446 123.22H115.583V128.768H77.8446V123.22ZM97.7038 100.101L92.8985 102.875L90.1261 98.0723L94.931 95.2981L97.7038 100.101ZM103.503 77.9557L106.279 82.7638L73.5964 101.633L70.8205 96.825L103.503 77.9557ZM39.0204 22.2651L33.8437 18.8467L54.4605 6.94384L54.8322 13.1361L39.0204 22.2651ZM49.8887 28.38L47.1149 23.575L51.9199 20.8009L54.694 25.6058L49.8887 28.38ZM67.2881 61.6185C67.2881 69.0608 61.2334 75.1159 53.7907 75.1159C46.348 75.1159 40.2933 69.0608 40.2933 61.6185C40.2933 54.1762 46.3484 48.1211 53.7907 48.1211C61.2331 48.1211 67.2881 54.1762 67.2881 61.6185ZM37.3772 70.5275C35.1636 71.5234 33.0758 72.7193 31.1335 74.0914L23.755 66.6183C27.2025 64.0027 31.0343 61.8396 35.1709 60.2105C34.9125 63.6514 35.7391 67.5216 37.3772 70.5275ZM15.626 74.471C16.9172 72.8882 18.3062 71.3863 19.7922 69.9797L27.1016 77.3827C25.7423 78.6583 24.4839 80.0314 23.3326 81.4878L15.626 74.471ZM91.3537 144.673C92.7845 144.673 93.9445 143.513 93.9445 142.082V133.951H99.4859L99.489 150.234H72.489C72.5363 148.427 72.546 146.441 72.2807 144.673H91.3537ZM53.8 133.95C61.2483 133.95 67.3075 140.01 67.3075 147.457V171.688H40.2926V147.457C40.2926 140.01 46.3518 133.95 53.8 133.95ZM8.10109 166.145H35.1108V171.693H8.10109V166.145Z" fill="black"/>
<path d="M53.7969 155.41C58.1835 155.41 61.7522 151.841 61.7522 147.454C61.7522 143.068 58.1832 139.499 53.7969 139.499C49.4106 139.499 45.8416 143.068 45.8416 147.454C45.8416 151.841 49.4102 155.41 53.7969 155.41ZM53.7969 144.68C55.3264 144.68 56.5707 145.925 56.5707 147.454C56.5707 148.983 55.3261 150.228 53.7969 150.228C52.2676 150.228 51.023 148.984 51.023 147.454C51.023 145.925 52.2673 144.68 53.7969 144.68Z" fill="black"/>
<path d="M53.7972 69.5701C58.1839 69.5701 61.7525 66.0014 61.7525 61.6148C61.7525 57.2281 58.1835 53.6595 53.7972 53.6595C49.4109 53.6595 45.8419 57.2285 45.8419 61.6148C45.8419 66.0011 49.4106 69.5701 53.7972 69.5701ZM53.7972 58.8409C55.3268 58.8409 56.571 60.0855 56.571 61.6148C56.571 63.144 55.3265 64.3886 53.7972 64.3886C52.268 64.3886 51.0234 63.1443 51.0234 61.6148C51.0234 60.0852 52.2676 58.8409 53.7972 58.8409Z" fill="black"/>
</svg>
