<svg width="204" height="204" viewBox="0 0 204 204" fill="none" xmlns="http://www.w3.org/2000/svg">
<path d="M97.1701 82.5558L84.6776 95.0484C83.6478 96.0785 83.6478 97.7477 84.6776 98.7774C85.1926 99.2921 85.8676 99.5495 86.5423 99.5495C87.2169 99.5495 87.8919 99.2921 88.407 98.7774L100.9 86.2849C103.041 84.1432 105.888 82.964 108.917 82.964H134.522C137.551 82.964 140.398 84.1432 142.539 86.2849L151.024 94.7692C151.518 95.2635 152.189 95.5413 152.888 95.5413H189.231C190.687 95.5413 191.868 94.3611 191.868 92.9045C191.868 91.448 190.687 90.2678 189.231 90.2678H153.98L146.268 82.5555C143.13 79.4181 138.959 77.6902 134.522 77.6902H108.917C104.48 77.6905 100.308 79.4185 97.1701 82.5558Z" fill="white"/>
<path d="M80.4154 106.769C81.4451 105.739 81.4451 104.07 80.4154 103.04C79.3853 102.011 77.716 102.011 76.6863 103.04L73.1045 106.622C68.1552 111.572 68.1552 119.626 73.1049 124.576C75.5796 127.05 78.8305 128.288 82.0814 128.288C85.3324 128.288 88.5829 127.05 91.058 124.576L99.8074 115.826C103.19 118.409 107.303 119.806 111.631 119.806H118.029C123.247 119.806 128.152 117.775 131.841 114.086L134.266 111.661L145.092 122.487C145.607 123.002 146.282 123.259 146.957 123.259C147.631 123.259 148.306 123.002 148.821 122.487C149.851 121.457 149.851 119.788 148.821 118.758L137.996 107.932L141.28 104.647C142.31 103.617 142.31 101.948 141.28 100.918C140.25 99.8888 138.581 99.8888 137.551 100.918L132.404 106.066C132.403 106.066 132.403 106.067 132.402 106.068C132.402 106.068 132.401 106.069 132.4 106.069L128.113 110.357C125.42 113.05 121.839 114.534 118.029 114.534H111.632C107.822 114.534 104.241 113.05 101.548 110.357C100.518 109.328 98.849 109.328 97.8193 110.357L87.3293 120.847C84.4359 123.741 79.727 123.74 76.834 120.847C73.9406 117.954 73.9406 113.245 76.834 110.352L80.4154 106.769Z" fill="white"/>
<path d="M189.23 141.015H165.384C165.417 140.668 165.434 140.318 165.434 139.966C165.434 137.003 164.281 134.217 162.186 132.121L156.768 126.703C155.737 125.674 154.068 125.674 153.038 126.703C152.009 127.734 152.009 129.403 153.038 130.433L158.456 135.85C160.725 138.12 160.725 141.811 158.457 144.08C156.188 146.35 152.495 146.349 150.227 144.08L135.369 129.222C134.339 128.193 132.67 128.193 131.64 129.222C130.61 130.253 130.61 131.922 131.64 132.951L148.625 149.937C150.894 152.206 150.894 155.898 148.625 158.167C146.356 160.437 142.664 160.436 140.395 158.167L118.783 136.554C117.753 135.525 116.084 135.525 115.054 136.554C114.024 137.584 114.024 139.254 115.054 140.283L131.02 156.249C133.282 158.519 133.28 162.205 131.013 164.472C128.745 166.741 125.052 166.742 122.783 164.472L106.911 148.599C105.88 147.57 104.211 147.57 103.181 148.599C102.152 149.629 102.152 151.298 103.181 152.328L116.757 165.903C117.856 167.002 118.461 168.464 118.461 170.018C118.461 171.572 117.856 173.034 116.757 174.133C115.658 175.232 114.196 175.838 112.642 175.838C111.088 175.838 109.626 175.232 108.527 174.133L104.292 169.898C104.36 169.397 104.397 168.889 104.397 168.375C104.397 165.412 103.243 162.626 101.148 160.53C99.0531 158.435 96.2672 157.282 93.3039 157.282C92.9998 157.282 92.6985 157.297 92.399 157.321C92.4229 157.021 92.4383 156.72 92.4383 156.416C92.4383 153.452 91.2845 150.667 89.1895 148.572C87.0945 146.477 84.3087 145.323 81.3454 145.323C81.0395 145.323 80.7361 145.338 80.4345 145.362C80.689 142.228 79.6227 139.005 77.2303 136.613C75.135 134.518 72.3491 133.364 69.3858 133.364C69.0817 133.364 68.7804 133.379 68.4809 133.403C68.5048 133.103 68.5202 132.802 68.5202 132.498C68.5202 129.535 67.3664 126.749 65.2714 124.653C60.9464 120.328 53.9088 120.328 49.5831 124.653L41.0851 133.152C37.6742 136.563 36.9559 141.66 38.925 145.784H14.6367C13.1802 145.784 12 146.964 12 148.421C12 149.877 13.1802 151.057 14.6367 151.057H44.2467C45.6941 151.732 47.2835 152.089 48.9285 152.089C49.2326 152.089 49.5339 152.074 49.8334 152.05C49.8095 152.349 49.7941 152.651 49.7941 152.955C49.7941 155.918 50.9479 158.704 53.0429 160.799C55.2057 162.962 58.0457 164.043 60.8874 164.043C61.1894 164.043 61.4917 164.028 61.793 164.004C61.7688 164.305 61.7533 164.608 61.7533 164.914C61.7533 167.877 62.9071 170.663 65.0021 172.758C67.0974 174.853 69.8833 176.007 72.8463 176.007C73.1521 176.007 73.4555 175.992 73.7572 175.967C73.5026 179.102 74.5689 182.325 76.9613 184.717C79.1091 186.865 81.9539 187.942 84.8016 187.941C87.5818 187.941 90.3644 186.914 92.5002 184.855C93.5482 183.844 93.5788 182.175 92.5677 181.127C91.5566 180.078 89.887 180.048 88.8397 181.059C86.5718 183.246 82.9158 183.214 80.6904 180.989C78.4214 178.719 78.4214 175.028 80.6904 172.759L89.1885 164.261C91.4575 161.991 95.15 161.991 97.4183 164.261C99.6873 166.53 99.6873 170.221 97.4183 172.49L96.803 173.106C95.7733 174.136 95.7733 175.805 96.803 176.835C97.8331 177.864 99.5024 177.864 100.532 176.835L101.147 176.219C101.486 175.881 101.797 175.523 102.085 175.151L104.797 177.863C106.892 179.958 109.678 181.111 112.641 181.111C115.604 181.111 118.39 179.958 120.485 177.863C122.351 175.996 123.468 173.581 123.69 170.981C124.717 171.29 125.795 171.45 126.898 171.45C129.861 171.45 132.647 170.297 134.742 168.202C136.245 166.699 137.26 164.841 137.716 162.818C139.708 164.364 142.108 165.14 144.511 165.14C147.352 165.14 150.192 164.059 152.355 161.896C155.296 158.956 156.234 154.762 155.176 151.018C157.732 150.827 160.235 149.76 162.186 147.809C162.659 147.336 163.082 146.826 163.456 146.288H189.231C190.688 146.288 191.868 145.108 191.868 143.651C191.868 142.195 190.687 141.015 189.23 141.015ZM44.8134 145.113C42.5444 142.843 42.5444 139.151 44.8134 136.882L53.3115 128.384C54.446 127.249 55.9363 126.682 57.4262 126.682C58.9165 126.682 60.4071 127.249 61.5413 128.384C63.8103 130.653 63.8103 134.345 61.5413 136.614L53.0432 145.112C50.7742 147.381 47.0824 147.382 44.8134 145.113ZM56.7723 157.071C55.6733 155.972 55.0679 154.511 55.0679 152.956C55.0679 151.402 55.6733 149.94 56.7727 148.841L65.2707 140.343C66.4056 139.208 67.8952 138.641 69.3858 138.641C70.8757 138.641 72.3664 139.208 73.5005 140.343C75.7688 142.611 75.7695 146.302 73.503 148.571C73.5023 148.571 73.5012 148.572 73.5005 148.573L65.0025 157.071C62.7335 159.34 59.0413 159.34 56.7723 157.071ZM76.961 169.03C75.862 170.129 74.4009 170.735 72.8463 170.735C71.292 170.735 69.8305 170.129 68.7315 169.03C67.6322 167.931 67.0268 166.469 67.0268 164.915C67.0268 163.361 67.6322 161.899 68.7315 160.8L77.2296 152.302C77.2296 152.302 77.2296 152.302 77.2296 152.302C78.3286 151.203 79.7897 150.598 81.3443 150.598C82.8989 150.598 84.3601 151.203 85.4594 152.302C86.5584 153.401 87.1638 154.862 87.1638 156.417C87.1638 157.971 86.5584 159.433 85.459 160.532L76.961 169.03Z" fill="white"/>
<path d="M14.8946 96.7296H48.6048C49.2324 96.7296 49.8395 96.5056 50.3166 96.0985L57.0189 90.3778C58.9954 88.6914 61.514 87.7629 64.1114 87.7629H84.2902C85.7467 87.7629 86.9269 86.5827 86.9269 85.1261C86.9269 83.6696 85.7467 82.4894 84.2902 82.4894H64.1114C60.2603 82.4894 56.526 83.8665 53.5957 86.3665L47.6324 91.4564H14.8946C13.438 91.4564 12.2578 92.6366 12.2578 94.0932C12.2578 95.5497 13.4384 96.7296 14.8946 96.7296Z" fill="white"/>
<path d="M90.3948 55.7567L88.0596 63.0394C87.611 64.4396 88.028 65.9795 89.1217 66.9621C90.2151 67.9448 91.7905 68.1944 93.1363 67.5992L101.401 63.9352C101.785 63.765 102.226 63.765 102.61 63.9352L110.875 67.5992C111.36 67.8143 111.876 67.9191 112.388 67.9191C113.294 67.9191 114.19 67.59 114.889 66.9621C115.983 65.9795 116.4 64.4396 115.951 63.0394C115.951 63.0394 115.951 63.0394 115.951 63.039L113.616 55.7567L118.762 49.4404C119.895 48.0489 120.121 46.1775 119.351 44.5561C118.581 42.9354 116.987 41.9282 115.192 41.9282H109.856L105.917 35.5827C105.072 34.2204 103.61 33.4073 102.006 33.4073C100.402 33.4073 98.9399 34.2204 98.0944 35.5827L94.1555 41.9285H88.8187C87.0243 41.9285 85.4306 42.9354 84.6604 44.5565C83.8904 46.1775 84.1158 48.0493 85.2496 49.4408L90.3948 55.7567ZM94.5278 47.202C96.1316 47.202 97.5941 46.3885 98.4393 45.0262L102.006 39.2809L105.572 45.0258C106.418 46.3885 107.88 47.202 109.484 47.202H113.784L109.299 52.7075C108.311 53.9201 108.007 55.5324 108.485 57.0213L109.886 61.3919L104.748 59.1141C103.006 58.3417 101.006 58.3417 99.2637 59.1141L94.1263 61.3919L95.5273 57.0213C96.0047 55.5327 95.7002 53.9204 94.7127 52.7072L90.2278 47.202H94.5278Z" fill="white"/>
<path d="M102.006 25.9308C103.462 25.9308 104.643 24.7506 104.643 23.2941V19.6367C104.643 18.1802 103.462 17 102.006 17C100.549 17 99.3691 18.1802 99.3691 19.6367V23.2937C99.3691 24.7503 100.549 25.9308 102.006 25.9308Z" fill="white"/>
<path d="M79.3196 33.9286C79.8347 34.4433 80.5097 34.7007 81.1843 34.7007C81.859 34.7007 82.534 34.4433 83.049 33.9286C84.0788 32.8985 84.0788 31.2293 83.049 30.1996L80.4633 27.6138C79.4332 26.5844 77.764 26.5844 76.7342 27.6138C75.7045 28.6439 75.7045 30.3131 76.7342 31.3429L79.3196 33.9286Z" fill="white"/>
<path d="M122.827 34.7007C123.501 34.7007 124.176 34.4433 124.691 33.9286L127.277 31.3429C128.307 30.3128 128.307 28.6435 127.277 27.6138C126.247 26.5844 124.578 26.5844 123.548 27.6138L120.962 30.1996C119.933 31.2297 119.933 32.8989 120.962 33.9286C121.477 34.4433 122.152 34.7007 122.827 34.7007Z" fill="white"/>
</svg>
