<svg width="204" height="204" viewBox="0 0 204 204" fill="none" xmlns="http://www.w3.org/2000/svg">
<path d="M181.15 14H63.15C60.8028 14 58.5518 14.9324 56.8921 16.5921C55.2324 18.2518 54.3 20.5028 54.3 22.85V26.4136C43.8364 27.9801 39.4674 32.1986 37.7505 34.7415C34.3959 35.0951 31.2105 36.3932 28.5642 38.485C25.4214 40.9754 23.269 44.5042 22.4931 48.4383C22.0637 50.7003 21.8484 52.9976 21.85 55.3C21.9794 63.4278 22.9833 71.5181 24.8442 79.431C24.9443 81.9586 25.8695 84.3838 27.4784 86.3358C29.0873 88.2878 31.2913 89.659 33.7533 90.2398C34.1736 94.9627 35.7238 99.5152 38.2729 103.513C40.8221 107.511 44.2955 110.838 48.4 113.211V121.675L38.4968 129.103C31.6486 129.375 25.1709 132.285 20.4187 137.223C15.6666 142.162 13.0083 148.746 13 155.6V179.2C13 182.33 14.2432 185.331 16.4561 187.544C18.6691 189.757 21.6704 191 24.8 191H101.5C104.63 191 107.631 189.757 109.844 187.544C112.057 185.331 113.3 182.33 113.3 179.2V155.6C113.297 154.614 113.239 153.629 113.126 152.65H151.65C153.215 152.65 154.715 152.028 155.822 150.922C156.928 149.815 157.55 148.315 157.55 146.75C157.539 143.73 156.37 140.83 154.285 138.646C152.199 136.461 149.356 135.16 146.34 135.009C144.147 134.509 142.134 133.413 140.525 131.841C138.917 130.268 137.774 128.281 137.225 126.1H181.15C183.497 126.1 185.748 125.168 187.408 123.508C189.068 121.848 190 119.597 190 117.25V22.85C190 20.5028 189.068 18.2518 187.408 16.5921C185.748 14.9324 183.497 14 181.15 14V14ZM60.2 22.85C60.2 22.0676 60.5108 21.3173 61.064 20.764C61.6173 20.2108 62.3676 19.9 63.15 19.9H181.15C181.932 19.9 182.683 20.2108 183.236 20.764C183.789 21.3173 184.1 22.0676 184.1 22.85V105.45H86.75C90.1129 101.064 92.1747 95.8211 92.7001 90.3195C95.1326 89.6788 97.2958 88.276 98.8731 86.3166C100.45 84.3572 101.358 81.9441 101.465 79.431C103.322 71.5177 104.323 63.4275 104.45 55.3H116.25C117.032 55.3 117.783 54.9892 118.336 54.436C118.889 53.8827 119.2 53.1324 119.2 52.35C119.2 51.5676 118.889 50.8173 118.336 50.264C117.783 49.7108 117.032 49.4 116.25 49.4H103.943C103.889 49.0726 103.863 48.7392 103.801 48.4147C103.454 46.6899 102.836 45.031 101.969 43.5H131C131.782 43.5 132.533 43.1892 133.086 42.636C133.639 42.0827 133.95 41.3324 133.95 40.55C133.95 39.7676 133.639 39.0173 133.086 38.464C132.533 37.9108 131.782 37.6 131 37.6H96.485C94.1074 36.0132 91.3783 35.031 88.5348 34.7385C87.4026 33.141 85.9721 31.7777 84.3222 30.7236C79.4399 27.4579 72.3157 25.8 63.15 25.8C62.1264 25.8 61.1469 25.8236 60.2 25.8619V22.85ZM28.2899 49.5475C28.7861 46.9928 30.1876 44.7029 32.2369 43.0988C34.3139 41.4424 36.8934 40.5434 39.55 40.55C40.1478 40.531 40.7272 40.3389 41.2179 39.9969C41.7085 39.655 42.0894 39.1779 42.3142 38.6237C42.3437 38.5529 45.3674 31.7 63.15 31.7C73.0886 31.7 78.3632 33.8358 81.0477 35.6324C82.2498 36.3326 83.2507 37.3315 83.9534 38.5322C84.149 39.1194 84.5243 39.6302 85.0262 39.9923C85.528 40.3544 86.1311 40.5495 86.75 40.55C89.3759 40.5205 91.9312 41.3995 93.9832 43.0382C96.0353 44.6768 97.4579 46.9743 98.0101 49.5416C98.1871 50.4591 98.3052 51.3913 98.4054 52.3353V52.35C98.4054 52.3707 98.4054 52.3884 98.4054 52.4119C98.4969 53.3678 98.5412 54.3324 98.5412 55.3C98.4922 60.2033 98.0701 65.0957 97.2785 69.935C95.897 68.7673 94.2646 67.9345 92.5084 67.5012C91.972 63.2768 90.1807 59.3105 87.3661 56.1151C84.5514 52.9197 80.8429 50.6422 76.72 49.577C75.873 49.3317 74.9709 49.3546 74.1374 49.6425C73.304 49.9303 72.58 50.4691 72.0649 51.1847C71.0399 52.5596 69.6873 53.6563 68.1303 54.3751C66.5733 55.0938 64.8613 55.4118 63.15 55.3C61.4218 55.4112 59.6934 55.0852 58.1244 54.352C56.5555 53.6188 55.1966 52.5022 54.1731 51.1051C53.6556 50.4114 52.9378 49.893 52.1165 49.6198C51.2953 49.3465 50.41 49.3316 49.58 49.577C49.3705 49.636 49.1316 49.7098 48.8661 49.7983C44.887 50.9463 41.3286 53.229 38.6263 56.3673C35.9239 59.5055 34.1947 63.3633 33.65 67.4688C31.9342 67.9174 30.3425 68.7496 28.9949 69.9025C28.2107 65.0736 27.7946 60.192 27.75 55.3C27.7489 53.3698 27.9297 51.4438 28.2899 49.5475ZM39.6326 89.7501C39.5118 88.5256 39.0085 87.3702 38.1941 86.4478C37.3797 85.5254 36.2956 84.8828 35.0955 84.6112C33.8298 84.281 32.7098 83.5395 31.9115 82.5033C31.1131 81.4672 30.6817 80.1951 30.6851 78.8871C30.6885 77.5791 31.1264 76.3092 31.9301 75.2772C32.7338 74.2452 33.8577 73.5096 35.125 73.1859C36.3085 72.9118 37.3786 72.279 38.189 71.3741C38.9995 70.4691 39.5108 69.336 39.6532 68.1296C40.0233 65.253 41.2109 62.5431 43.075 60.3213C44.9391 58.0995 47.4015 56.4592 50.17 55.595C51.776 57.4413 53.7761 58.9034 56.0227 59.8735C58.2692 60.8436 60.7049 61.2969 63.15 61.2C65.5951 61.2969 68.0308 60.8436 70.2774 59.8735C72.5239 58.9034 74.524 57.4413 76.13 55.595C77.1208 55.9539 78.0808 56.393 79.0004 56.9077C81.1046 58.0008 82.9049 59.5986 84.2404 61.558C85.5758 63.5174 86.4046 65.7773 86.6526 68.1355V68.159C86.8003 69.3594 87.3134 70.4854 88.1223 71.3846C88.9312 72.2837 89.9969 72.9125 91.175 73.1859C92.4423 73.5099 93.5659 74.2458 94.3693 75.2781C95.1728 76.3103 95.6104 77.5802 95.6134 78.8882C95.6165 80.1963 95.1847 81.4682 94.3861 82.5042C93.5875 83.5401 92.4673 84.2813 91.2016 84.6112C90.0023 84.8818 88.9187 85.5234 88.1048 86.4448C87.2908 87.3662 86.7879 88.5207 86.6674 89.7442C86.1769 95.6445 83.4866 101.145 79.1301 105.154C74.7736 109.164 69.0692 111.389 63.1485 111.389C57.2279 111.389 51.5235 109.164 47.167 105.154C42.8105 101.145 40.1201 95.6445 39.6297 89.7442L39.6326 89.7501ZM101.5 133.54C97.4329 130.824 92.6907 129.292 87.8032 129.115L83.8 126.1H107.061C106.719 127.665 106.046 129.14 105.087 130.423C104.128 131.706 102.905 132.769 101.5 133.54ZM74.95 126.838L82.3456 132.384L74.95 140.26L67.5544 132.384L74.95 126.838ZM63.15 117.25C66.1547 117.243 69.1402 116.771 72 115.849V121.675L63.15 128.312L54.3 121.675V115.849C57.1597 116.771 60.1453 117.244 63.15 117.25ZM51.35 126.838L58.7457 132.384L51.35 140.26L43.9544 132.384L51.35 126.838ZM107.4 179.2C107.4 180.765 106.778 182.265 105.672 183.372C104.565 184.478 103.065 185.1 101.5 185.1H24.8C23.2352 185.1 21.7345 184.478 20.6281 183.372C19.5216 182.265 18.9 180.765 18.9 179.2V155.6C18.9066 150.339 20.9213 145.278 24.5326 141.452C28.1439 137.626 33.0795 135.322 38.3316 135.012L47.9988 145.337C48.4354 145.79 48.9595 146.15 49.5394 146.395C50.1193 146.64 50.7429 146.765 51.3723 146.761C52.0018 146.758 52.624 146.627 53.2013 146.376C53.7786 146.125 54.2989 145.76 54.7307 145.302L63.15 136.313L71.5988 145.325C72.0354 145.779 72.5595 146.139 73.1394 146.383C73.7193 146.628 74.3429 146.753 74.9723 146.75C75.6018 146.746 76.224 146.615 76.8013 146.364C77.3786 146.113 77.8989 145.748 78.3307 145.29L87.9684 135.012C93.2205 135.322 98.1561 137.626 101.767 141.452C105.379 145.278 107.393 150.339 107.4 155.6V179.2ZM151.65 146.75H111.751C111.019 144.667 110.028 142.685 108.801 140.85H145.75C147.315 140.85 148.815 141.472 149.922 142.578C151.028 143.685 151.65 145.185 151.65 146.75ZM135.295 134.95H109.002C111.19 132.459 112.604 129.383 113.07 126.1H131.236C131.691 129.385 133.103 132.463 135.295 134.95ZM181.15 120.2H77.9V113.217C78.8865 112.649 79.8399 112.026 80.7556 111.35H184.1V117.25C184.1 118.032 183.789 118.783 183.236 119.336C182.683 119.889 181.932 120.2 181.15 120.2Z" fill="white"/>
<path d="M160.5 61C163.961 61 167.345 59.9736 170.222 58.0507C173.1 56.1278 175.343 53.3947 176.668 50.197C177.992 46.9993 178.339 43.4806 177.664 40.0859C176.988 36.6913 175.322 33.5731 172.874 31.1256C170.427 28.6782 167.309 27.0115 163.914 26.3363C160.519 25.661 157.001 26.0076 153.803 27.3321C150.605 28.6566 147.872 30.8997 145.949 33.7775C144.026 36.6554 143 40.0388 143 43.5C143.005 48.1399 144.85 52.5884 148.131 55.8693C151.412 59.1501 155.86 60.9954 160.5 61ZM160.5 55.1667C158.424 55.1565 156.389 54.5851 154.611 53.5129L161.708 46.4167H171.752C171.108 48.9138 169.654 51.1268 167.618 52.71C165.582 54.2931 163.079 55.157 160.5 55.1667ZM171.752 40.5833H163.417V32.2475C165.422 32.7691 167.252 33.8167 168.718 35.2822C170.183 36.7476 171.231 38.5776 171.752 40.5833ZM157.583 32.2475V42.2925L150.487 49.3888C149.415 47.6109 148.843 45.5761 148.833 43.5C148.843 40.921 149.707 38.418 151.29 36.3821C152.873 34.3462 155.086 32.8922 157.583 32.2475Z" fill="white"/>
<path d="M105 91C104.204 91 103.441 91.3161 102.879 91.8787C102.316 92.4413 102 93.2044 102 94V97C102 97.7956 102.316 98.5587 102.879 99.1213C103.441 99.6839 104.204 100 105 100C105.796 100 106.559 99.6839 107.121 99.1213C107.684 98.5587 108 97.7956 108 97V94C108 93.2044 107.684 92.4413 107.121 91.8787C106.559 91.3161 105.796 91 105 91Z" fill="white"/>
<path d="M116.5 82C115.837 82 115.201 82.3161 114.732 82.8787C114.263 83.4413 114 84.2044 114 85V97C114 97.7956 114.263 98.5587 114.732 99.1213C115.201 99.6839 115.837 100 116.5 100C117.163 100 117.799 99.6839 118.268 99.1213C118.737 98.5587 119 97.7956 119 97V85C119 84.2044 118.737 83.4413 118.268 82.8787C117.799 82.3161 117.163 82 116.5 82Z" fill="white"/>
<path d="M128 73C127.204 73 126.441 73.3161 125.879 73.8787C125.316 74.4413 125 75.2044 125 76V97C125 97.7956 125.316 98.5587 125.879 99.1213C126.441 99.6839 127.204 100 128 100C128.796 100 129.559 99.6839 130.121 99.1213C130.684 98.5587 131 97.7956 131 97V76C131 75.2044 130.684 74.4413 130.121 73.8787C129.559 73.3161 128.796 73 128 73Z" fill="white"/>
<path d="M140 100C140.796 100 141.559 99.6839 142.121 99.1213C142.684 98.5587 143 97.7956 143 97V88C143 87.2044 142.684 86.4413 142.121 85.8787C141.559 85.3161 140.796 85 140 85C139.204 85 138.441 85.3161 137.879 85.8787C137.316 86.4413 137 87.2044 137 88V97C137 97.7956 137.316 98.5587 137.879 99.1213C138.441 99.6839 139.204 100 140 100Z" fill="white"/>
<path d="M151 79C150.204 79 149.441 79.3161 148.879 79.8787C148.316 80.4413 148 81.2044 148 82V97C148 97.7956 148.316 98.5587 148.879 99.1213C149.441 99.6839 150.204 100 151 100C151.796 100 152.559 99.6839 153.121 99.1213C153.684 98.5587 154 97.7956 154 97V82C154 81.2044 153.684 80.4413 153.121 79.8787C152.559 79.3161 151.796 79 151 79Z" fill="white"/>
<path d="M164 73C163.204 73 162.441 73.3161 161.879 73.8787C161.316 74.4413 161 75.2044 161 76V97C161 97.7956 161.316 98.5587 161.879 99.1213C162.441 99.6839 163.204 100 164 100C164.796 100 165.559 99.6839 166.121 99.1213C166.684 98.5587 167 97.7956 167 97V76C167 75.2044 166.684 74.4413 166.121 73.8787C165.559 73.3161 164.796 73 164 73Z" fill="white"/>
<path d="M175.5 67C174.837 67 174.201 67.3161 173.732 67.8787C173.263 68.4413 173 69.2044 173 70V97C173 97.7956 173.263 98.5587 173.732 99.1213C174.201 99.6839 174.837 100 175.5 100C176.163 100 176.799 99.6839 177.268 99.1213C177.737 98.5587 178 97.7956 178 97V70C178 69.2044 177.737 68.4413 177.268 67.8787C176.799 67.3161 176.163 67 175.5 67Z" fill="white"/>
</svg>
