<svg width="162" height="162" viewBox="0 0 162 162" fill="none" xmlns="http://www.w3.org/2000/svg">
<path d="M101.136 44.2331C101.135 40.2507 99.954 36.358 97.7411 33.0471C95.5282 29.7361 92.3833 27.1557 88.7039 25.6321C85.0246 24.1085 80.9761 23.7102 77.0703 24.4874C73.1646 25.2647 69.577 27.1826 66.7613 29.9987C63.9455 32.8149 62.0281 36.4027 61.2513 40.3085C60.4746 44.2144 60.8735 48.2629 62.3976 51.942C63.9217 55.6212 66.5026 58.7658 69.8138 60.9782C73.125 63.1906 77.0179 64.3714 81.0003 64.3714C86.339 64.3649 91.4573 62.2411 95.2321 58.4657C99.0069 54.6904 101.13 49.5719 101.136 44.2331ZM65.6338 44.2331C65.6344 41.194 66.5361 38.2233 68.2249 35.6967C69.9137 33.1701 72.3138 31.2009 75.1217 30.0383C77.9296 28.8757 81.0192 28.5718 83.9998 29.165C86.9804 29.7582 89.7182 31.2219 91.8669 33.3711C94.0157 35.5202 95.4789 38.2583 96.0716 41.239C96.6643 44.2197 96.3598 47.3092 95.1967 50.1169C94.0336 52.9246 92.064 55.3243 89.5371 57.0127C87.0102 58.7011 84.0393 59.6022 81.0003 59.6022C76.9258 59.5975 73.0196 57.9767 70.1388 55.0954C67.258 52.214 65.6378 48.3075 65.6338 44.2331Z" fill="black"/>
<path d="M161.843 158.76L142.403 107.797C142.231 107.346 141.926 106.958 141.528 106.684C141.13 106.41 140.658 106.263 140.175 106.263H103.384C103.609 105.896 103.833 105.541 104.057 105.173C118.214 81.7355 125.338 61.2333 125.235 44.244C125.237 32.5118 120.579 21.2592 112.284 12.9619C103.99 4.66451 92.7386 0.0019883 81.0064 6.35772e-07C69.2741 -0.00198702 58.0216 4.65672 49.7243 12.9513C41.4269 21.2458 36.7644 32.4968 36.7624 44.229C36.6602 61.2333 43.784 81.7382 57.9404 105.173C58.1653 105.545 58.3887 105.9 58.6136 106.263H21.8225C21.3395 106.263 20.8679 106.41 20.4701 106.684C20.0723 106.958 19.767 107.346 19.5946 107.797L0.157982 158.76C0.01949 159.121 -0.0290064 159.51 0.0166834 159.894C0.0623732 160.278 0.200875 160.645 0.420222 160.964C0.639568 161.282 0.933163 161.542 1.27564 161.722C1.61812 161.902 1.99917 161.995 2.38589 161.995H159.615C160.001 161.995 160.382 161.902 160.725 161.722C161.067 161.542 161.361 161.282 161.58 160.964C161.8 160.645 161.938 160.278 161.984 159.894C162.03 159.51 161.981 159.121 161.843 158.76ZM41.533 44.2331C41.5339 39.0502 42.5556 33.9182 44.5398 29.1301C46.5241 24.3421 49.432 19.9918 53.0975 16.3275C56.763 12.6633 61.1143 9.75687 65.9031 7.77428C70.6918 5.79169 75.8242 4.77173 81.0071 4.77262C86.19 4.77352 91.322 5.79525 96.11 7.7795C100.898 9.76374 105.248 12.6716 108.913 16.3371C112.577 20.0027 115.483 24.354 117.466 29.1427C119.448 33.9315 120.468 39.0638 120.468 44.2467C120.672 78.1191 89.0044 119.896 81.0003 129.914C72.9962 119.9 41.3272 78.1341 41.533 44.2331ZM79.1839 135.228C79.4077 135.492 79.6861 135.703 79.9997 135.848C80.3134 135.993 80.6547 136.068 81.0003 136.068C81.3458 136.068 81.6872 135.993 82.0008 135.848C82.3144 135.703 82.5928 135.492 82.8167 135.228C89.1479 127.516 95.0175 119.435 100.395 111.029H138.531L141.583 119.035L67.0592 145.539L40.496 111.025H61.6032C66.981 119.433 72.8515 127.514 79.1839 135.228ZM66.976 150.626H66.9897L111.448 134.82L128.692 157.225H48.4333L66.976 150.626ZM23.4672 111.025H34.4772L62.3322 147.22L34.2034 157.224H5.84697L23.4672 111.025ZM134.717 157.225L116.173 133.131L143.289 123.488L156.156 157.225H134.717Z" fill="black"/>
</svg>
