<svg width="161" height="162" viewBox="0 0 161 162" fill="none" xmlns="http://www.w3.org/2000/svg">
<path d="M96.2258 102.088C98.2185 102.088 100.082 101.297 101.474 99.8623L113.835 87.1098C116.656 84.1989 116.598 79.5211 113.705 76.682C110.811 73.8435 106.162 73.9024 103.34 76.813L96.0887 84.2935L94.8183 83.0506C91.9209 80.2169 87.2714 80.2818 84.4536 83.1968C81.6367 86.1119 81.7018 90.7896 84.5992 93.6243L91.1165 100.001C92.4923 101.347 94.307 102.088 96.2258 102.088ZM87.8428 86.5121C88.844 85.4762 90.4958 85.4547 91.5238 86.4605L94.4856 89.3585C95.4201 90.2732 96.9144 90.2527 97.8251 89.3139L106.724 80.1337C107.727 79.0994 109.378 79.0794 110.405 80.0869C111.432 81.0952 111.453 82.7564 110.451 83.7901L98.0898 96.5422C97.1345 97.5702 95.3944 97.592 94.4117 96.5916L87.8943 90.2153C86.8658 89.2085 86.8422 87.5471 87.8428 86.5121Z" fill="black"/>
<path d="M77.9577 103.706C77.1715 102.658 75.6902 102.449 74.6474 103.24C73.6053 104.031 73.3984 105.522 74.1842 106.57C75.0449 107.718 75.9971 108.818 77.0134 109.841C82.8242 115.687 90.55 118.907 98.7676 118.907C106.985 118.907 114.711 115.687 120.521 109.841C126.333 103.995 129.532 96.2223 129.532 87.9549C129.532 79.6872 126.332 71.9147 120.521 66.0688C108.526 54.0008 89.0088 54.0011 77.0134 66.0688C68.8354 74.2963 65.9415 86.2986 69.4612 97.3918C69.858 98.6428 71.1888 99.3326 72.4312 98.9339C73.6745 98.5346 74.361 97.1965 73.9638 95.9458C70.9844 86.5555 73.4336 76.3957 80.356 69.4316C90.5078 59.2177 107.027 59.2177 117.179 69.4316C122.097 74.3795 124.806 80.9579 124.806 87.9553C124.806 94.9526 122.097 101.531 117.179 106.479C112.261 111.427 105.723 114.152 98.7676 114.152C91.8128 114.152 85.2738 111.427 80.3557 106.479C79.4935 105.611 78.6866 104.678 77.9577 103.706Z" fill="black"/>
<path d="M157.748 131.394L142.839 116.394C141.915 115.465 140.419 115.465 139.496 116.394L139.405 116.486L133.667 110.713C137.524 104.73 139.822 97.8167 140.274 90.6017C140.356 89.2911 139.367 88.1618 138.064 88.0789C136.763 87.9992 135.639 88.9921 135.557 90.3023C134.992 99.3101 131.184 107.79 124.833 114.179C117.656 121.4 108.231 125.015 98.8032 125.024C98.7913 125.023 98.7796 125.022 98.7673 125.022H98.5796C89.2026 124.974 79.8401 121.361 72.7014 114.179C65.7388 107.174 61.9043 97.861 61.9043 87.9546C61.9043 78.0482 65.7388 68.7348 72.7014 61.7302C87.0741 47.2698 110.461 47.2698 124.833 61.7302C130.187 67.1161 133.719 73.9096 135.05 81.3772C135.28 82.6697 136.509 83.5284 137.793 83.2981C139.078 83.0665 139.932 81.8309 139.702 80.538C138.2 72.1099 134.215 64.4434 128.176 58.3675C125.183 55.3569 121.844 52.9038 118.286 51.0044V31.8409C118.285 31.2151 118.033 30.6025 117.594 30.1595L88.3093 0.69641C87.8687 0.25534 87.2603 0.00158203 86.6376 0H7.0898C3.18052 0 -0.000173828 3.19982 -0.000173828 7.13306V27.1182C-0.000173828 28.4313 1.05765 29.496 2.36326 29.496C3.66855 29.496 4.72669 28.4316 4.72669 27.1182V7.13306C4.72669 5.82188 5.78671 4.75527 7.09012 4.75527H84.2752V27.0856C84.2752 31.0189 87.4558 34.2187 91.3651 34.2187H113.56V48.8509C108.949 47.093 104.088 46.1899 99.2186 46.1371C99.1953 46.1339 99.1727 46.1292 99.1485 46.1292H46.3832C45.0779 46.1292 44.0198 47.1939 44.0198 48.507C44.0198 49.8201 45.0779 50.8848 46.3832 50.8848H79.4719C76.1006 52.6585 72.9228 54.9291 70.0449 57.6954H46.3832C45.0779 57.6954 44.0198 58.7601 44.0198 60.0732C44.0198 61.3863 45.0779 62.451 46.3832 62.451H65.7913C61.9336 67.479 59.2972 73.2699 58.0353 79.4515H46.3835C45.0783 79.4515 44.0201 80.5162 44.0201 81.8293C44.0201 83.1424 45.0783 84.2071 46.3835 84.2071H57.3451C57.2363 85.4464 57.1787 86.6963 57.1787 87.9552C57.1787 88.988 57.2161 90.015 57.2894 91.0348H46.3839C45.0786 91.0348 44.0204 92.0995 44.0204 93.4126C44.0204 94.7257 45.0786 95.7904 46.3839 95.7904H57.9054C59.1107 102.226 61.798 108.257 65.7985 113.468H46.3839C45.0786 113.468 44.0204 114.532 44.0204 115.846C44.0204 117.159 45.0786 118.224 46.3839 118.224H70.0543C72.9281 120.985 76.1009 123.252 79.4662 125.023H46.3826C45.0773 125.023 44.0192 126.088 44.0192 127.401C44.0192 128.714 45.0773 129.779 46.3826 129.779H98.7673C103.787 129.778 108.806 128.871 113.56 127.059V154.868C113.56 156.179 112.5 157.246 111.196 157.246H7.0898C5.78671 157.246 4.72637 156.179 4.72637 154.868V36.6304C4.72637 35.3173 3.66824 34.2526 2.36294 34.2526C1.05765 34.2526 -0.000488281 35.3169 -0.000488281 36.6304V154.868C-0.000173828 158.8 3.18052 162 7.0898 162H111.197C115.106 162 118.287 158.8 118.287 154.867V124.904C119.341 124.341 120.377 123.728 121.389 123.068L127.126 128.839C126.133 129.711 126.08 131.373 127.034 132.294L141.945 147.294C146.104 151.656 153.589 151.656 157.748 147.294C162.084 143.11 162.083 135.579 157.748 131.394ZM91.3648 29.4634C90.0617 29.4634 89.0014 28.3968 89.0014 27.0856V8.11804L110.218 29.4634H91.3648ZM125.245 120.221C126.253 119.382 127.232 118.491 128.176 117.542C129.113 116.598 130.001 115.613 130.838 114.593L136.062 119.848L130.468 125.476L125.245 120.221ZM154.406 143.932C152.006 146.449 147.687 146.448 145.287 143.932L132.048 130.612L141.167 121.437L154.406 134.757C156.908 137.172 156.908 141.517 154.406 143.932Z" fill="black"/>
<path d="M21.4469 64.8009H31.7861C34.7011 64.8009 37.0727 62.4152 37.0727 59.4828V49.0806C37.0727 46.1479 34.7014 43.7621 31.7861 43.7621H21.4469C18.5323 43.7621 16.1606 46.1479 16.1606 49.0806V59.4828C16.1606 62.4152 18.5323 64.8009 21.4469 64.8009ZM20.8875 49.0806C20.8875 48.7702 21.1388 48.5177 21.4469 48.5177H31.7861C32.0949 48.5177 32.3459 48.7702 32.3459 49.0806V59.4828C32.3459 59.7932 32.0946 60.0457 31.7861 60.0457H21.4469C21.1384 60.0457 20.8875 59.7932 20.8875 59.4828V49.0806Z" fill="black"/>
<path d="M16.1606 92.8216C16.1606 95.754 18.5319 98.1397 21.4469 98.1397H31.7861C34.7011 98.1397 37.0727 95.754 37.0727 92.8216V82.4194C37.0727 79.487 34.7014 77.1013 31.7861 77.1013H21.4469C18.5323 77.1013 16.1606 79.487 16.1606 82.4194V92.8216ZM20.8875 82.4194C20.8875 82.109 21.1388 81.8565 21.4469 81.8565H31.7861C32.0949 81.8565 32.3459 82.109 32.3459 82.4194V92.8216C32.3459 93.132 32.0946 93.3845 31.7861 93.3845H21.4469C21.1384 93.3845 20.8875 93.132 20.8875 92.8216V82.4194Z" fill="black"/>
<path d="M16.1606 126.838C16.1606 129.77 18.5319 132.156 21.4469 132.156H31.7861C34.7011 132.156 37.0727 129.77 37.0727 126.838V116.436C37.0727 113.503 34.7014 111.117 31.7861 111.117H21.4469C18.5323 111.117 16.1606 113.503 16.1606 116.436V126.838ZM20.8875 116.436C20.8875 116.125 21.1388 115.873 21.4469 115.873H31.7861C32.0949 115.873 32.3459 116.125 32.3459 116.436V126.838C32.3459 127.148 32.0946 127.401 31.7861 127.401H21.4469C21.1384 127.401 20.8875 127.148 20.8875 126.838V116.436Z" fill="black"/>
</svg>
