<svg width="163" height="163" viewBox="0 0 163 163" fill="none" xmlns="http://www.w3.org/2000/svg">
<path d="M81.8079 0.970581C78.9065 0.970581 76.0072 1.12655 73.1224 1.43748C70.4783 1.70756 67.8667 2.15049 65.2901 2.68795C64.7915 2.79227 64.2925 2.90233 63.7938 3.01745C48.613 6.4738 34.7511 14.2356 23.8706 25.372C22.8588 26.4091 21.8683 27.4769 20.8997 28.5751C-8.49178 62.3176 -4.96453 113.498 28.7783 142.889C61.0826 171.028 109.709 169.156 139.754 138.617C140.768 137.58 141.758 136.512 142.725 135.413C155.696 120.642 162.844 101.652 162.832 81.9943C162.832 37.2457 126.556 0.970243 81.8079 0.970581ZM27.4708 29.4232C27.8975 28.9803 28.3404 28.5562 28.7752 28.1268C29.2776 27.6326 29.7772 27.1356 30.2904 26.6576C30.7414 26.2362 31.206 25.8311 31.6678 25.4206C32.1891 24.9588 32.7076 24.4969 33.2424 24.0513C33.7123 23.6543 34.1958 23.2735 34.6765 22.89C35.2167 22.4578 35.7568 22.0257 36.3132 21.6098C36.8047 21.2398 37.3044 20.8806 37.8067 20.5295C38.3658 20.1297 38.9276 19.7192 39.4974 19.3465C40.0079 19.0008 40.5237 18.6659 41.0423 18.3337C41.6203 17.9637 42.2009 17.5991 42.787 17.2534C43.3147 16.9384 43.8457 16.6285 44.3805 16.3243C44.9784 15.984 45.5786 15.6518 46.1819 15.3277C46.7221 15.0397 47.2622 14.7578 47.8024 14.4824C48.4182 14.1718 49.0394 13.872 49.6632 13.5776C50.2034 13.321 50.7652 13.0644 51.3215 12.8214C51.9562 12.5513 52.599 12.2812 53.2418 12.0111C53.8009 11.7816 54.3572 11.5574 54.9217 11.3413C55.5753 11.0929 56.237 10.8606 56.8987 10.6283C57.4632 10.4312 58.0276 10.234 58.6002 10.0476C59.2727 9.83158 59.9506 9.63172 60.6312 9.43456C61.2011 9.26981 61.7655 9.09966 62.3381 8.94571C62.5569 8.889 62.7756 8.84308 62.9944 8.78637C55 16.5488 49.0674 26.1826 45.7336 36.8153C39.3232 35.1246 33.1175 32.7364 27.2277 29.6933C27.3168 29.5987 27.3924 29.5042 27.4708 29.4232ZM23.587 33.7715C30.0747 37.2866 36.9543 40.0245 44.0834 41.9279C40.5886 54.0802 38.754 66.6494 38.6305 79.2935H6.24785C6.83629 62.6198 12.9337 46.6114 23.587 33.7715ZM23.587 130.217C12.9344 117.377 6.83696 101.369 6.24785 84.6951H38.6305C38.754 97.3393 40.5882 109.908 44.0834 122.061C36.9546 123.965 30.075 126.702 23.587 130.217ZM62.3219 155.054C61.7763 154.916 61.2119 154.738 60.6501 154.573C59.9668 154.373 59.2808 154.173 58.6056 153.954C58.0357 153.771 57.474 153.574 56.9122 153.377C56.2478 153.147 55.5834 152.912 54.9271 152.661C54.3653 152.447 53.8117 152.223 53.2553 151.996C52.6098 151.726 51.9643 151.456 51.3242 151.186C50.7733 150.943 50.225 150.693 49.6795 150.435C49.0502 150.138 48.4236 149.836 47.7889 149.522C47.2487 149.252 46.7086 148.982 46.1684 148.688C45.558 148.361 44.953 148.026 44.3481 147.681C43.8079 147.381 43.2948 147.073 42.7735 146.76C42.1793 146.403 41.596 146.036 41.0126 145.66C40.4994 145.334 39.9863 145.001 39.4812 144.661C38.906 144.272 38.3361 143.867 37.7716 143.462C37.2774 143.108 36.7831 142.754 36.297 142.382C35.7379 141.96 35.1896 141.525 34.6441 141.088C34.166 140.707 33.6907 140.329 33.2235 139.937C32.6833 139.489 32.162 139.022 31.6381 138.557C31.179 138.149 30.7171 137.747 30.2688 137.331C29.7529 136.85 29.2533 136.351 28.7509 135.856C28.3161 135.427 27.8732 135.003 27.4464 134.563C27.3681 134.479 27.2925 134.393 27.2142 134.312C33.1036 131.267 39.3094 128.878 45.7201 127.187C49.0546 137.819 54.9869 147.453 62.9809 155.216C62.7621 155.159 62.5407 155.113 62.3219 155.054ZM79.1074 157.403C67.5507 155.761 57.42 143.7 51.0461 125.888C60.2612 123.824 69.6651 122.717 79.1074 122.585V157.403ZM79.1074 117.183C69.0908 117.315 59.1164 118.504 49.35 120.732C45.9588 109.015 44.1698 96.8923 44.0321 84.6951H79.1074V117.183ZM79.1074 79.2935H44.0321C44.1695 67.0963 45.9584 54.9738 49.35 43.2567C59.1164 45.4839 69.0911 46.6736 79.1074 46.8056V79.2935ZM79.1074 41.404C69.6647 41.2723 60.2612 40.1653 51.0461 38.1009C57.42 20.2891 67.5507 8.2273 79.1074 6.58521V41.404ZM140.029 33.7715C150.682 46.6118 156.779 62.6201 157.369 79.2935H124.986C124.862 66.6494 123.028 54.0802 119.533 41.9279C126.662 40.0235 133.541 37.2859 140.029 33.7715ZM101.273 8.93221C101.84 9.07265 102.405 9.2509 102.966 9.41565C103.65 9.61551 104.336 9.81537 105.011 10.0341C105.581 10.2178 106.142 10.4149 106.704 10.6121C107.369 10.8417 108.033 11.0766 108.689 11.3278C109.251 11.5412 109.805 11.7654 110.361 11.9922C111.007 12.2623 111.652 12.5324 112.292 12.8025C112.843 13.0455 113.391 13.2957 113.937 13.5533C114.566 13.8504 115.193 14.1529 115.828 14.4662C116.368 14.7362 116.908 15.0063 117.448 15.3007C118.058 15.6275 118.663 15.9624 119.268 16.3081C119.808 16.6079 120.322 16.9158 120.843 17.2291C121.437 17.5856 122.02 17.9529 122.604 18.3283C123.117 18.6551 123.63 18.9873 124.135 19.3276C124.71 19.7165 125.278 20.1189 125.842 20.5241C126.339 20.8779 126.833 21.2344 127.322 21.6044C127.878 22.023 128.424 22.4578 128.972 22.8954C129.448 23.2735 129.926 23.6516 130.393 24.0459C130.933 24.4942 131.454 24.9615 131.978 25.426C132.437 25.8338 132.899 26.2362 133.348 26.6522C133.863 27.1329 134.363 27.6326 134.865 28.1268C135.3 28.5562 135.743 28.9803 136.17 29.4205C136.248 29.5042 136.324 29.5906 136.402 29.6717C130.513 32.7161 124.307 35.1053 117.896 36.7964C114.555 26.1627 108.615 16.5299 100.614 8.77016C100.833 8.82688 101.054 8.87279 101.273 8.93221ZM84.509 6.58521C96.0657 8.2273 106.196 20.2891 112.57 38.1009C103.355 40.1643 93.9513 41.2713 84.509 41.404V6.58521ZM84.509 46.8056C94.5256 46.6739 104.5 45.4842 114.266 43.2567C117.658 54.9738 119.447 67.0963 119.584 79.2935H84.509V46.8056ZM84.509 84.6951H119.584C119.447 96.8923 117.658 109.015 114.266 120.732C104.5 118.505 94.5256 117.315 84.509 117.183V84.6951ZM84.509 157.403V122.585C93.9517 122.716 103.355 123.823 112.57 125.888C106.196 143.7 96.0657 155.761 84.509 157.403ZM136.146 134.565C135.719 135.006 135.279 135.43 134.844 135.859C134.342 136.353 133.839 136.853 133.323 137.334C132.875 137.752 132.413 138.144 131.954 138.563C131.43 139.027 130.909 139.492 130.374 139.94C129.901 140.334 129.421 140.715 128.94 141.099C128.4 141.531 127.86 141.963 127.303 142.379C126.812 142.749 126.312 143.108 125.81 143.459C125.251 143.859 124.689 144.269 124.119 144.642C123.609 144.988 123.093 145.323 122.574 145.652C121.996 146.025 121.414 146.385 120.827 146.733C120.287 147.049 119.771 147.356 119.239 147.662C118.641 148.002 118.039 148.334 117.434 148.658C116.894 148.946 116.354 149.228 115.814 149.504C115.198 149.814 114.577 150.114 113.953 150.408C113.413 150.665 112.851 150.921 112.295 151.165C111.66 151.435 111.017 151.705 110.375 151.975C109.816 152.202 109.259 152.429 108.697 152.642C108.038 152.893 107.377 153.128 106.712 153.358C106.151 153.555 105.589 153.752 105.019 153.936C104.344 154.154 103.668 154.354 102.98 154.551C102.415 154.719 101.848 154.886 101.278 155.04C101.06 155.097 100.841 155.143 100.622 155.2C108.616 147.437 114.549 137.803 117.883 127.171C124.293 128.861 130.499 131.25 136.389 134.293C136.3 134.39 136.224 134.484 136.146 134.565ZM140.029 130.217C133.542 126.702 126.662 123.964 119.533 122.061C123.028 109.908 124.862 97.3393 124.986 84.6951H157.369C156.78 101.369 150.683 117.377 140.029 130.217Z" fill="white"/>
</svg>
