<svg width="182" height="182" viewBox="0 0 182 182" fill="none" xmlns="http://www.w3.org/2000/svg">
<path d="M162.163 163.984L141.607 109.937C143.638 108.723 145.403 107.112 146.797 105.199C148.295 103.141 149.32 100.778 149.8 98.2776C150.279 95.7776 150.202 93.2026 149.572 90.7361C149.04 88.5794 149.129 86.3161 149.83 84.2082C150.531 82.1002 151.814 80.2339 153.532 78.8253C155.52 77.1956 157.122 75.1443 158.22 72.8199C159.318 70.4955 159.887 67.9561 159.883 65.3852C159.88 62.8144 159.306 60.2763 158.201 57.9547C157.097 55.633 155.491 53.5858 153.498 51.961C151.787 50.5469 150.511 48.6772 149.818 46.5681C149.124 44.4591 149.042 42.1968 149.581 40.0431C150.206 37.5809 150.28 35.0113 149.799 32.5171C149.318 30.0228 148.294 27.6651 146.799 25.6117C145.265 23.5024 143.286 21.7571 141.001 20.5002C138.716 19.2433 136.182 18.5057 133.58 18.3399C131.341 18.1892 129.188 17.4186 127.362 16.1143C125.536 14.81 124.109 13.0234 123.24 10.9544C122.268 8.58585 120.791 6.45797 118.911 4.71923C117.032 2.98048 114.795 1.67275 112.359 0.887254C109.887 0.0790451 107.268 -0.180374 104.686 0.127081C102.104 0.434535 99.6196 1.30147 97.4066 2.66744C95.4771 3.84632 93.2597 4.47008 90.9985 4.47008C88.7373 4.47008 86.52 3.84632 84.5904 2.66744C82.3775 1.30141 79.8933 0.43445 77.311 0.126994C74.7286 -0.180462 72.1103 0.0789874 69.6385 0.887254C67.2025 1.67339 64.9672 2.98137 63.0884 4.72002C61.2097 6.45866 59.7328 8.58614 58.7606 10.9541C57.8895 13.027 56.4581 14.8163 54.627 16.1212C52.7959 17.4262 50.6375 18.1952 48.3937 18.3422C45.7957 18.5106 43.2668 19.2495 40.9868 20.5063C38.7068 21.7632 36.7319 23.5071 35.2024 25.6139C33.7048 27.6723 32.6796 30.0358 32.2001 32.5358C31.7205 35.0358 31.7984 37.6108 32.4281 40.0773C32.9603 42.234 32.8708 44.4973 32.17 46.6053C31.4691 48.7133 30.1855 50.5796 28.4679 51.9883C26.4796 53.618 24.8784 55.6693 23.7799 57.9936C22.6815 60.318 22.1134 62.8574 22.1166 65.4283C22.1198 67.9991 22.6943 70.5371 23.7985 72.8587C24.9027 75.1804 26.5091 77.2276 28.5014 78.8523C30.2127 80.2664 31.4887 82.136 32.1819 84.2449C32.8751 86.3537 32.9572 88.6158 32.4187 90.7694C31.7941 93.2316 31.7196 95.8012 32.2005 98.2954C32.6814 100.79 33.706 103.147 35.2013 105.201C36.5958 107.112 38.3613 108.722 40.3923 109.935L19.8368 163.984C19.6431 164.492 19.5992 165.045 19.7104 165.577C19.8217 166.11 20.0833 166.599 20.4642 166.987C20.8451 167.375 21.3294 167.646 21.8596 167.767C22.3898 167.888 22.9435 167.854 23.4552 167.67L45.8443 159.622L57.2222 180.516C57.4663 180.965 57.8271 181.34 58.2665 181.601C58.7058 181.862 59.2075 182 59.7187 182C59.7827 182 59.8464 181.997 59.9104 181.993C60.453 181.956 60.9737 181.765 61.4108 181.441C61.8479 181.118 62.1831 180.676 62.3765 180.167L81.6215 129.594C82.6547 129.203 83.6496 128.718 84.5933 128.144C86.5225 126.965 88.7394 126.342 90.9999 126.342C93.2605 126.342 95.4773 126.965 97.4066 128.144L97.4095 128.145C98.3507 128.711 99.3422 129.19 100.371 129.574L119.623 180.165C119.817 180.673 120.152 181.115 120.589 181.439C121.026 181.762 121.547 181.954 122.09 181.991C122.154 181.995 122.217 181.997 122.281 181.997C122.792 181.997 123.294 181.859 123.733 181.598C124.173 181.337 124.534 180.962 124.778 180.513L136.156 159.62L158.545 167.667C159.056 167.852 159.61 167.885 160.14 167.764C160.67 167.643 161.155 167.372 161.536 166.984C161.917 166.596 162.178 166.107 162.289 165.575C162.401 165.042 162.357 164.489 162.163 163.981V163.984ZM59.2606 172.366L49.674 154.763C49.3492 154.168 48.8224 153.708 48.1884 153.467C47.5545 153.225 46.8552 153.218 46.2166 153.447L27.3489 160.228L45.6743 112.048C46.5778 112.26 47.4961 112.402 48.4213 112.473C50.6602 112.623 52.813 113.394 54.639 114.698C56.465 116.002 57.892 117.789 58.7606 119.858C59.7329 122.226 61.2102 124.354 63.0895 126.093C64.9688 127.832 67.2047 129.139 69.6414 129.925C71.3988 130.492 73.2331 130.786 75.0798 130.795L59.2606 172.366ZM81.6022 123.305C80.0927 124.237 78.3978 124.829 76.636 125.038C74.8742 125.247 73.0879 125.07 71.402 124.517C69.7511 123.986 68.2359 123.102 66.9619 121.925C65.688 120.749 64.686 119.308 64.0258 117.705C62.7484 114.65 60.6453 112.011 57.9524 110.085C55.2596 108.158 52.0833 107.019 48.7796 106.796C47.0132 106.683 45.2935 106.182 43.7427 105.329C42.1918 104.476 40.848 103.291 39.8068 101.86C38.7996 100.476 38.1103 98.8866 37.7882 97.2054C37.4662 95.5242 37.5192 93.7927 37.9435 92.1344C38.7364 88.9332 38.6074 85.573 37.5715 82.442C36.5356 79.311 34.635 76.5369 32.0894 74.4403C30.7473 73.344 29.6664 71.9626 28.9251 70.3962C28.1839 68.8299 27.8009 67.1181 27.8041 65.3853C27.8073 63.6524 28.1965 61.942 28.9436 60.3784C29.6906 58.8148 30.7766 57.4373 32.1227 56.3461C34.6621 54.2443 36.5554 51.4672 37.584 48.3354C38.6126 45.2036 38.7344 41.8447 37.9356 38.6466C37.5161 36.9924 37.4664 35.266 37.7899 33.5904C38.1134 31.9148 38.8022 30.3311 39.8073 28.9519C40.8526 27.5174 42.2015 26.3311 43.7577 25.4776C45.314 24.6241 47.0394 24.1244 48.8109 24.014C52.1094 23.7869 55.2795 22.6464 57.9667 20.7201C60.6538 18.7939 62.752 16.1579 64.0264 13.1071C64.686 11.5034 65.6878 10.063 66.9618 8.88665C68.2359 7.71027 69.7514 6.82625 71.4025 6.29635C73.0891 5.74432 74.8757 5.56678 76.6379 5.77611C78.4 5.98543 80.0954 6.57659 81.6056 7.50836C84.4352 9.23627 87.6865 10.1505 91.0019 10.1505C94.3174 10.1505 97.5687 9.23627 100.398 7.50836C101.908 6.57683 103.603 5.9858 105.365 5.77647C107.126 5.56715 108.912 5.74456 110.599 6.29635C112.249 6.82716 113.765 7.71168 115.039 8.88822C116.312 10.0648 117.314 11.505 117.975 13.1086C119.252 16.1634 121.355 18.802 124.048 20.7287C126.741 22.6554 129.917 23.794 133.221 24.0169C134.987 24.1303 136.707 24.6313 138.258 25.4845C139.809 26.3377 141.152 27.5221 142.194 28.9534C143.201 30.3374 143.89 31.9267 144.212 33.6079C144.534 35.2891 144.481 37.0207 144.057 38.679C143.264 41.8802 143.393 45.2404 144.429 48.3714C145.465 51.5024 147.365 54.2764 149.911 56.3731C151.253 57.4693 152.334 58.8508 153.075 60.4171C153.817 61.9834 154.2 63.6952 154.196 65.4281C154.193 67.1609 153.804 68.8713 153.057 70.4349C152.31 71.9985 151.224 73.376 149.878 74.4673C147.338 76.5689 145.445 79.3458 144.416 82.4775C143.388 85.6091 143.266 88.9679 144.064 92.1659C144.484 93.8201 144.534 95.5465 144.21 97.2221C143.887 98.8977 143.198 100.481 142.193 101.861C141.147 103.295 139.799 104.481 138.242 105.335C136.686 106.189 134.961 106.688 133.189 106.798C129.891 107.026 126.72 108.166 124.033 110.092C121.346 112.019 119.248 114.655 117.973 117.705C117.314 119.309 116.312 120.749 115.038 121.926C113.764 123.102 112.248 123.986 110.597 124.516C108.911 125.07 107.124 125.248 105.362 125.039C103.599 124.83 101.904 124.237 100.394 123.304C97.5647 121.576 94.3135 120.662 90.9981 120.663C87.6828 120.663 84.4317 121.577 81.6022 123.305ZM135.783 153.446C135.145 153.217 134.445 153.224 133.811 153.465C133.177 153.706 132.65 154.167 132.326 154.762L122.739 172.365L106.922 130.801C108.769 130.79 110.602 130.495 112.359 129.927C114.796 129.141 117.032 127.833 118.912 126.094C120.791 124.355 122.269 122.227 123.242 119.858C124.112 117.785 125.543 115.995 127.374 114.69C129.204 113.385 131.363 112.617 133.606 112.47C134.522 112.4 135.432 112.259 136.327 112.05L154.651 160.227L135.783 153.446Z" fill="black"/>
<path d="M133.656 65.4063C133.656 56.9696 131.155 48.7225 126.467 41.7077C121.78 34.6929 115.118 29.2256 107.324 25.997C99.5294 22.7685 90.9527 21.9237 82.6782 23.5696C74.4037 25.2155 66.8031 29.2781 60.8375 35.2437C54.8719 41.2093 50.8093 48.8099 49.1634 57.0844C47.5175 65.3589 48.3622 73.9357 51.5908 81.7301C54.8193 89.5245 60.2867 96.1865 67.3015 100.874C74.3163 105.561 82.5634 108.063 91 108.063C102.309 108.05 113.152 103.552 121.149 95.5549C129.146 87.558 133.644 76.7155 133.656 65.4063ZM91 102.375C83.6883 102.375 76.5408 100.207 70.4613 96.1446C64.3818 92.0825 59.6434 86.3087 56.8453 79.5536C54.0473 72.7984 53.3152 65.3652 54.7416 58.194C56.1681 51.0228 59.689 44.4356 64.8592 39.2654C70.0293 34.0952 76.6165 30.5743 83.7878 29.1478C90.959 27.7214 98.3922 28.4535 105.147 31.2516C111.903 34.0497 117.676 38.788 121.738 44.8675C125.801 50.947 127.969 58.0945 127.969 65.4063C127.958 75.2076 124.059 84.6043 117.129 91.5349C110.198 98.4655 100.801 102.364 91 102.375Z" fill="black"/>
<path d="M113.617 55.9767L99.7505 53.9619L93.5494 41.3982C93.2878 40.9547 92.915 40.5872 92.4679 40.3319C92.0208 40.0765 91.5148 39.9422 91 39.9422C90.4851 39.9422 89.9791 40.0765 89.532 40.3319C89.0849 40.5872 88.7122 40.9547 88.4505 41.3982L82.2495 53.9619L68.3833 55.9767C67.8579 56.0526 67.3643 56.2741 66.9583 56.6161C66.5522 56.9581 66.25 57.407 66.0859 57.9118C65.9217 58.4167 65.9022 58.9574 66.0294 59.4728C66.1567 59.9882 66.4257 60.4577 66.8059 60.8281L76.8424 70.6078L74.4735 84.417C74.3842 84.9396 74.4427 85.4768 74.6425 85.968C74.8423 86.4591 75.1755 86.8846 75.6043 87.1963C76.0332 87.5081 76.5407 87.6938 77.0695 87.7324C77.5983 87.7711 78.1274 87.6611 78.597 87.4149L91 80.8956L103.402 87.4149C103.872 87.6611 104.401 87.7711 104.93 87.7324C105.459 87.6938 105.966 87.5081 106.395 87.1963C106.824 86.8846 107.157 86.4591 107.357 85.968C107.557 85.4768 107.615 84.9396 107.526 84.417L105.157 70.6078L115.193 60.8281C115.574 60.4577 115.843 59.9882 115.97 59.4728C116.097 58.9574 116.078 58.4167 115.913 57.9118C115.749 57.407 115.447 56.9581 115.041 56.6161C114.635 56.2741 114.141 56.0526 113.616 55.9767H113.617ZM100.117 67.5792C99.7876 67.9013 99.541 68.2987 99.3987 68.7371C99.2564 69.1756 99.2228 69.6421 99.3006 70.0964L100.947 79.6998L92.3217 75.166C91.914 74.9516 91.4601 74.8395 90.9994 74.8395C90.5387 74.8395 90.0848 74.9516 89.6771 75.166L81.0525 79.6987L82.6993 70.0953C82.7772 69.6409 82.7435 69.1745 82.6012 68.736C82.459 68.2975 82.2124 67.9002 81.8826 67.578L74.9043 60.7769L84.5466 59.3758C85.0031 59.3096 85.4365 59.1333 85.8096 58.8621C86.1826 58.5909 86.484 58.2329 86.6877 57.8191L91 49.0831L95.3128 57.8197C95.5165 58.2335 95.8179 58.5914 96.1909 58.8626C96.564 59.1339 96.9974 59.3102 97.4539 59.3764L107.096 60.7775L100.117 67.5792Z" fill="black"/>
</svg>
