<svg width="178" height="178" viewBox="0 0 178 178" fill="none" xmlns="http://www.w3.org/2000/svg">
<path d="M86.2482 67.9877L112.804 38.481C116.075 34.847 115.78 29.2496 112.146 25.979C108.512 22.7084 102.915 23.003 99.6443 26.637L79.3289 49.2097L77.0775 46.9553C73.5727 43.615 68.0626 43.615 64.5578 46.9553C62.8974 48.6155 61.9646 50.8672 61.9646 53.2152C61.9646 55.5632 62.8974 57.8149 64.5578 59.475L73.4098 68.3271C75.1272 70.0438 77.4745 70.9797 79.9019 70.9156C82.3294 70.8514 84.6239 69.7928 86.2482 67.9877ZM77.5821 64.1519L68.7301 55.2998C67.963 54.559 67.6554 53.4619 67.9254 52.4303C68.1955 51.3987 69.0011 50.593 70.0328 50.323C71.0644 50.0529 72.1615 50.3605 72.9023 51.1276L77.3578 55.5802C77.9301 56.1522 78.7123 56.4642 79.5212 56.443C80.3301 56.4218 81.0948 56.0693 81.6363 55.468L104.029 30.588C104.734 29.8037 105.803 29.4549 106.835 29.673C107.866 29.8912 108.703 30.6431 109.03 31.6456C109.357 32.648 109.124 33.7487 108.42 34.533L81.8635 64.0397C81.3219 64.6419 80.5566 64.995 79.7469 65.0162C78.9373 65.0374 78.1545 64.7249 77.5821 64.1519Z" fill="black"/>
<path d="M168.188 67.967H143.556C139.984 67.9667 136.855 70.3631 135.926 73.8123H127.531C141.49 53.3446 137.254 25.5681 117.827 10.1926C98.4007 -5.18285 70.3937 -2.92631 53.6795 15.361C36.9653 33.6483 37.2303 61.7449 54.2865 79.7137L41.1147 79.696C40.1791 76.2532 37.0519 73.8648 33.4842 73.8684H8.85202C3.96318 73.8684 0 77.8316 0 82.7204V135.833C0 140.721 3.96318 144.685 8.85202 144.685H23.4815C27.0679 144.68 30.1991 142.255 31.1001 138.783H36.187L32.8557 147.635C31.8876 150.193 31.9779 153.032 33.1068 155.523C34.2358 158.015 36.3104 159.954 38.8722 160.913C41.4732 161.876 44.3517 161.755 46.8626 160.577C46.8773 160.612 46.8832 160.651 46.898 160.686C48.0384 163.197 50.1355 165.147 52.7221 166.102C55.3088 167.058 58.1701 166.939 60.6688 165.773C61.782 168.318 63.8764 170.305 66.4761 171.283C69.0759 172.261 71.9606 172.146 74.475 170.966C74.4897 170.999 74.4927 171.034 74.5074 171.069C76.2265 174.878 80.0712 177.275 84.2477 177.143C88.4241 177.011 92.1092 174.374 93.5835 170.465L93.7606 169.995L103.793 174.896C106.26 176.088 109.1 176.245 111.683 175.332C114.266 174.42 116.378 172.513 117.549 170.037C118.726 167.527 118.854 164.651 117.906 162.046L118.009 162.011C120.606 161.089 122.728 159.168 123.901 156.674C125.074 154.18 125.202 151.321 124.256 148.733L124.35 148.697C126.948 147.777 129.07 145.855 130.244 143.362C131.417 140.868 131.546 138.008 130.6 135.419C132.095 134.89 133.447 134.021 134.551 132.882H145.94C146.842 136.353 149.973 138.778 153.559 138.783H168.188C173.077 138.783 177.04 134.82 177.04 129.931V76.8191C177.04 71.9302 173.077 67.967 168.188 67.967ZM47.2108 47.3123C47.1846 29.0495 59.1536 12.9368 76.6458 7.6871C94.1379 2.43744 113.001 9.29685 123.036 24.5561C133.07 39.8154 131.893 59.8527 120.143 73.833L92.5036 73.8684C89.1336 73.8707 85.9204 75.2921 83.6516 77.7839L81.8517 79.7697L62.9998 79.7432C53.0031 71.9576 47.1733 59.9831 47.2108 47.3123ZM23.4815 138.783H8.85202C7.22241 138.783 5.90134 137.462 5.90134 135.833V82.7204C5.90134 81.0908 7.22241 79.7697 8.85202 79.7697H33.4842C34.078 79.7699 34.6411 80.0333 35.0217 80.4891C35.4023 80.9449 35.5611 81.546 35.4553 82.1303L25.4555 137.137C25.2826 138.091 24.4512 138.784 23.4815 138.783ZM40.9406 155.39C39.8448 154.98 38.9575 154.151 38.4756 153.085C37.9936 152.019 37.9569 150.805 38.3735 149.712L42.5398 138.662C43.4537 136.479 45.9231 135.401 48.1451 136.216C50.3672 137.03 51.5557 139.448 50.843 141.704L46.6206 152.82C45.7542 155.091 43.2184 156.238 40.9406 155.39ZM54.7468 160.571C53.6508 160.162 52.7629 159.333 52.279 158.268C51.7952 157.202 51.7552 155.989 52.1679 154.894C52.5161 153.976 57.4791 140.816 57.3729 141.123C58.2941 138.933 60.7808 137.86 63.006 138.694C65.2313 139.528 66.4008 141.971 65.6554 144.227L60.4534 158.001C59.5794 160.279 57.032 161.426 54.7468 160.571ZM68.553 165.764C67.457 165.355 66.5691 164.526 66.0852 163.461C65.6014 162.396 65.5614 161.182 65.9741 160.087L71.1791 146.313C72.0963 144.115 74.5883 143.037 76.8183 143.874C79.0482 144.71 80.2163 147.161 79.4616 149.42C78.6826 151.486 73.9557 163.991 74.2596 163.191C73.8441 164.289 73.0094 165.177 71.9392 165.66C70.869 166.142 69.6509 166.18 68.553 165.764ZM82.3562 170.946C81.2598 170.537 80.3715 169.708 79.888 168.642C79.4046 167.577 79.3658 166.363 79.7803 165.268L82.9021 157.007C83.8452 154.849 86.3124 153.808 88.5161 154.637C90.7199 155.466 91.8887 157.875 91.1758 160.119L88.054 168.381C87.1852 170.66 84.6375 171.806 82.3562 170.946ZM131.228 127.571C130.154 129.731 127.557 130.646 125.365 129.636L117.398 125.83C115.955 125.251 114.31 125.891 113.639 127.294C112.967 128.696 113.499 130.379 114.855 131.141L122.822 134.938L122.845 134.959C124.978 136.048 125.858 138.636 124.831 140.799C123.804 142.962 121.243 143.916 119.051 142.952L110.494 138.854C109.048 138.261 107.39 138.898 106.714 140.307C106.037 141.716 106.577 143.408 107.944 144.165L116.501 148.264C118.62 149.36 119.489 151.939 118.464 154.094C117.44 156.249 114.892 157.205 112.704 156.254H112.66L104.581 152.374C103.132 151.764 101.459 152.398 100.777 153.814C100.096 155.231 100.645 156.933 102.025 157.685L110.14 161.58C112.335 162.653 113.256 165.294 112.205 167.499C111.706 168.548 110.81 169.355 109.715 169.743C108.621 170.13 107.416 170.066 106.369 169.565L95.8555 164.454L96.7053 162.203C98.0158 158.795 97.4123 154.947 95.1214 152.104C92.8305 149.26 89.1989 147.852 85.5902 148.408C85.7945 144.794 84.0814 141.34 81.081 139.315C78.0806 137.29 74.2358 136.994 70.9607 138.535C70.9607 138.5 70.9401 138.462 70.9253 138.426C69.629 135.556 67.09 133.436 64.0338 132.674C60.9777 131.912 57.7408 132.591 55.2484 134.517C52.432 130.315 46.9903 128.766 42.3835 130.855C41.3022 131.356 40.3159 132.041 39.4682 132.879H32.2272L40.8196 85.615L76.4932 85.6711L62.4746 101.094C58.2717 105.722 58.4267 112.829 62.8272 117.269C67.2278 121.709 74.3338 121.927 78.9984 117.766L94.4215 103.832L129.151 121.646C131.356 122.712 132.285 125.361 131.228 127.571ZM99.0983 99.6042L102.297 96.7155C103.507 95.6236 103.603 93.7576 102.511 92.5476C101.419 91.3376 99.5529 91.2419 98.343 92.3337L75.0563 113.36C72.734 115.44 69.1885 115.333 66.9964 113.116C64.8042 110.9 64.7361 107.353 66.8416 105.054L88.0245 81.7437C89.1763 80.4856 90.8037 79.7693 92.5095 79.7697C122.311 79.7461 125.539 79.7284 136.221 79.7137L144.813 126.98H137.436C138.034 122.59 135.753 118.31 131.774 116.358L99.0983 99.6042ZM171.139 129.931C171.139 131.561 169.818 132.882 168.188 132.882H153.559C152.59 132.883 151.759 132.191 151.585 131.238L141.585 76.2289C141.479 75.6447 141.638 75.0436 142.019 74.5878C142.399 74.132 142.962 73.8685 143.556 73.8684H168.188C169.818 73.8684 171.139 75.1895 171.139 76.8191V129.931Z" fill="black"/>
</svg>
