<svg width="144" height="182" viewBox="0 0 144 182" fill="none" xmlns="http://www.w3.org/2000/svg">
<path d="M143.163 163.984L122.607 109.937C124.638 108.723 126.403 107.112 127.797 105.199C129.295 103.141 130.32 100.778 130.8 98.2776C131.279 95.7776 131.202 93.2026 130.572 90.7361C130.04 88.5794 130.129 86.3161 130.83 84.2082C131.531 82.1002 132.814 80.2339 134.532 78.8253C136.52 77.1956 138.122 75.1443 139.22 72.8199C140.318 70.4955 140.887 67.9561 140.883 65.3852C140.88 62.8144 140.306 60.2763 139.201 57.9547C138.097 55.6331 136.491 53.5858 134.498 51.961C132.787 50.5469 131.511 48.6772 130.818 46.5681C130.124 44.4591 130.042 42.1969 130.581 40.0431C131.206 37.5809 131.28 35.0113 130.799 32.5171C130.318 30.0228 129.294 27.6651 127.799 25.6117C126.265 23.5024 124.286 21.7571 122.001 20.5002C119.716 19.2433 117.182 18.5057 114.58 18.3399C112.341 18.1893 110.188 17.4187 108.362 16.1144C106.536 14.8101 105.109 13.0235 104.24 10.9544C103.268 8.58587 101.791 6.45799 99.9111 4.71924C98.0316 2.9805 95.7954 1.67276 93.3585 0.887269C90.8867 0.0790603 88.2684 -0.180358 85.6861 0.127096C83.1038 0.434551 80.6196 1.30148 78.4066 2.66746C76.4771 3.84634 74.2597 4.47009 71.9985 4.47009C69.7373 4.47009 67.52 3.84634 65.5904 2.66746C63.3775 1.30143 60.8933 0.434465 58.311 0.127009C55.7286 -0.180446 53.1103 0.0790026 50.6385 0.887269C48.2025 1.67341 45.9672 2.98139 44.0884 4.72003C42.2097 6.45868 40.7328 8.58615 39.7606 10.9541C38.8895 13.027 37.4581 14.8163 35.627 16.1212C33.7959 17.4262 31.6375 18.1952 29.3937 18.3422C26.7957 18.5106 24.2668 19.2495 21.9868 20.5064C19.7068 21.7632 17.7319 23.5071 16.2024 25.614C14.7048 27.6723 13.6796 30.0358 13.2001 32.5358C12.7205 35.0358 12.7984 37.6108 13.4281 40.0773C13.9603 42.234 13.8708 44.4974 13.17 46.6053C12.4691 48.7133 11.1855 50.5796 9.46787 51.9883C7.47961 53.6181 5.87837 55.6693 4.77995 57.9936C3.68153 60.318 3.11338 62.8575 3.11659 65.4283C3.1198 67.9991 3.69429 70.5371 4.79852 72.8588C5.90274 75.1804 7.5091 77.2276 9.50143 78.8524C11.2127 80.2664 12.4887 82.136 13.1819 84.2449C13.8751 86.3538 13.9572 88.6158 13.4187 90.7694C12.7941 93.2316 12.7196 95.8012 13.2005 98.2955C13.6814 100.79 14.706 103.147 16.2013 105.201C17.5958 107.112 19.3613 108.722 21.3923 109.935L0.836805 163.984C0.643096 164.492 0.599243 165.045 0.71045 165.577C0.821657 166.11 1.08325 166.599 1.4642 166.987C1.84514 167.375 2.32943 167.646 2.85959 167.767C3.38976 167.888 3.94353 167.854 4.45519 167.67L26.8443 159.622L38.2222 180.516C38.4663 180.965 38.8271 181.34 39.2665 181.601C39.7058 181.862 40.2075 182 40.7187 182C40.7827 182 40.8464 181.997 40.9104 181.993C41.453 181.957 41.9737 181.765 42.4108 181.441C42.8479 181.118 43.1831 180.676 43.3765 180.167L62.6215 129.594C63.6547 129.203 64.6496 128.718 65.5933 128.144C67.5225 126.965 69.7394 126.342 71.9999 126.342C74.2605 126.342 76.4773 126.965 78.4066 128.144L78.4095 128.145C79.3507 128.712 80.3422 129.19 81.3712 129.574L100.623 180.165C100.817 180.673 101.152 181.115 101.589 181.439C102.026 181.762 102.547 181.954 103.09 181.991C103.154 181.995 103.217 181.997 103.281 181.997C103.792 181.997 104.294 181.859 104.733 181.598C105.173 181.337 105.534 180.962 105.778 180.513L117.156 159.62L139.545 167.668C140.056 167.852 140.61 167.885 141.14 167.764C141.67 167.643 142.155 167.372 142.536 166.984C142.917 166.596 143.178 166.107 143.289 165.575C143.401 165.042 143.357 164.489 143.163 163.981V163.984ZM40.2606 172.366L30.674 154.763C30.3492 154.168 29.8224 153.708 29.1884 153.467C28.5545 153.225 27.8552 153.218 27.2166 153.447L8.34886 160.228L26.6743 112.048C27.5778 112.26 28.4961 112.402 29.4213 112.473C31.6602 112.623 33.813 113.394 35.639 114.698C37.465 116.002 38.892 117.789 39.7606 119.858C40.7329 122.226 42.2102 124.354 44.0895 126.093C45.9688 127.832 48.2047 129.139 50.6414 129.925C52.3988 130.492 54.2331 130.786 56.0798 130.795L40.2606 172.366ZM62.6022 123.305C61.0927 124.237 59.3978 124.829 57.636 125.038C55.8742 125.247 54.0879 125.07 52.402 124.517C50.7511 123.986 49.2359 123.102 47.9619 121.925C46.688 120.749 45.686 119.308 45.0258 117.705C43.7484 114.65 41.6453 112.011 38.9524 110.085C36.2596 108.158 33.0833 107.019 29.7796 106.796C28.0132 106.683 26.2935 106.182 24.7427 105.329C23.1918 104.476 21.848 103.291 20.8068 101.86C19.7996 100.476 19.1103 98.8866 18.7882 97.2054C18.4662 95.5243 18.5192 93.7927 18.9435 92.1344C19.7364 88.9332 19.6074 85.573 18.5715 82.442C17.5356 79.311 15.635 76.5369 13.0894 74.4403C11.7473 73.3441 10.6664 71.9626 9.92514 70.3963C9.18388 68.8299 8.80093 67.1181 8.80412 65.3853C8.8073 63.6524 9.19655 61.942 9.94356 60.3784C10.6906 58.8149 11.7766 57.4374 13.1227 56.3461C15.6621 54.2443 17.5554 51.4672 18.584 48.3354C19.6126 45.2036 19.7344 41.8447 18.9356 38.6466C18.5161 36.9924 18.4664 35.2661 18.7899 33.5905C19.1134 31.9148 19.8022 30.3311 20.8073 28.952C21.8526 27.5174 23.2015 26.3312 24.7577 25.4776C26.314 24.6241 28.0394 24.1244 29.8109 24.0141C33.1094 23.7869 36.2795 22.6464 38.9667 20.7201C41.6538 18.7939 43.752 16.1579 45.0264 13.1071C45.686 11.5034 46.6878 10.063 47.9618 8.88667C49.2359 7.71028 50.7514 6.82626 52.4025 6.29637C54.0891 5.74434 55.8757 5.5668 57.6379 5.77612C59.4 5.98545 61.0954 6.5766 62.6056 7.50837C65.4352 9.23628 68.6865 10.1505 72.0019 10.1505C75.3174 10.1505 78.5687 9.23628 81.3983 7.50837C82.9081 6.57684 84.6029 5.98581 86.3646 5.77649C88.1263 5.56716 89.9124 5.74458 91.5985 6.29637C93.2494 6.82718 94.7646 7.71169 96.0386 8.88823C97.3125 10.0648 98.3145 11.505 98.9746 13.1086C100.252 16.1634 102.355 18.802 105.048 20.7287C107.741 22.6554 110.917 23.794 114.221 24.0169C115.987 24.1303 117.707 24.6313 119.258 25.4845C120.809 26.3377 122.152 27.5221 123.194 28.9534C124.201 30.3374 124.89 31.9268 125.212 33.6079C125.534 35.2891 125.481 37.0207 125.057 38.679C124.264 41.8802 124.393 45.2404 125.429 48.3714C126.465 51.5024 128.365 54.2764 130.911 56.3731C132.253 57.4693 133.334 58.8508 134.075 60.4171C134.817 61.9834 135.2 63.6952 135.196 65.4281C135.193 67.161 134.804 68.8714 134.057 70.4349C133.31 71.9985 132.224 73.376 130.878 74.4673C128.338 76.5689 126.445 79.3458 125.416 82.4775C124.388 85.6092 124.266 88.9679 125.064 92.166C125.484 93.8202 125.534 95.5465 125.21 97.2221C124.887 98.8977 124.198 100.481 123.193 101.861C122.147 103.295 120.799 104.481 119.242 105.335C117.686 106.189 115.961 106.688 114.189 106.798C110.891 107.026 107.72 108.166 105.033 110.092C102.346 112.019 100.248 114.655 98.9735 117.705C98.3139 119.309 97.3121 120.749 96.0381 121.926C94.764 123.102 93.2485 123.986 91.5974 124.516C89.9111 125.07 88.1242 125.248 86.3617 125.039C84.5993 124.83 82.9039 124.237 81.3943 123.304C78.5647 121.576 75.3135 120.662 71.9981 120.663C68.6828 120.663 65.4317 121.577 62.6022 123.305ZM116.783 153.446C116.145 153.217 115.445 153.224 114.811 153.465C114.177 153.706 113.65 154.167 113.326 154.762L103.739 172.365L87.9224 130.801C89.7686 130.79 91.6021 130.495 93.3585 129.927C95.7956 129.141 98.0319 127.833 99.9116 126.094C101.791 124.355 103.269 122.227 104.242 119.858C105.112 117.785 106.543 115.995 108.374 114.69C110.204 113.385 112.363 112.617 114.606 112.47C115.522 112.4 116.432 112.259 117.327 112.05L135.651 160.227L116.783 153.446Z" fill="white"/>
<path d="M114.656 65.4063C114.656 56.9697 112.155 48.7225 107.467 41.7077C102.78 34.6929 96.1183 29.2256 88.3239 25.997C80.5294 22.7685 71.9527 21.9237 63.6782 23.5696C55.4037 25.2155 47.8031 29.2782 41.8375 35.2437C35.8719 41.2093 31.8093 48.8099 30.1634 57.0844C28.5175 65.3589 29.3622 73.9357 32.5908 81.7301C35.8193 89.5245 41.2867 96.1865 48.3015 100.874C55.3163 105.561 63.5634 108.063 72 108.063C83.3093 108.05 94.1518 103.552 102.149 95.5549C110.146 87.558 114.644 76.7156 114.656 65.4063ZM72 102.375C64.6883 102.375 57.5408 100.207 51.4613 96.1447C45.3818 92.0825 40.6434 86.3088 37.8453 79.5536C35.0473 72.7984 34.3152 65.3653 35.7416 58.194C37.1681 51.0228 40.689 44.4356 45.8592 39.2654C51.0293 34.0952 57.6165 30.5743 64.7878 29.1479C71.959 27.7214 79.3922 28.4535 86.1473 31.2516C92.9025 34.0497 98.6762 38.7881 102.738 44.8675C106.801 50.947 108.969 58.0945 108.969 65.4063C108.958 75.2076 105.059 84.6043 98.1287 91.5349C91.1981 98.4655 81.8013 102.364 72 102.375Z" fill="white"/>
<path d="M94.6166 55.9767L80.7505 53.9619L74.5494 41.3982C74.2878 40.9548 73.915 40.5872 73.4679 40.3319C73.0208 40.0766 72.5148 39.9423 72 39.9423C71.4851 39.9423 70.9791 40.0766 70.532 40.3319C70.0849 40.5872 69.7122 40.9548 69.4505 41.3982L63.2495 53.9619L49.3833 55.9767C48.8579 56.0526 48.3643 56.2742 47.9583 56.6162C47.5522 56.9582 47.25 57.407 47.0859 57.9118C46.9217 58.4167 46.9022 58.9574 47.0294 59.4728C47.1567 59.9882 47.4257 60.4577 47.8059 60.8281L57.8424 70.6078L55.4735 84.417C55.3842 84.9397 55.4427 85.4769 55.6425 85.968C55.8423 86.4591 56.1755 86.8846 56.6043 87.1964C57.0332 87.5082 57.5407 87.6938 58.0695 87.7325C58.5983 87.7711 59.1274 87.6611 59.597 87.4149L72 80.8956L84.4024 87.4149C84.872 87.6611 85.4011 87.7711 85.9299 87.7325C86.4587 87.6938 86.9662 87.5082 87.395 87.1964C87.8239 86.8846 88.157 86.4591 88.3568 85.968C88.5567 85.4769 88.6152 84.9397 88.5258 84.417L86.157 70.6078L96.1935 60.8281C96.5737 60.4577 96.8427 59.9882 96.9699 59.4728C97.0972 58.9574 97.0776 58.4167 96.9135 57.9118C96.7493 57.407 96.4471 56.9582 96.0411 56.6162C95.6351 56.2742 95.1414 56.0526 94.616 55.9767H94.6166ZM81.1173 67.5792C80.7876 67.9013 80.541 68.2987 80.3987 68.7372C80.2564 69.1756 80.2228 69.6421 80.3006 70.0965L81.9474 79.6998L73.3217 75.166C72.914 74.9516 72.4601 74.8395 71.9994 74.8395C71.5387 74.8395 71.0848 74.9516 70.6771 75.166L62.0525 79.6987L63.6993 70.0953C63.7772 69.641 63.7435 69.1745 63.6012 68.736C63.459 68.2975 63.2124 67.9002 62.8826 67.578L55.9043 60.7769L65.5466 59.3758C66.0031 59.3096 66.4365 59.1333 66.8096 58.8621C67.1826 58.5909 67.484 58.2329 67.6877 57.8191L72 49.0831L76.3128 57.8197C76.5165 58.2335 76.8179 58.5914 77.1909 58.8627C77.564 59.1339 77.9974 59.3102 78.4539 59.3764L88.0962 60.7775L81.1173 67.5792Z" fill="white"/>
</svg>
