<svg width="149" height="149" viewBox="0 0 149 149" fill="none" xmlns="http://www.w3.org/2000/svg">
<path d="M148.858 146.042L127.031 88.5462C126.85 88.0686 126.507 87.67 126.062 87.4194L102.814 74.322L109.602 63.5603C113.767 56.9501 115.969 49.3113 115.969 41.4696C115.969 18.6031 97.3662 0 74.4997 0C51.6332 0 33.0301 18.6031 33.0301 41.4696C33.0301 49.3133 35.2331 56.9525 39.401 63.5608C39.5125 63.7381 46.1866 74.3226 46.1866 74.3226L22.9377 87.4194C22.4927 87.67 22.1496 88.0686 21.9683 88.5462L0.142222 146.042C-0.184006 146.901 0.0630661 147.872 0.759465 148.472C1.45674 149.071 2.45346 149.17 3.25404 148.718L38.3411 128.951L73.4282 148.718C74.0932 149.093 74.906 149.093 75.5709 148.718L110.658 128.951L145.745 148.718C146.08 148.907 146.449 149 146.816 149C147.327 149 147.834 148.821 148.24 148.472C148.937 147.872 149.184 146.901 148.858 146.042ZM76.6826 113.121C78.0481 112.639 79.2319 111.71 80.0354 110.438C80.1463 110.264 98.727 80.8032 98.727 80.8032L108.191 125.331L76.6826 143.082V113.121ZM43.0934 61.2318C39.3658 55.3213 37.3956 48.4877 37.3956 41.4693C37.3956 21.0098 54.0405 4.36493 74.5 4.36493C94.9595 4.36493 111.604 21.0098 111.604 41.4693C111.604 48.4863 109.635 55.3205 105.91 61.2318C105.618 61.6937 76.8596 107.299 76.3579 108.087C76.3532 108.094 76.3491 108.101 76.3448 108.107C75.94 108.748 75.2505 109.13 74.5 109.13C73.7489 109.13 73.0563 108.746 72.6509 108.109C72.3593 107.646 43.5433 61.9504 43.1033 61.2479C43.1001 61.2426 43.0966 61.2374 43.0934 61.2318ZM25.7687 90.8345L46.1153 79.3722L42.5707 96.0486C42.3202 97.2278 43.0727 98.3866 44.2516 98.6374C44.4047 98.67 44.5575 98.6857 44.7077 98.6857C45.716 98.6857 46.6222 97.9824 46.8402 96.9565L50.2733 80.8046L68.9626 110.444C69.769 111.713 70.9537 112.639 72.3168 113.12V143.082L40.8095 125.331L45.0254 105.496C45.276 104.317 44.5234 103.158 43.3445 102.907C42.1642 102.655 41.0062 103.409 40.7557 104.588L36.4111 125.028L6.36208 141.957L25.7687 90.8345ZM112.589 125.028L102.885 79.372L123.231 90.8345L142.638 141.957L112.589 125.028Z" fill="black"/>
<path d="M98.5088 41.4693C98.5088 28.231 87.7383 17.4605 74.5 17.4605C61.2617 17.4605 50.4912 28.231 50.4912 41.4693C50.4912 54.7075 61.2617 65.478 74.5 65.478C87.7383 65.478 98.5088 54.7075 98.5088 41.4693ZM54.8564 41.4693C54.8564 30.6377 63.6684 21.8257 74.5 21.8257C85.3316 21.8257 94.1435 30.6377 94.1435 41.4693C94.1435 52.3008 85.3316 61.1128 74.5 61.1128C63.6684 61.1128 54.8564 52.3008 54.8564 41.4693Z" fill="black"/>
<path d="M89.7783 41.4692C89.7783 33.0449 82.9243 26.1909 74.5 26.1909C66.0757 26.1909 59.2217 33.0449 59.2217 41.4692C59.2217 49.8935 66.0757 56.7475 74.5 56.7475C82.9243 56.7475 89.7783 49.8935 89.7783 41.4692ZM63.5869 41.4692C63.5869 35.4516 68.4824 30.5561 74.5 30.5561C80.5176 30.5561 85.4131 35.4516 85.4131 41.4692C85.4131 47.4868 80.5176 52.3823 74.5 52.3823C68.4824 52.3823 63.5869 47.4868 63.5869 41.4692Z" fill="black"/>
</svg>
