<svg width="187" height="187" viewBox="0 0 187 187" fill="none" xmlns="http://www.w3.org/2000/svg">
<path d="M122.184 122.187C122.184 119.101 120.958 116.141 118.776 113.959C116.593 111.777 113.633 110.551 110.547 110.551H73.1066L75.6376 90.536C75.6519 90.42 75.6519 90.3028 75.6376 90.1869C75.6376 74.0703 64.2338 69.8229 58.1828 69.8229C57.5298 69.7988 56.8878 69.9951 56.36 70.3804C55.8323 70.7656 55.4496 71.3173 55.2736 71.9466L43.6371 112.355C41.6824 116.209 38.6505 119.413 34.9097 121.576V119.278C34.9097 118.507 34.6032 117.767 34.0576 117.221C33.512 116.676 32.7721 116.369 32.0005 116.369H2.90914C2.13759 116.369 1.39764 116.676 0.852067 117.221C0.306498 117.767 0 118.507 0 119.278L0 183.279C0 184.051 0.306498 184.791 0.852067 185.336C1.39764 185.882 2.13759 186.188 2.90914 186.188H32.0005C32.7721 186.188 33.512 185.882 34.0576 185.336C34.6032 184.791 34.9097 184.051 34.9097 183.279V181.33L51.579 186.188C51.839 186.233 52.1046 186.233 52.3645 186.188H101.82C104.024 186.157 106.173 185.501 108.019 184.296C109.864 183.09 111.329 181.386 112.244 179.38C113.158 177.375 113.484 175.151 113.184 172.967C112.883 170.784 111.969 168.73 110.547 167.046C111.988 166.179 113.224 165.01 114.17 163.619C115.115 162.228 115.748 160.648 116.025 158.989C116.301 157.33 116.215 155.631 115.771 154.009C115.328 152.386 114.538 150.879 113.456 149.591C114.897 148.724 116.133 147.555 117.079 146.164C118.024 144.773 118.657 143.194 118.934 141.535C119.21 139.876 119.124 138.176 118.681 136.554C118.237 134.931 117.447 133.424 116.366 132.137C118.116 131.126 119.573 129.678 120.593 127.933C121.613 126.188 122.161 124.208 122.184 122.187ZM29.0914 180.37H5.81828V122.187H29.0914V180.37ZM101.82 180.37H52.7718L34.9097 175.279V127.657C43.6371 125.649 48.9026 115.264 49.1353 114.769C49.2157 114.6 49.2838 114.425 49.339 114.245L60.3064 75.903C63.7101 76.6594 69.7611 79.4813 69.8193 90.0123L66.9102 113.111C66.8605 113.517 66.897 113.929 67.0173 114.32C67.1376 114.711 67.339 115.072 67.6084 115.38C67.8842 115.694 68.2245 115.945 68.606 116.116C68.9875 116.286 69.4014 116.373 69.8193 116.369H110.547C112.09 116.369 113.57 116.982 114.661 118.073C115.753 119.164 116.366 120.644 116.366 122.187C116.366 123.73 115.753 125.21 114.661 126.302C113.57 127.393 112.09 128.006 110.547 128.006H96.0016C95.23 128.006 94.4901 128.312 93.9445 128.858C93.3989 129.403 93.0924 130.143 93.0924 130.915C93.0924 131.686 93.3989 132.426 93.9445 132.972C94.4901 133.517 95.23 133.824 96.0016 133.824H107.638C109.181 133.824 110.661 134.437 111.752 135.528C112.843 136.619 113.456 138.099 113.456 139.642C113.456 141.185 112.843 142.665 111.752 143.756C110.661 144.848 109.181 145.46 107.638 145.46H93.0924C92.3209 145.46 91.5809 145.767 91.0353 146.313C90.4898 146.858 90.1833 147.598 90.1833 148.37C90.1833 149.141 90.4898 149.881 91.0353 150.427C91.5809 150.972 92.3209 151.279 93.0924 151.279H104.729C106.272 151.279 107.752 151.892 108.843 152.983C109.934 154.074 110.547 155.554 110.547 157.097C110.547 158.64 109.934 160.12 108.843 161.211C107.752 162.302 106.272 162.915 104.729 162.915H90.1833C89.4117 162.915 88.6718 163.222 88.1262 163.767C87.5806 164.313 87.2741 165.053 87.2741 165.824C87.2741 166.596 87.5806 167.336 88.1262 167.882C88.6718 168.427 89.4117 168.734 90.1833 168.734H101.82C103.363 168.734 104.843 169.347 105.934 170.438C107.025 171.529 107.638 173.009 107.638 174.552C107.638 176.095 107.025 177.575 105.934 178.666C104.843 179.757 103.363 180.37 101.82 180.37Z" fill="white"/>
<path d="M37.8188 43.6406H40.7279V46.5498C40.7279 47.3213 41.0344 48.0613 41.58 48.6069C42.1256 49.1524 42.8655 49.4589 43.6371 49.4589C44.4086 49.4589 45.1486 49.1524 45.6942 48.6069C46.2397 48.0613 46.5462 47.3213 46.5462 46.5498V43.6406H49.4554C50.2269 43.6406 50.9669 43.3341 51.5124 42.7886C52.058 42.243 52.3645 41.5031 52.3645 40.7315C52.3645 39.96 52.058 39.22 51.5124 38.6744C50.9669 38.1289 50.2269 37.8224 49.4554 37.8224H46.5462V34.9132C46.5462 34.1417 46.2397 33.4017 45.6942 32.8562C45.1486 32.3106 44.4086 32.0041 43.6371 32.0041C42.8655 32.0041 42.1256 32.3106 41.58 32.8562C41.0344 33.4017 40.7279 34.1417 40.7279 34.9132V37.8224H37.8188C37.0473 37.8224 36.3073 38.1289 35.7617 38.6744C35.2162 39.22 34.9097 39.96 34.9097 40.7315C34.9097 41.5031 35.2162 42.243 35.7617 42.7886C36.3073 43.3341 37.0473 43.6406 37.8188 43.6406Z" fill="white"/>
<path d="M157.094 145.46H154.184V142.551C154.184 141.78 153.878 141.04 153.332 140.494C152.787 139.949 152.047 139.642 151.275 139.642C150.504 139.642 149.764 139.949 149.218 140.494C148.673 141.04 148.366 141.78 148.366 142.551V145.46H145.457C144.685 145.46 143.945 145.767 143.4 146.313C142.854 146.858 142.548 147.598 142.548 148.37C142.548 149.141 142.854 149.881 143.4 150.427C143.945 150.972 144.685 151.279 145.457 151.279H148.366V154.188C148.366 154.959 148.673 155.699 149.218 156.245C149.764 156.791 150.504 157.097 151.275 157.097C152.047 157.097 152.787 156.791 153.332 156.245C153.878 155.699 154.184 154.959 154.184 154.188V151.279H157.094C157.865 151.279 158.605 150.972 159.151 150.427C159.696 149.881 160.003 149.141 160.003 148.37C160.003 147.598 159.696 146.858 159.151 146.313C158.605 145.767 157.865 145.46 157.094 145.46Z" fill="white"/>
<path d="M122.184 0.00359688C105.21 0.00359688 88.9306 6.74654 76.9281 18.7491C64.9256 30.7516 58.1826 47.0305 58.1826 64.0046C58.1826 64.7762 58.4891 65.5161 59.0347 66.0617C59.5803 66.6073 60.3202 66.9138 61.0918 66.9138C61.8633 66.9138 62.6033 66.6073 63.1488 66.0617C63.6944 65.5161 64.0009 64.7762 64.0009 64.0046C64.0043 52.9724 67.1443 42.1685 73.0545 32.853C78.9647 23.5375 87.4016 16.0942 97.3812 11.3914C107.361 6.68849 118.472 4.91982 129.418 6.29163C140.365 7.66344 150.696 12.1192 159.207 19.1392C167.717 26.1592 174.056 35.4542 177.485 45.9401C180.914 56.4259 181.291 67.6705 178.572 78.3624C175.853 89.0543 170.15 98.7529 162.129 106.327C154.107 113.901 144.098 119.038 133.267 121.14C132.496 121.213 131.785 121.59 131.291 122.188C130.798 122.785 130.561 123.554 130.635 124.326C130.708 125.097 131.085 125.808 131.682 126.302C132.28 126.795 133.049 127.032 133.82 126.958H134.373C150.144 124.075 164.258 115.377 173.923 102.587C183.589 89.7957 188.102 73.843 186.57 57.8842C185.038 41.9255 177.572 27.1229 165.649 16.4048C153.726 5.68674 138.215 -0.166282 122.184 0.00359688Z" fill="white"/>
<g clip-path="url(#clip0_60_20)">
<path d="M144.25 37.0312V31.5938H100.75V37.0312H115.703C118.704 37.0401 121.596 38.1538 123.828 40.1598C126.059 42.1658 127.474 44.9235 127.802 47.9062H100.75V53.3438H127.802C127.474 56.3265 126.059 59.0842 123.828 61.0902C121.596 63.0962 118.704 64.2099 115.703 64.2188H100.75V70.5942L126.896 94.125L130.534 90.0849L107.835 69.6562H115.703C120.151 69.6498 124.434 67.9672 127.696 64.9438C130.959 61.9205 132.962 57.7785 133.307 53.3438H144.25V47.9062H133.307C132.995 43.8239 131.269 39.9781 128.427 37.0312H144.25Z" fill="white"/>
</g>
<defs>
<clipPath id="clip0_60_20">
<rect width="45" height="64" fill="white" transform="translate(100 31)"/>
</clipPath>
</defs>
</svg>
