<svg width="204" height="204" viewBox="0 0 204 204" fill="none" xmlns="http://www.w3.org/2000/svg">
<path d="M182.621 20H148.181C146.703 20 145.504 21.1987 145.504 22.6772C145.504 24.1557 146.703 25.3544 148.181 25.3544H182.621C185.812 25.3544 188.408 27.9505 188.408 31.1417V132.865H16.3544V31.1417C16.3544 27.9505 18.9505 25.3544 22.1417 25.3544H135.687C137.166 25.3544 138.364 24.1557 138.364 22.6772C138.364 21.1987 137.166 20 135.687 20H22.1417C15.9981 20 11 24.9981 11 31.1417V141.356C11 147.5 15.9981 152.498 22.1417 152.498H47.7717C49.2502 152.498 50.4489 151.3 50.4489 149.821C50.4489 148.342 49.2502 147.144 47.7717 147.144H22.1417C18.9505 147.144 16.3544 144.548 16.3544 141.356V138.22H188.408V141.356C188.408 144.548 185.812 147.144 182.621 147.144H60.1474C58.6689 147.144 57.4702 148.342 57.4702 149.821C57.4702 151.3 58.6689 152.498 60.1474 152.498H76.9973L74.354 167.774H69.4687C65.0399 167.774 61.4371 171.377 61.4371 175.806C61.4371 180.235 65.0399 183.837 69.4687 183.837H135.294C139.723 183.837 143.325 180.235 143.325 175.806C143.325 171.377 139.723 167.774 135.294 167.774H130.409L127.765 152.498H182.62C188.764 152.498 193.762 147.5 193.762 141.356V31.1417C193.763 24.9981 188.764 20 182.621 20ZM124.975 167.774H117.686C116.208 167.774 115.009 168.973 115.009 170.451C115.009 171.93 116.208 173.129 117.686 173.129H135.294C136.77 173.129 137.971 174.329 137.971 175.806C137.971 177.282 136.77 178.483 135.294 178.483H69.4687C67.9923 178.483 66.7915 177.282 66.7915 175.806C66.7915 174.329 67.9923 173.129 69.4687 173.129H105.188C106.667 173.129 107.866 171.93 107.866 170.451C107.866 168.973 106.667 167.774 105.188 167.774H79.788L82.4312 152.498H122.332L124.975 167.774Z" fill="black"/>
<path d="M155.825 87.7392C154.817 87.7392 153.895 88.3046 153.438 89.2024L140.804 114.034L130.142 93.0789C129.686 92.1812 128.764 91.6158 127.756 91.6158C126.749 91.6158 125.827 92.1812 125.37 93.0789L119.59 104.438H110.363C108.884 104.438 107.686 105.637 107.686 107.116C107.686 108.594 108.884 109.793 110.363 109.793H121.232C122.239 109.793 123.161 109.227 123.618 108.33L127.756 100.197L138.418 121.152C138.875 122.05 139.797 122.615 140.804 122.615C141.811 122.615 142.733 122.05 143.19 121.152L155.825 96.3205L161.935 108.33C162.392 109.228 163.314 109.793 164.321 109.793H175.19C176.669 109.793 177.867 108.594 177.867 107.116C177.867 105.637 176.669 104.439 175.19 104.439H165.963L158.211 89.2027C157.754 88.3046 156.832 87.7392 155.825 87.7392Z" fill="black"/>
<path d="M110.364 79.8083H124.256C125.735 79.8083 126.933 78.6096 126.933 77.1311V48.9478C126.933 47.4693 125.735 46.2707 124.256 46.2707H110.364C108.885 46.2707 107.687 47.4693 107.687 48.9478V77.1311C107.687 78.6096 108.885 79.8083 110.364 79.8083ZM113.041 51.625H121.579V74.4539H113.041V51.625Z" fill="black"/>
<path d="M149.818 53.9292H135.925C134.447 53.9292 133.248 55.1279 133.248 56.6064V77.1311C133.248 78.6097 134.447 79.8083 135.925 79.8083H149.818C151.296 79.8083 152.495 78.6097 152.495 77.1311V56.6064C152.495 55.1279 151.296 53.9292 149.818 53.9292ZM147.14 74.4539H138.602V59.2836H147.14V74.4539Z" fill="black"/>
<path d="M175.19 79.8083C176.669 79.8083 177.867 78.6097 177.867 77.1312V41.8819C177.867 40.4034 176.669 39.2047 175.19 39.2047H161.298C159.819 39.2047 158.621 40.4034 158.621 41.8819V77.1312C158.621 78.6097 159.819 79.8083 161.298 79.8083H175.19ZM163.975 44.5591H172.513V74.454H163.975V44.5591Z" fill="black"/>
<path d="M90.2082 69.4897H29.5253C28.0468 69.4897 26.8481 70.6884 26.8481 72.1669C26.8481 73.6454 28.0468 74.8441 29.5253 74.8441H90.2082C91.6867 74.8441 92.8854 73.6454 92.8854 72.1669C92.8854 70.6884 91.6867 69.4897 90.2082 69.4897Z" fill="black"/>
<path d="M29.5253 89.0657H40.3847C41.8632 89.0657 43.0619 87.867 43.0619 86.3885C43.0619 84.91 41.8632 83.7113 40.3847 83.7113H29.5253C28.0468 83.7113 26.8481 84.91 26.8481 86.3885C26.8481 87.867 28.0468 89.0657 29.5253 89.0657Z" fill="black"/>
<path d="M90.2084 83.7113H52.6518C51.1733 83.7113 49.9746 84.91 49.9746 86.3885C49.9746 87.867 51.1733 89.0657 52.6518 89.0657H90.2084C91.6869 89.0657 92.8856 87.867 92.8856 86.3885C92.8856 84.91 91.6869 83.7113 90.2084 83.7113Z" fill="black"/>
<path d="M90.2082 39.2047H29.5253C28.0468 39.2047 26.8481 40.4034 26.8481 41.8819C26.8481 43.3604 28.0468 44.5591 29.5253 44.5591H90.2082C91.6867 44.5591 92.8854 43.3604 92.8854 41.8819C92.8854 40.4034 91.6867 39.2047 90.2082 39.2047Z" fill="black"/>
<path d="M29.5253 58.781H67.1566C68.6351 58.781 69.8338 57.5823 69.8338 56.1038C69.8338 54.6253 68.6351 53.4266 67.1566 53.4266H29.5253C28.0468 53.4266 26.8481 54.6253 26.8481 56.1038C26.8481 57.5823 28.0468 58.781 29.5253 58.781Z" fill="black"/>
<path d="M90.2081 53.4266H79.4233C77.9448 53.4266 76.7461 54.6253 76.7461 56.1038C76.7461 57.5823 77.9448 58.781 79.4233 58.781H90.2081C91.6866 58.781 92.8852 57.5823 92.8852 56.1038C92.8852 54.6253 91.6866 53.4266 90.2081 53.4266Z" fill="black"/>
<path d="M92.8854 100.438C92.8854 98.9591 91.6867 97.7605 90.2082 97.7605H29.5253C28.0468 97.7605 26.8481 98.9591 26.8481 100.438C26.8481 101.916 28.0468 103.115 29.5253 103.115H90.2082C91.6867 103.115 92.8854 101.916 92.8854 100.438Z" fill="black"/>
<path d="M29.5253 111.907C28.0468 111.907 26.8481 113.105 26.8481 114.584C26.8481 116.062 28.0468 117.261 29.5253 117.261H58.082C59.5605 117.261 60.7592 116.062 60.7592 114.584C60.7592 113.105 59.5605 111.907 58.082 111.907H29.5253Z" fill="black"/>
</svg>
