<svg width="176" height="163" viewBox="0 0 176 163" fill="none" xmlns="http://www.w3.org/2000/svg">
<path d="M162.269 0H12.8242C5.75276 0 0 5.75276 0 12.8242V125.677C0 132.748 5.75276 138.501 12.8242 138.501H67.5602L64.4731 149.306C63.2335 153.645 58.374 157.31 53.8616 157.31H34.5398C33.1233 157.31 31.975 158.458 31.975 159.875C31.975 161.292 33.1233 162.44 34.5398 162.44H140.553C141.969 162.44 143.118 161.292 143.118 159.875C143.118 158.458 141.969 157.31 140.553 157.31H121.231C116.719 157.31 111.859 153.644 110.62 149.306L107.533 138.501H162.269C169.34 138.501 175.093 132.748 175.093 125.677V12.8242C175.093 5.75276 169.34 0 162.269 0ZM12.8242 5.12967H162.269C166.512 5.12967 169.963 8.5816 169.963 12.8242V102.593H5.12967V12.8242C5.12967 8.5816 8.58126 5.12967 12.8242 5.12967ZM105.687 150.715C106.391 153.179 107.79 155.442 109.624 157.31H65.4686C67.3027 155.442 68.7017 153.178 69.4055 150.715L72.895 138.501H102.197L105.687 150.715ZM162.269 133.371H12.8242C8.58126 133.371 5.12967 129.92 5.12967 125.677V107.723H169.963V125.677C169.963 129.92 166.512 133.371 162.269 133.371Z" fill="black"/>
<path d="M12.8241 97.4638H162.269C163.685 97.4638 164.833 96.3157 164.833 94.8989V12.8242C164.833 11.4074 163.685 10.2593 162.269 10.2593H12.8241C11.4076 10.2593 10.2593 11.4074 10.2593 12.8242V48.7319C10.2593 50.1487 11.4076 51.2967 12.8241 51.2967C14.2406 51.2967 15.3889 50.1487 15.3889 48.7319V15.389H159.704V92.3341H15.3889V58.9912C15.3889 57.5744 14.2406 56.4264 12.8241 56.4264C11.4076 56.4264 10.2593 57.5744 10.2593 58.9912V94.8989C10.2593 96.3157 11.4076 97.4638 12.8241 97.4638Z" fill="black"/>
<path d="M87.5466 112.853C83.3036 112.853 79.8521 116.305 79.8521 120.547C79.8521 124.79 83.3036 128.242 87.5466 128.242C91.7895 128.242 95.2411 124.79 95.2411 120.547C95.2411 116.305 91.7895 112.853 87.5466 112.853ZM87.5466 123.112C86.1321 123.112 84.9817 121.962 84.9817 120.547C84.9817 119.133 86.1321 117.982 87.5466 117.982C88.961 117.982 90.1114 119.133 90.1114 120.547C90.1114 121.962 88.961 123.112 87.5466 123.112Z" fill="black"/>
</svg>
