<svg width="163" height="163" viewBox="0 0 163 163" fill="none" xmlns="http://www.w3.org/2000/svg">
<path d="M81.8077 0.970581C78.9064 0.970581 76.0071 1.12655 73.1223 1.43748C70.4782 1.70756 67.8665 2.15049 65.29 2.68795C64.7913 2.79227 64.2924 2.90233 63.7937 3.01745C48.6129 6.4738 34.751 14.2356 23.8705 25.372C22.8587 26.4091 21.8682 27.4769 20.8996 28.5751C-8.4919 62.3176 -4.96465 113.498 28.7782 142.889C61.0825 171.028 109.709 169.156 139.754 138.617C140.768 137.58 141.758 136.512 142.725 135.413C155.696 120.642 162.844 101.652 162.832 81.9943C162.832 37.2457 126.556 0.970243 81.8077 0.970581ZM27.4706 29.4232C27.8974 28.9803 28.3403 28.5562 28.7751 28.1268C29.2775 27.6326 29.7771 27.1356 30.2903 26.6576C30.7413 26.2362 31.2058 25.8311 31.6677 25.4206C32.1889 24.9588 32.7075 24.4969 33.2422 24.0513C33.7122 23.6543 34.1956 23.2735 34.6764 22.89C35.2165 22.4578 35.7567 22.0257 36.3131 21.6098C36.8046 21.2398 37.3043 20.8806 37.8066 20.5295C38.3657 20.1297 38.9274 19.7192 39.4973 19.3465C40.0078 19.0008 40.5236 18.6659 41.0422 18.3337C41.6201 17.9637 42.2008 17.5991 42.7869 17.2534C43.3146 16.9384 43.8456 16.6285 44.3804 16.3243C44.9782 15.984 45.5785 15.6518 46.1818 15.3277C46.722 15.0397 47.2621 14.7578 47.8023 14.4824C48.4181 14.1718 49.0392 13.872 49.6631 13.5776C50.2033 13.321 50.7651 13.0644 51.3214 12.8214C51.9561 12.5513 52.5989 12.2812 53.2417 12.0111C53.8008 11.7816 54.3571 11.5574 54.9216 11.3413C55.5752 11.0929 56.2369 10.8606 56.8986 10.6283C57.463 10.4312 58.0275 10.234 58.6001 10.0476C59.2726 9.83158 59.9505 9.63172 60.6311 9.43456C61.201 9.26981 61.7654 9.09966 62.338 8.94571C62.5568 8.889 62.7755 8.84308 62.9943 8.78637C54.9999 16.5488 49.0673 26.1826 45.7335 36.8153C39.3231 35.1246 33.1173 32.7364 27.2276 29.6933C27.3167 29.5987 27.3923 29.5042 27.4706 29.4232ZM23.5869 33.7715C30.0745 37.2866 36.9542 40.0245 44.0833 41.9279C40.5884 54.0802 38.7539 66.6494 38.6304 79.2935H6.24773C6.83617 62.6198 12.9336 46.6114 23.5869 33.7715ZM23.5869 130.217C12.9342 117.377 6.83684 101.369 6.24773 84.6951H38.6304C38.7539 97.3393 40.5881 109.908 44.0833 122.061C36.9545 123.965 30.0749 126.702 23.5869 130.217ZM62.3218 155.054C61.7762 154.916 61.2118 154.738 60.65 154.573C59.9667 154.373 59.2807 154.173 58.6055 153.954C58.0356 153.771 57.4739 153.574 56.9121 153.377C56.2477 153.147 55.5833 152.912 54.927 152.661C54.3652 152.447 53.8116 152.223 53.2552 151.996C52.6097 151.726 51.9642 151.456 51.3241 151.186C50.7732 150.943 50.2249 150.693 49.6793 150.435C49.05 150.138 48.4235 149.836 47.7888 149.522C47.2486 149.252 46.7085 148.982 46.1683 148.688C45.5579 148.361 44.9529 148.026 44.3479 147.681C43.8078 147.381 43.2946 147.073 42.7734 146.76C42.1792 146.403 41.5958 146.036 41.0125 145.66C40.4993 145.334 39.9862 145.001 39.4811 144.661C38.9058 144.272 38.336 143.867 37.7715 143.462C37.2772 143.108 36.783 142.754 36.2969 142.382C35.7378 141.96 35.1895 141.525 34.644 141.088C34.1659 140.707 33.6906 140.329 33.2233 139.937C32.6832 139.489 32.1619 139.022 31.638 138.557C31.1788 138.149 30.717 137.747 30.2687 137.331C29.7528 136.85 29.2532 136.351 28.7508 135.856C28.316 135.427 27.8731 135.003 27.4463 134.563C27.368 134.479 27.2924 134.393 27.2141 134.312C33.1035 131.267 39.3093 128.878 45.72 127.187C49.0544 137.819 54.9867 147.453 62.9808 155.216C62.762 155.159 62.5406 155.113 62.3218 155.054ZM79.1073 157.403C67.5505 155.761 57.4198 143.7 51.0459 125.888C60.2611 123.824 69.6649 122.717 79.1073 122.585V157.403ZM79.1073 117.183C69.0907 117.315 59.1163 118.504 49.3498 120.732C45.9586 109.015 44.1697 96.8923 44.032 84.6951H79.1073V117.183ZM79.1073 79.2935H44.032C44.1694 67.0963 45.9583 54.9738 49.3498 43.2567C59.1163 45.4839 69.091 46.6736 79.1073 46.8056V79.2935ZM79.1073 41.404C69.6646 41.2723 60.2611 40.1653 51.0459 38.1009C57.4198 20.2891 67.5505 8.2273 79.1073 6.58521V41.404ZM140.029 33.7715C150.682 46.6118 156.779 62.6201 157.368 79.2935H124.986C124.862 66.6494 123.028 54.0802 119.533 41.9279C126.662 40.0235 133.541 37.2859 140.029 33.7715ZM101.273 8.93221C101.84 9.07265 102.404 9.2509 102.966 9.41565C103.649 9.61551 104.335 9.81537 105.011 10.0341C105.581 10.2178 106.142 10.4149 106.704 10.6121C107.368 10.8417 108.033 11.0766 108.689 11.3278C109.251 11.5412 109.805 11.7654 110.361 11.9922C111.006 12.2623 111.652 12.5324 112.292 12.8025C112.843 13.0455 113.391 13.2957 113.937 13.5533C114.566 13.8504 115.193 14.1529 115.827 14.4662C116.368 14.7362 116.908 15.0063 117.448 15.3007C118.058 15.6275 118.663 15.9624 119.268 16.3081C119.808 16.6079 120.322 16.9158 120.843 17.2291C121.437 17.5856 122.02 17.9529 122.604 18.3283C123.117 18.6551 123.63 18.9873 124.135 19.3276C124.71 19.7165 125.277 20.1189 125.842 20.5241C126.339 20.8779 126.833 21.2344 127.322 21.6044C127.878 22.023 128.424 22.4578 128.972 22.8954C129.448 23.2735 129.926 23.6516 130.393 24.0459C130.933 24.4942 131.454 24.9615 131.978 25.426C132.437 25.8338 132.899 26.2362 133.347 26.6522C133.863 27.1329 134.363 27.6326 134.865 28.1268C135.3 28.5562 135.743 28.9803 136.17 29.4205C136.248 29.5042 136.324 29.5906 136.402 29.6717C130.513 32.7161 124.307 35.1053 117.896 36.7964C114.555 26.1627 108.615 16.5299 100.614 8.77016C100.833 8.82688 101.054 8.87279 101.273 8.93221ZM84.5089 6.58521C96.0656 8.2273 106.196 20.2891 112.57 38.1009C103.355 40.1643 93.9512 41.2713 84.5089 41.404V6.58521ZM84.5089 46.8056C94.5255 46.6739 104.5 45.4842 114.266 43.2567C117.658 54.9738 119.446 67.0963 119.584 79.2935H84.5089V46.8056ZM84.5089 84.6951H119.584C119.447 96.8923 117.658 109.015 114.266 120.732C104.5 118.505 94.5255 117.315 84.5089 117.183V84.6951ZM84.5089 157.403V122.585C93.9516 122.716 103.355 123.823 112.57 125.888C106.196 143.7 96.0656 155.761 84.5089 157.403ZM136.146 134.565C135.719 135.006 135.279 135.43 134.844 135.859C134.341 136.353 133.839 136.853 133.323 137.334C132.875 137.752 132.413 138.144 131.954 138.563C131.43 139.027 130.909 139.492 130.374 139.94C129.901 140.334 129.421 140.715 128.94 141.099C128.4 141.531 127.859 141.963 127.303 142.379C126.812 142.749 126.312 143.108 125.81 143.459C125.25 143.859 124.689 144.269 124.119 144.642C123.608 144.988 123.093 145.323 122.574 145.652C121.996 146.025 121.414 146.385 120.827 146.733C120.286 147.049 119.771 147.356 119.239 147.662C118.641 148.002 118.039 148.334 117.434 148.658C116.894 148.946 116.354 149.228 115.814 149.504C115.198 149.814 114.577 150.114 113.953 150.408C113.413 150.665 112.851 150.921 112.295 151.165C111.66 151.435 111.017 151.705 110.374 151.975C109.815 152.202 109.259 152.429 108.697 152.642C108.038 152.893 107.377 153.128 106.712 153.358C106.15 153.555 105.589 153.752 105.019 153.936C104.344 154.154 103.668 154.354 102.98 154.551C102.415 154.719 101.848 154.886 101.278 155.04C101.059 155.097 100.841 155.143 100.622 155.2C108.616 147.437 114.549 137.803 117.883 127.171C124.293 128.861 130.499 131.25 136.389 134.293C136.299 134.39 136.224 134.484 136.146 134.565ZM140.029 130.217C133.542 126.702 126.662 123.964 119.533 122.061C123.028 109.908 124.862 97.3393 124.986 84.6951H157.368C156.78 101.369 150.683 117.377 140.029 130.217Z" fill="black"/>
</svg>
