<svg width="50" height="120" viewBox="0 0 50 120" fill="none" xmlns="http://www.w3.org/2000/svg">
<path d="M25.8393 36.8246C36.3068 42.2528 45.3517 46.9403 45.3517 59.3519C45.3517 70.8409 37.856 77.1424 33.3906 79.8734C32.9598 80.1366 32.6269 80.5334 32.4426 81.0034C32.2583 81.4734 32.2327 81.9908 32.3697 82.4766C32.5067 82.9625 32.7989 83.3903 33.2016 83.6947C33.6043 83.9991 34.0955 84.1635 34.6003 84.1629C35.0252 84.1636 35.4419 84.0461 35.8038 83.8234C40.0655 81.2158 49.9806 73.6121 49.9806 59.3519C49.9806 44.129 38.791 38.3274 27.9686 32.7172C15.9767 26.5021 4.64819 20.6296 4.64819 2.69104C4.64819 2.07721 4.40435 1.48852 3.97031 1.05448C3.53626 0.620431 2.94757 0.376587 2.33374 0.376587C1.71991 0.376587 1.13122 0.620431 0.697175 1.05448C0.263131 1.48852 0.0192871 2.07721 0.0192871 2.69104C0.0192871 23.4409 13.7363 30.5509 25.8393 36.8246Z" fill="black"/>
<path d="M32.0637 26.8076C31.791 26.9644 31.5532 27.1752 31.3647 27.4269C31.1763 27.6787 31.0411 27.9662 30.9674 28.272C30.8938 28.5777 30.8832 28.8953 30.9364 29.2053C30.9896 29.5153 31.1054 29.8111 31.2767 30.0749C31.4481 30.3386 31.6713 30.5646 31.933 30.7392C32.1946 30.9137 32.489 31.0331 32.7983 31.0901C33.1076 31.1471 33.4253 31.1404 33.7319 31.0705C34.0385 31.0006 34.3277 30.869 34.5818 30.6836C41.7504 26.0547 49.996 18.6484 49.996 2.68796C49.996 2.07413 49.7522 1.48544 49.3181 1.05139C48.8841 0.617349 48.2954 0.373505 47.6816 0.373505C47.0677 0.373505 46.4791 0.617349 46.045 1.05139C45.611 1.48544 45.3671 2.07413 45.3671 2.68796C45.3671 10.3534 43.7717 19.2132 32.0637 26.8076Z" fill="black"/>
<path d="M2.33369 119.627C2.94752 119.627 3.53621 119.383 3.97026 118.949C4.4043 118.515 4.64814 117.926 4.64814 117.312C4.64814 109.647 6.22814 100.787 17.9362 93.1924C18.3975 92.8385 18.7087 92.324 18.8079 91.7511C18.9072 91.1782 18.7872 90.589 18.4718 90.1006C18.1564 89.6121 17.6688 89.2603 17.1058 89.115C16.5429 88.9697 15.9458 89.0416 15.4335 89.3164C8.26486 93.9639 0.034668 101.352 0.034668 117.318C0.0362814 117.928 0.278722 118.513 0.70926 118.945C1.1398 119.378 1.7236 119.622 2.33369 119.627Z" fill="black"/>
<path d="M21.9973 87.3167C34.0078 93.8219 45.3517 99.9691 45.3517 117.312C45.3517 117.926 45.5956 118.515 46.0296 118.949C46.4636 119.383 47.0523 119.626 47.6662 119.626C48.28 119.626 48.8687 119.383 49.3027 118.949C49.7368 118.515 49.9806 117.926 49.9806 117.312C49.9806 97.2102 36.2852 89.7916 24.2038 83.2464C13.7116 77.5652 4.64819 72.6554 4.64819 60.6511C4.64819 49.1622 12.1439 42.8607 16.6093 40.1297C16.8705 39.9721 17.0981 39.7645 17.2788 39.5187C17.4595 39.2729 17.5899 38.9939 17.6623 38.6975C17.7348 38.4012 17.748 38.0934 17.7011 37.792C17.6543 37.4906 17.5482 37.2014 17.3892 36.941C17.2302 36.6807 17.0212 36.4544 16.7744 36.2751C16.5276 36.0958 16.2477 35.9671 15.951 35.8963C15.6542 35.8255 15.3464 35.8142 15.0452 35.8628C14.7441 35.9114 14.4555 36.0191 14.1961 36.1797C9.93441 38.7873 0.0192871 46.391 0.0192871 60.6511C0.0192871 75.4112 11.1935 81.4658 21.9973 87.3167Z" fill="black"/>
<path d="M9.83569 8.77344H40.9173C41.5311 8.77344 42.1198 8.52959 42.5538 8.09555C42.9879 7.66151 43.2317 7.07282 43.2317 6.45898C43.2317 5.84515 42.9879 5.25646 42.5538 4.82242C42.1198 4.38838 41.5311 4.14453 40.9173 4.14453H9.83569C9.22186 4.14453 8.63317 4.38838 8.19913 4.82242C7.76508 5.25646 7.52124 5.84515 7.52124 6.45898C7.52124 7.07282 7.76508 7.66151 8.19913 8.09555C8.63317 8.52959 9.22186 8.77344 9.83569 8.77344Z" fill="black"/>
<path d="M37.6523 18.3645C37.6523 17.7507 37.4085 17.162 36.9745 16.728C36.5404 16.2939 35.9517 16.0501 35.3379 16.0501H15.4336C15.1297 16.0501 14.8287 16.1099 14.5479 16.2263C14.2671 16.3426 14.0119 16.513 13.797 16.728C13.5821 16.9429 13.4116 17.198 13.2953 17.4788C13.179 17.7596 13.1191 18.0606 13.1191 18.3645C13.1191 18.6685 13.179 18.9694 13.2953 19.2502C13.4116 19.531 13.5821 19.7862 13.797 20.0011C14.0119 20.216 14.2671 20.3865 14.5479 20.5028C14.8287 20.6191 15.1297 20.679 15.4336 20.679H35.3255C35.6305 20.6806 35.9328 20.6219 36.215 20.5064C36.4973 20.3908 36.7539 20.2206 36.9701 20.0055C37.1863 19.7904 37.3579 19.5347 37.475 19.2531C37.5921 18.9715 37.6523 18.6695 37.6523 18.3645Z" fill="black"/>
<path d="M40.9173 116.059C41.5311 116.059 42.1198 115.815 42.5538 115.381C42.9879 114.947 43.2317 114.359 43.2317 113.745C43.2317 113.131 42.9879 112.542 42.5538 112.108C42.1198 111.674 41.5311 111.43 40.9173 111.43H9.83569C9.22186 111.43 8.63317 111.674 8.19913 112.108C7.76508 112.542 7.52124 113.131 7.52124 113.745C7.52124 114.359 7.76508 114.947 8.19913 115.381C8.63317 115.815 9.22186 116.059 9.83569 116.059H40.9173Z" fill="black"/>
<path d="M7.52124 59.5371C7.52124 60.1509 7.76508 60.7396 8.19913 61.1737C8.63317 61.6077 9.22186 61.8516 9.83569 61.8516H40.9173C41.5311 61.8516 42.1198 61.6077 42.5538 61.1737C42.9879 60.7396 43.2317 60.1509 43.2317 59.5371C43.2317 58.9233 42.9879 58.3346 42.5538 57.9005C42.1198 57.4665 41.5311 57.2227 40.9173 57.2227H9.83569C9.22186 57.2227 8.63317 57.4665 8.19913 57.9005C7.76508 58.3346 7.52124 58.9233 7.52124 59.5371Z" fill="black"/>
<path d="M35.3225 104.16C35.9363 104.16 36.525 103.916 36.959 103.482C37.3931 103.048 37.6369 102.459 37.6369 101.845C37.6369 101.232 37.3931 100.643 36.959 100.209C36.525 99.7747 35.9363 99.5309 35.3225 99.5309H15.4336C14.8198 99.5309 14.2311 99.7747 13.797 100.209C13.363 100.643 13.1191 101.232 13.1191 101.845C13.1191 102.459 13.363 103.048 13.797 103.482C14.2311 103.916 14.8198 104.16 15.4336 104.16H35.3225Z" fill="black"/>
<path d="M15.4336 73.5781H35.3255C35.9394 73.5781 36.5281 73.3343 36.9621 72.9002C37.3962 72.4662 37.64 71.8775 37.64 71.2637C37.64 70.6498 37.3962 70.0611 36.9621 69.6271C36.5281 69.1931 35.9394 68.9492 35.3255 68.9492H15.4336C14.8198 68.9492 14.2311 69.1931 13.797 69.6271C13.363 70.0611 13.1191 70.6498 13.1191 71.2637C13.1191 71.8775 13.363 72.4662 13.797 72.9002C14.2311 73.3343 14.8198 73.5781 15.4336 73.5781Z" fill="black"/>
<path d="M35.3225 50.1435C35.9363 50.1435 36.525 49.8997 36.959 49.4656C37.3931 49.0316 37.6369 48.4429 37.6369 47.8291C37.6369 47.2152 37.3931 46.6266 36.959 46.1925C36.525 45.7585 35.9363 45.5146 35.3225 45.5146H15.4336C14.8198 45.5146 14.2311 45.7585 13.797 46.1925C13.363 46.6266 13.1191 47.2152 13.1191 47.8291C13.1191 48.4429 13.363 49.0316 13.797 49.4656C14.2311 49.8997 14.8198 50.1435 15.4336 50.1435H35.3225Z" fill="black"/>
</svg>
