<svg id="Outline" xmlns="http://www.w3.org/2000/svg" width="83.575" height="55.063" viewBox="0 0 83.575 55.063">
  <path id="Path_5000" data-name="Path 5000" d="M84.182,40.526a1.328,1.328,0,0,0,1.393-1.251V19.251A1.328,1.328,0,0,0,84.182,18H70.253a1.259,1.259,0,1,0,0,2.5H82.789v17.52H54.931V20.5h9.75a1.259,1.259,0,1,0,0-2.5H53.538a1.328,1.328,0,0,0-1.393,1.251V39.275a1.328,1.328,0,0,0,1.393,1.251h9.75v5.006H49.254c.063-.865.1-1.7.1-2.5,0-13.333-6.731-23.777-15.322-23.777H17.322c-4.227,0-8.146,2.552-11.035,7.185a1.187,1.187,0,0,0,.534,1.7,1.48,1.48,0,0,0,1.9-.48c2.374-3.808,5.43-5.906,8.6-5.906h9.8c-5.02,3.862-8.4,11.832-8.4,21.275a35.5,35.5,0,0,0,1.446,10.016l-12.589,0a6.238,6.238,0,0,0-1.184.119,33.21,33.21,0,0,1,.251-21.127,1.229,1.229,0,0,0-.887-1.581,1.433,1.433,0,0,0-1.759.8,35.553,35.553,0,0,0-.13,23.089A4.776,4.776,0,0,0,2,58.046V71.812a1.328,1.328,0,0,0,1.393,1.251H8.965a1.259,1.259,0,1,0,0-2.5H4.786V58.046a2.656,2.656,0,0,1,2.786-2.5h19.5a2.656,2.656,0,0,1,2.786,2.5V70.561H14.536a1.259,1.259,0,1,0,0,2.5H42.394a1.328,1.328,0,0,0,1.393-1.251V61.448a23.666,23.666,0,0,0,3.29-5.9h4.371l3.482,4.171v6.8l-2.647,4.742a1.142,1.142,0,0,0,.063,1.22,1.436,1.436,0,0,0,1.19.59H77.217a1.417,1.417,0,0,0,1.246-.692,1.147,1.147,0,0,0-.132-1.311l-3.9-4.672v-6.8l2.254-4.05H78.61a1.259,1.259,0,1,0,0-2.5H28.865a24.882,24.882,0,0,1-1.379-5.006h55.3v6.257a1.4,1.4,0,0,0,2.786,0V46.783a1.328,1.328,0,0,0-1.393-1.251h-9.75V40.526ZM21.5,43.029c0-11.532,5.742-21.275,12.536-21.275S46.573,31.5,46.573,43.029c0,.793-.045,1.627-.111,2.5H38.076a6.838,6.838,0,0,0-6.825-5.006H27.185c.708-8.617,4.9-13.766,6.852-13.766,1.841,0,6.547,5.277,6.928,15.061a1.341,1.341,0,0,0,1.442,1.208,1.317,1.317,0,0,0,1.344-1.3c-.4-10.3-5.441-17.476-9.714-17.476-4.6,0-9.75,8.028-9.75,18.772A29.753,29.753,0,0,0,25.929,53.04H23.047A32.916,32.916,0,0,1,21.5,43.029ZM31.87,55.543H38C36.447,58.23,34.82,59.3,34.041,59.3a2.652,2.652,0,0,1-1.393-.636v-.616A4.583,4.583,0,0,0,31.87,55.543Zm.774,15.017V66.694a10.226,10.226,0,0,0,1.393.113A11.215,11.215,0,0,0,41,64.28v6.281ZM34.037,64.3a7.224,7.224,0,0,1-1.393-.153V61.534a4.393,4.393,0,0,0,1.393.267c2.478,0,5.122-2.388,7.037-6.257h3.032C41.731,60.986,37.973,64.3,34.037,64.3Zm37.609-3.754v5.006H68.86V60.549Zm-5.572,5.006H63.288V60.549h2.786Zm-5.572,0H57.716V60.549H60.5Zm-4.711,5.006,1.393-2.5H72.342l2.089,2.5ZM73.57,55.543l-1.393,2.5H57.02l-2.089-2.5Zm-46.5-12.514h4.179a4.175,4.175,0,0,1,3.922,2.5h-7.99C27.118,44.735,27.072,43.911,27.072,43.029Zm44.573,2.5H66.074V40.526h5.572Z" transform="translate(-2 -18)" fill="#0e3f6c"/>
  <path id="Path_5001" data-name="Path 5001" d="M50.357,23.251A1.328,1.328,0,0,0,48.965,22H43.393A1.328,1.328,0,0,0,42,23.251v5.006a1.328,1.328,0,0,0,1.393,1.251h5.572a1.328,1.328,0,0,0,1.393-1.251Zm-2.786,3.754H44.786V24.5h2.786Z" transform="translate(13.716 -16.994)" fill="#e5184e"/>
  <path id="Path_5002" data-name="Path 5002" d="M58.965,24.5a1.259,1.259,0,1,0,0-2.5H53.393a1.259,1.259,0,1,0,0,2.5Z" transform="translate(17.645 -16.994)" fill="#0e3f6c"/>
  <path id="Path_5003" data-name="Path 5003" d="M50,27.251A1.328,1.328,0,0,0,51.393,28.5h9.75a1.259,1.259,0,1,0,0-2.5h-9.75A1.328,1.328,0,0,0,50,27.251Z" transform="translate(16.86 -15.988)" fill="#0e3f6c"/>
  <path id="Path_5004" data-name="Path 5004" d="M55.393,30a1.259,1.259,0,1,0,0,2.5h2.786a1.259,1.259,0,1,0,0-2.5Z" transform="translate(18.431 -14.983)" fill="#0e3f6c"/>
  <path id="Path_5005" data-name="Path 5005" d="M48.965,30H43.393a1.259,1.259,0,1,0,0,2.5h5.572a1.259,1.259,0,1,0,0-2.5Z" transform="translate(13.716 -14.983)" fill="#0e3f6c"/>
  <ellipse id="Ellipse_247" data-name="Ellipse 247" cx="1.118" cy="1.674" rx="1.118" ry="1.674" transform="translate(67.063 14.728)" fill="#0e3f6c"/>
  <path id="Path_5006" data-name="Path 5006" d="M22.322,53.5a1.259,1.259,0,1,0,0-2.5H8.393a1.259,1.259,0,1,0,0,2.5Z" transform="translate(-0.035 -9.702)" fill="#0e3f6c"/>
  <path id="Path_5007" data-name="Path 5007" d="M6,57.251A1.328,1.328,0,0,0,7.393,58.5H22.715a1.259,1.259,0,1,0,0-2.5H7.393A1.328,1.328,0,0,0,6,57.251Z" transform="translate(-0.428 -8.445)" fill="#0e3f6c"/>
  <path id="Path_5008" data-name="Path 5008" d="M7.393,43.5h5.572a1.259,1.259,0,1,0,0-2.5H7.393a1.259,1.259,0,1,0,0,2.5Z" transform="translate(-0.428 -12.217)" fill="#0e3f6c"/>
  <path id="Path_5009" data-name="Path 5009" d="M6,38.251A1.328,1.328,0,0,0,7.393,39.5h5.572a1.259,1.259,0,1,0,0-2.5H7.393A1.328,1.328,0,0,0,6,38.251Z" transform="translate(-0.428 -13.223)" fill="#0e3f6c"/>
  <path id="Path_5010" data-name="Path 5010" d="M7,31.754a3.984,3.984,0,0,0,4.179,3.754,3.984,3.984,0,0,0,4.179-3.754A3.984,3.984,0,0,0,11.179,28,3.984,3.984,0,0,0,7,31.754Zm5.572,0a1.328,1.328,0,0,1-1.393,1.251,1.259,1.259,0,1,1,0-2.5A1.328,1.328,0,0,1,12.572,31.754Z" transform="translate(-0.035 -15.486)" fill="#0e3f6c"/>
  <path id="Path_5011" data-name="Path 5011" d="M15.572,26.5a1.259,1.259,0,1,0,0-2.5H11.393a1.259,1.259,0,1,0,0,2.5Z" transform="translate(1.143 -16.491)" fill="#0e3f6c"/>
</svg>
