<svg id="Sound_assistant" data-name="Sound assistant" xmlns="http://www.w3.org/2000/svg" width="76.557" height="68.114" viewBox="0 0 76.557 68.114">
  <path id="Path_19351" data-name="Path 19351" d="M29.794,2C16.18,2.011,4.579,10.878,2.384,22.948s5.663,23.793,18.565,27.7v4.711a1.2,1.2,0,0,0,1.264,1.135h1.264v5.676A1.2,1.2,0,0,0,24.739,63.3H26v5.676a1.2,1.2,0,0,0,1.264,1.135h5.054a1.2,1.2,0,0,0,1.264-1.135V63.3h1.264a1.2,1.2,0,0,0,1.264-1.135V56.491h1.264a1.2,1.2,0,0,0,1.264-1.135V50.644c12.9-3.9,20.759-15.625,18.565-27.7S43.407,2.011,29.794,2Zm1.264,65.843H28.53V63.3h2.527Zm2.527-6.811H26V56.491h7.581Zm2.527-6.811H23.476V51.292a30.64,30.64,0,0,0,12.636,0Zm-6.318-4.541c-13.957,0-25.271-10.165-25.271-22.7S15.837,4.27,29.794,4.27s25.271,10.165,25.271,22.7-11.32,22.692-25.271,22.7Z" transform="translate(-2.018 -2)" fill="#0e3f6c"/>
  <path id="Path_19352" data-name="Path 19352" d="M54.8,2a20.016,20.016,0,0,0-13.4,4.985l1.784,1.61a17.767,17.767,0,0,1,23.234,0L68.2,6.985A20.016,20.016,0,0,0,54.8,2Z" transform="translate(8.36 -2)" fill="#0e3f6c"/>
  <path id="Path_19353" data-name="Path 19353" d="M44.223,9.659l1.787,1.605a12.3,12.3,0,0,1,16.08,0l1.787-1.605A15.025,15.025,0,0,0,44.223,9.659Z" transform="translate(9.106 -1.459)" fill="#0e3f6c"/>
  <path id="Path_19354" data-name="Path 19354" d="M47.05,12.334l1.794,1.6a6.817,6.817,0,0,1,8.921,0l1.794-1.6a9.548,9.548,0,0,0-12.509,0Z" transform="translate(9.851 -0.918)" fill="#0e3f6c"/>
  <path id="Path_19355" data-name="Path 19355" d="M52.791,14A3.614,3.614,0,0,0,49,17.406a3.812,3.812,0,0,0,7.581,0A3.614,3.614,0,0,0,52.791,14Zm0,4.541a1.142,1.142,0,1,1,1.264-1.135A1.2,1.2,0,0,1,52.791,18.541Z" transform="translate(10.365 -0.377)" fill="#0e3f6c"/>
  <path id="Path_19356" data-name="Path 19356" d="M51.488,24.893v2.27H41.38a1.279,1.279,0,0,1-1.2-.772l-.859-2.327L36.313,42.092a1.238,1.238,0,0,1-1.238.965h-.013a1.234,1.234,0,0,1-1.238-.931l-5.231-26.28L23.665,35.36a1.251,1.251,0,0,1-1.2.885,1.288,1.288,0,0,1-1.251-.829L17.17,22.725l-1.15,2.588a1.27,1.27,0,0,1-1.175.715H6v-2.27h7.986L16.2,18.8a1.289,1.289,0,0,1,1.238-.715,1.231,1.231,0,0,1,1.15.829l3.7,11.625,5.218-20.65a1.3,1.3,0,0,1,2.477.045l4.966,24.986L37.6,19.047a1.215,1.215,0,0,1,1.137-.965,1.3,1.3,0,0,1,1.314.772l2.236,6.039Z" transform="translate(-0.968 -1.054)" fill="#e5184e"/>
  <path id="Path_19357" data-name="Path 19357" d="M54.69,48.7H37v2.27H55.953a1.2,1.2,0,0,0,1.264-1.135V26H54.69Z" transform="translate(7.202 1.245)" fill="#0e3f6c"/>
  <path id="Path_19358" data-name="Path 19358" d="M33,46h2.527v2.27H33Z" transform="translate(6.148 3.95)" fill="#0e3f6c"/>
  <path id="Path_19359" data-name="Path 19359" d="M51,22h2.527v2.27H51Z" transform="translate(10.892 0.705)" fill="#0e3f6c"/>
</svg>
