<svg id="mri_2_" data-name="mri (2)" xmlns="http://www.w3.org/2000/svg" width="66.582" height="68.713" viewBox="0 0 66.582 68.713">
  <path id="Path_4994" data-name="Path 4994" d="M95.991,43.685A27.464,27.464,0,0,0,99.715,29.91a28.235,28.235,0,0,0-9-20.451,1.212,1.212,0,0,0-1.584-.046.936.936,0,0,0-.051,1.423A26.418,26.418,0,0,1,97.452,28.9H94.743A23.678,23.678,0,0,0,88.92,14.42,28.752,28.752,0,0,0,74.968,5.626V3.085a32.555,32.555,0,0,1,10.941,5.1,1.2,1.2,0,0,0,.7.223,1.171,1.171,0,0,0,.873-.375.939.939,0,0,0-.168-1.415A35.005,35.005,0,0,0,74.56.9,2.4,2.4,0,0,0,72.653,0H60.195a2.4,2.4,0,0,0-1.9.9A34.04,34.04,0,0,0,40.452,11.2,28.145,28.145,0,0,0,33.133,29.91a27.463,27.463,0,0,0,3.724,13.775L35.835,59.676a4.056,4.056,0,0,0,1.311,3.229,5.057,5.057,0,0,0,3.514,1.361h7.56a2.859,2.859,0,0,0-.239,1.141v1.226a2.21,2.21,0,0,0,2.315,2.08H55.31a1.012,1.012,0,1,0,0-2.013H50.3a.071.071,0,0,1-.075-.067V65.407a1.212,1.212,0,0,1,1.27-1.141H81.356a1.212,1.212,0,0,1,1.27,1.141v1.226a.071.071,0,0,1-.075.067H59.791a1.012,1.012,0,1,0,0,2.013H82.552a2.21,2.21,0,0,0,2.315-2.08V65.407a2.859,2.859,0,0,0-.239-1.141h7.56A5.058,5.058,0,0,0,95.7,62.905a4.054,4.054,0,0,0,1.311-3.229Zm-2.176-.611a28.959,28.959,0,0,1-8.948,9.28V49.242a24.5,24.5,0,0,0,9.874-18.325h2.712a25.661,25.661,0,0,1-3.53,11.975.97.97,0,0,0-.107.183ZM81.357,55.583H51.491a1.212,1.212,0,0,1-1.27-1.141V48.961a.909.909,0,0,0,.013-.258h8.883v2.328a2.25,2.25,0,0,0,2.358,2.118h9.9a2.25,2.25,0,0,0,2.358-2.118V48.7h8.9v5.74a1.212,1.212,0,0,1-1.27,1.141ZM39.032,43.073a.967.967,0,0,0-.106-.181A25.661,25.661,0,0,1,35.4,30.916h2.712a24.5,24.5,0,0,0,9.874,18.325v3.113A28.959,28.959,0,0,1,39.032,43.073Zm8.986-12.157a15.347,15.347,0,0,0,3.468,8.713L48.3,46.784a22.384,22.384,0,0,1-7.952-15.868h7.669Zm44.481,0a22.386,22.386,0,0,1-7.952,15.868l-3.186-7.156a15.354,15.354,0,0,0,3.469-8.712ZM80.35,37.358l-.2-.453a2.359,2.359,0,0,0-2.189-1.331H74.968v-.105a2.078,2.078,0,0,0-1.1-1.789,7.07,7.07,0,0,0,1.1-3.769c0-4.233-3.833-7.676-8.544-7.676S57.88,25.677,57.88,29.91a7.07,7.07,0,0,0,1.1,3.769,2.078,2.078,0,0,0-1.1,1.789v.105H54.888A2.358,2.358,0,0,0,52.7,36.9l-.2.452a13.31,13.31,0,0,1-2.276-7.447c0-8.027,7.268-14.557,16.2-14.557s16.2,6.53,16.2,14.557A13.316,13.316,0,0,1,80.35,37.358ZM71.43,33.35H61.418a5.291,5.291,0,0,1-1.3-3.44c0-3.123,2.828-5.663,6.3-5.663s6.3,2.541,6.3,5.663A5.291,5.291,0,0,1,71.43,33.35ZM60.12,35.468a.112.112,0,0,1,.117-.105H72.611a.112.112,0,0,1,.117.105v2.223a.112.112,0,0,1-.117.105H60.237a.112.112,0,0,1-.117-.105ZM71.49,48.7v2.328a.112.112,0,0,1-.117.105h-9.9a.112.112,0,0,1-.117-.105V48.7ZM50.756,46.69l2.881-6.472a.952.952,0,0,0,.3-.664l.847-1.9a.117.117,0,0,1,.109-.066H57.88v.105a2.25,2.25,0,0,0,2.358,2.118H72.611a2.25,2.25,0,0,0,2.358-2.118v-.105H77.96a.117.117,0,0,1,.109.066l4.024,9.037H50.756ZM92.5,28.9H84.832c-.581-8.67-8.615-15.563-18.408-15.563S48.6,20.233,48.016,28.9H40.347c.461-9.586,7.474-18.027,17.532-21.157v.007a3.35,3.35,0,0,0,3.51,3.154H71.458a3.35,3.35,0,0,0,3.51-3.154V7.746C85.026,10.876,92.039,19.318,92.5,28.9ZM72.653,2.013a.079.079,0,0,1,.051.019c.007.022.015.044.024.065V7.752a1.212,1.212,0,0,1-1.27,1.141H61.39a1.212,1.212,0,0,1-1.27-1.141V2.1c.009-.022.017-.045.025-.068a.078.078,0,0,1,.05-.018ZM57.88,3.082V5.626A28.751,28.751,0,0,0,43.928,14.42,23.678,23.678,0,0,0,38.1,28.9h-2.71C35.87,16.754,44.912,6.392,57.88,3.082Zm-19.1,58.441a2.175,2.175,0,0,1-.7-1.732L38.9,46.765a31.971,31.971,0,0,0,9.1,8.061,3.275,3.275,0,0,0,2.448,2.63v4.8h-9.8A2.713,2.713,0,0,1,38.775,61.523ZM52.7,57.6H80.151v4.657H52.7Zm41.377,3.927a2.713,2.713,0,0,1-1.884.73h-9.8v-4.8a3.275,3.275,0,0,0,2.448-2.63,31.971,31.971,0,0,0,9.1-8.061l.832,13.026A2.175,2.175,0,0,1,94.073,61.523Z" transform="translate(-33.133 0)" fill="#0e3f6c"/>
  <path id="Path_4995" data-name="Path 4995" d="M233.053,32.117a1.068,1.068,0,0,0,1.12-1.007V30a1.127,1.127,0,0,0-2.241,0V31.11A1.068,1.068,0,0,0,233.053,32.117Z" transform="translate(-202.237 -25.101)" fill="#e5184e"/>
  <path id="Path_4996" data-name="Path 4996" d="M266.186,32.117a1.068,1.068,0,0,0,1.12-1.007V30a1.127,1.127,0,0,0-2.241,0V31.11A1.068,1.068,0,0,0,266.186,32.117Z" transform="translate(-230.421 -25.101)" fill="#e5184e"/>
  <path id="Path_4997" data-name="Path 4997" d="M332.453,376.892a1.068,1.068,0,0,0-1.12,1.007v1.112a1.127,1.127,0,0,0,2.241,0V377.9A1.068,1.068,0,0,0,332.453,376.892Z" transform="translate(-286.789 -326.311)" fill="#0e3f6c"/>
  <path id="Path_4998" data-name="Path 4998" d="M166.786,376.892a1.068,1.068,0,0,0-1.12,1.007v1.112a1.127,1.127,0,0,0,2.241,0V377.9A1.068,1.068,0,0,0,166.786,376.892Z" transform="translate(-145.869 -326.311)" fill="#0e3f6c"/>
  <path id="Path_4999" data-name="Path 4999" d="M100.52,243.342a1.068,1.068,0,0,0,1.12-1.007v-1.112a1.127,1.127,0,0,0-2.241,0v1.112A1.068,1.068,0,0,0,100.52,243.342Z" transform="translate(-89.501 -207.979)" fill="#0e3f6c"/>
</svg>
