<svg id="ct-scan_2_" data-name="ct-scan (2)" xmlns="http://www.w3.org/2000/svg" width="75.93" height="68.219" viewBox="0 0 75.93 68.219">
  <path id="Path_19378" data-name="Path 19378" d="M62.11,48.009H73.256a3.32,3.32,0,1,0,0-6.6H72.032v-2.2a1.137,1.137,0,0,0-1-1.08l-19.595-3.3a1.349,1.349,0,0,0-.465,0L40,36.8a6.029,6.029,0,0,0-5.93-4.194c-3.376,0-6.123,2.468-6.123,5.5a5.1,5.1,0,0,0,1.257,3.3H25.494V20.5a1.168,1.168,0,0,0-1.225-1.1H18.146V16.1A1.168,1.168,0,0,0,16.921,15H2.225A1.168,1.168,0,0,0,1,16.1V66.714a1.167,1.167,0,0,0,1.225,1.1H75.706a1.167,1.167,0,0,0,1.225-1.1v-4.4a1.167,1.167,0,0,0-1.225-1.1H57.335V52.3a5.862,5.862,0,0,0,4.775-4.29Zm-6,2.2H25.494v-2.2H59.559A3.664,3.664,0,0,1,56.111,50.21ZM51.219,37.027,69.582,40.12v1.287H38.933a5.183,5.183,0,0,0,1.152-2.38ZM30.392,38.106a3.507,3.507,0,0,1,3.674-3.3,3.507,3.507,0,0,1,3.674,3.3,3.507,3.507,0,0,1-3.674,3.3A3.507,3.507,0,0,1,30.392,38.106Zm42.864,5.5a1.107,1.107,0,1,1,0,2.2H25.494v-2.2Zm-47.763,14.3v-5.5H49.987v8.8H18.146v-2.2h6.123A1.167,1.167,0,0,0,25.494,57.912Zm-9.8,3.3H3.449v-4.4H15.7ZM23.044,21.6v35.21h-4.9V21.6ZM15.7,17.2v37.41H3.449V17.2ZM74.481,65.614H3.449v-2.2H74.481Zm-22.044-4.4v-8.8h2.449v8.8Z" transform="translate(-1 0.404)" fill="#0e3f6c"/>
  <path id="Path_19379" data-name="Path 19379" d="M5,19H7.449v2.2H5Z" transform="translate(-0.101 0.805)" fill="#0e3f6c"/>
  <path id="Path_19380" data-name="Path 19380" d="M9,19h2.449v2.2H9Z" transform="translate(0.797 0.805)" fill="#0e3f6c"/>
  <path id="Path_19381" data-name="Path 19381" d="M5,23H7.449v2.2H5Z" transform="translate(-0.101 1.207)" fill="#0e3f6c"/>
  <path id="Path_19382" data-name="Path 19382" d="M9,23h2.449v2.2H9Z" transform="translate(0.797 1.207)" fill="#0e3f6c"/>
  <path id="Path_19383" data-name="Path 19383" d="M70.313,1H26.225A1.168,1.168,0,0,0,25,2.1V28.508a1.168,1.168,0,0,0,1.225,1.1H70.313a1.168,1.168,0,0,0,1.225-1.1V2.1A1.168,1.168,0,0,0,70.313,1ZM69.089,27.407H27.449V3.2H69.089Z" transform="translate(4.392 -1)" fill="#0e3f6c"/>
  <path id="Path_19384" data-name="Path 19384" d="M30.225,24.805H64.516a1.168,1.168,0,0,0,1.225-1.1V6.1A1.168,1.168,0,0,0,64.516,5H30.225A1.168,1.168,0,0,0,29,6.1v17.6A1.168,1.168,0,0,0,30.225,24.805ZM31.449,7.2H63.291V22.6H31.449Z" transform="translate(5.291 -0.599)" fill="#0e3f6c"/>
  <path id="Path_19385" data-name="Path 19385" d="M49.634,9.753A1.219,1.219,0,0,0,48.495,9a1.205,1.205,0,0,0-1.17.714l-2.459,5.892L43.51,11.953a1.213,1.213,0,0,0-1.075-.749,1.271,1.271,0,0,0-1.182.605L39.142,15.6H35v2.2h4.9a1.247,1.247,0,0,0,1.1-.608l1.127-2.026,1.514,4.082A1.219,1.219,0,0,0,44.774,20H44.8a1.229,1.229,0,0,0,1.148-.714L48.4,13.4,49.76,17.05a1.218,1.218,0,0,0,1.161.753h6.123V15.6H51.8Z" transform="translate(6.639 -0.198)" fill="#e5184e"/>
</svg>
