<svg xmlns="http://www.w3.org/2000/svg" width="35" height="26.041" viewBox="0 0 35 26.041">
  <g id="Group_10924" data-name="Group 10924" transform="translate(-241 -541)">
    <path id="Path_5012" data-name="Path 5012" d="M33.462,49.527a1.539,1.539,0,0,0-1.45.921H28.745c-.057,0-.114,0-.171,0V46.3A2.447,2.447,0,0,0,26.011,44H2.563A2.447,2.447,0,0,0,0,46.3V61.1a2.447,2.447,0,0,0,2.563,2.3h9.673v.768a1.142,1.142,0,0,0,1.2,1.075h.308v2.794a2.12,2.12,0,0,0,2.222,2h8.853a2.12,2.12,0,0,0,2.222-2v-.031h.342a1.142,1.142,0,0,0,1.2-1.075v-.847a1.4,1.4,0,0,0,1.025-1.3v-3.7a.516.516,0,0,0-1.025,0v3.7a.489.489,0,0,1-.513.461H24.985a.489.489,0,0,1-.513-.461V55.209a4.078,4.078,0,0,1,4.272-3.839h3.179v5.773H29.771a1.142,1.142,0,0,0-1.2,1.075v.727a.516.516,0,0,0,1.025,0v-.727a.163.163,0,0,1,.171-.154h2.242a1.539,1.539,0,0,0,1.45.921A1.468,1.468,0,0,0,35,57.6V50.909A1.468,1.468,0,0,0,33.462,49.527ZM1.025,61.1V46.3a1.468,1.468,0,0,1,1.538-1.382H26.011A1.468,1.468,0,0,1,27.549,46.3v4.27a5.664,5.664,0,0,0-1.025.316V46.61a.815.815,0,0,0-.854-.768H5.981a.463.463,0,1,0,0,.921H25.5v.921H3.076v-.921h.513a.463.463,0,1,0,0-.921H2.905a.815.815,0,0,0-.854.768V60.8a.815.815,0,0,0,.854.768H23.447v.921H2.563A1.468,1.468,0,0,1,1.025,61.1Zm12.236,3.071v-.768h2.051v.768a.163.163,0,0,1-.171.154H13.433A.163.163,0,0,1,13.262,64.175Zm12.749,3.869a1.142,1.142,0,0,1-1.2,1.075H15.962a1.142,1.142,0,0,1-1.2-1.075V65.25h.376a1.142,1.142,0,0,0,1.2-1.075v-.768h7.109V64.79a1.4,1.4,0,0,0,1.025,1.3v.847a1.142,1.142,0,0,0,1.2,1.075h.342Zm1.367-.952H25.669a.163.163,0,0,1-.171-.154v-.768h2.051v.768A.163.163,0,0,1,27.378,67.093ZM23.447,55.209v5.435H3.076V48.606H25.5v2.825c0,.007,0,.013,0,.019A4.6,4.6,0,0,0,23.447,55.209Zm10.527,2.4a.516.516,0,0,1-1.025,0V50.909a.516.516,0,0,1,1.025,0Z" transform="translate(241 497)" fill="#0e3f6c"/>
    <g id="Rectangle_3989" data-name="Rectangle 3989" transform="translate(249 547)" fill="#fff" stroke="#e5184e" stroke-width="1">
      <rect width="9" height="9" rx="3" stroke="none"/>
      <rect x="0.5" y="0.5" width="8" height="8" rx="2.5" fill="none"/>
    </g>
  </g>
</svg>
