<svg id="mammography" xmlns="http://www.w3.org/2000/svg" width="75.121" height="67.497" viewBox="0 0 75.121 67.497">
  <path id="Path_5017" data-name="Path 5017" d="M27.885,40.342a1.343,1.343,0,0,0,1.74-.294,11.122,11.122,0,0,0,2.3-6.8,11.992,11.992,0,0,0-.068-1.226A1.221,1.221,0,0,0,30.495,31a1.166,1.166,0,0,0-1.134,1.222,10.2,10.2,0,0,1,.058,1.024,9.059,9.059,0,0,1-1.859,5.53A1.055,1.055,0,0,0,27.885,40.342Z" transform="translate(4.386 1.626)" fill="#0e3f6c"/>
  <path id="Path_5018" data-name="Path 5018" d="M47.512,36.375a3.778,3.778,0,0,0-7.512,0,3.778,3.778,0,0,0,7.512,0Zm-5.008,0A1.259,1.259,0,1,1,43.756,37.5,1.194,1.194,0,0,1,42.5,36.375Z" transform="translate(7.577 1.876)" fill="#0e3f6c"/>
  <path id="Path_5019" data-name="Path 5019" d="M25.512,35.375A3.581,3.581,0,0,0,21.756,32,3.581,3.581,0,0,0,18,35.375a3.581,3.581,0,0,0,3.756,3.375A3.581,3.581,0,0,0,25.512,35.375Zm-5.008,0A1.259,1.259,0,1,1,21.756,36.5,1.194,1.194,0,0,1,20.5,35.375Z" transform="translate(2.032 1.751)" fill="#0e3f6c"/>
  <path id="Path_5020" data-name="Path 5020" d="M75.869,47a1.194,1.194,0,0,0,1.252-1.125v-22.5a1.194,1.194,0,0,0-1.252-1.125H69.688a14.29,14.29,0,0,0-10.59-4.5H53.333a6.077,6.077,0,0,1-6.1-4.478,11.8,11.8,0,0,0,4.81-6.115L53.28,3.444a1.111,1.111,0,0,0-.84-1.4,1.28,1.28,0,0,0-1.559.755L49.644,6.51a10.45,10.45,0,0,1-10.083,6.741A10.45,10.45,0,0,1,29.478,6.51L28.24,2.8a1.281,1.281,0,0,0-1.56-.754,1.111,1.111,0,0,0-.839,1.4l1.238,3.712a11.777,11.777,0,0,0,4.809,6.115,6.078,6.078,0,0,1-6.1,4.476H20.029a14.3,14.3,0,0,0-10.59,4.5H3.252A1.194,1.194,0,0,0,2,23.373V68.367a1.194,1.194,0,0,0,1.252,1.125h18.78a1.131,1.131,0,1,0,0-2.25H4.5V60.493H74.617v6.749H27.04a1.131,1.131,0,1,0,0,2.25H75.869a1.194,1.194,0,0,0,1.252-1.125v-18a1.259,1.259,0,0,0-2.5,0v7.874H4.5V24.5H74.617V45.87A1.194,1.194,0,0,0,75.869,47ZM20.029,20h5.759a8.65,8.65,0,0,0,8.369-5.546,14.48,14.48,0,0,0,10.807,0A8.651,8.651,0,0,0,53.333,20h5.759a11.964,11.964,0,0,1,7.073,2.25H12.95A11.962,11.962,0,0,1,20.029,20Z" transform="translate(-2 -1.996)" fill="#0e3f6c"/>
  <path id="Path_5021" data-name="Path 5021" d="M7.252,28.5A1.194,1.194,0,0,0,6,29.624v22.5a1.194,1.194,0,0,0,1.252,1.125h62.6a1.194,1.194,0,0,0,1.252-1.125v-27A1.194,1.194,0,0,0,69.853,24H7.252a1.131,1.131,0,1,0,0,2.25H68.6V51H64.595l-3.11-12.583a11.216,11.216,0,0,0-1.05-10.555,1.324,1.324,0,0,0-2.192.02,1.028,1.028,0,0,0,.05,1.143,9.115,9.115,0,0,1,1.545,5.1,8.767,8.767,0,1,1-17.528,0,9.365,9.365,0,0,1,.059-1.012,1.163,1.163,0,0,0-1.121-1.232,1.225,1.225,0,0,0-1.371,1.007,11.222,11.222,0,0,0,11.2,12.486,11.351,11.351,0,0,0,2.32-.242A21.173,21.173,0,0,0,52.882,51h-29.4a21.239,21.239,0,0,0-.689-6.1,11.2,11.2,0,0,0,8.03-.6,1.071,1.071,0,0,0,.521-1.521,1.326,1.326,0,0,0-1.693-.468,8.367,8.367,0,0,1-3.621.814,8.894,8.894,0,0,1-8.764-9,9.1,9.1,0,0,1,1.547-5.1,1.062,1.062,0,0,0-.424-1.544,1.335,1.335,0,0,0-1.719.381,11.122,11.122,0,0,0-1.581,8.906L12.452,51H8.5V29.624A1.194,1.194,0,0,0,7.252,28.5ZM56.239,44.11a11.333,11.333,0,0,0,3.418-2.717L62.032,51H55.386a19.172,19.172,0,0,1,.853-6.886ZM16.9,40.69a11.319,11.319,0,0,0,2.94,2.823l.459,1.651A19.223,19.223,0,0,1,20.979,51H14.99Z" transform="translate(-0.992 0.752)" fill="#0e3f6c"/>
  <ellipse id="Ellipse_248" data-name="Ellipse 248" cx="1.445" cy="1.298" rx="1.445" ry="1.298" transform="translate(66.377 60.129)" fill="#0e3f6c"/>
  <ellipse id="Ellipse_249" data-name="Ellipse 249" cx="1.445" cy="1.298" rx="1.445" ry="1.298" transform="translate(60.598 60.129)" fill="#0e3f6c"/>
  <ellipse id="Ellipse_250" data-name="Ellipse 250" cx="1.445" cy="1.298" rx="1.445" ry="1.298" transform="translate(56.263 60.129)" fill="#0e3f6c"/>
  <path id="Path_5022" data-name="Path 5022" d="M45.512,58.25a1.131,1.131,0,1,0,0-2.25h-6.26a1.131,1.131,0,1,0,0,2.25Z" transform="translate(7.073 4.747)" fill="#e5184e"/>
  <path id="Path_5023" data-name="Path 5023" d="M30.252,9.25H35.26a1.194,1.194,0,0,0,1.252-1.125A1.194,1.194,0,0,0,35.26,7H30.252A1.194,1.194,0,0,0,29,8.125,1.194,1.194,0,0,0,30.252,9.25Z" transform="translate(4.805 -1.371)" fill="#0e3f6c"/>
</svg>
